<?xml version="1.0" encoding="utf-8" standalone="no"?>
<!DOCTYPE svg PUBLIC "-//W3C//DTD SVG 1.1//EN"
  "http://www.w3.org/Graphics/SVG/1.1/DTD/svg11.dtd">
<svg xmlns:xlink="http://www.w3.org/1999/xlink" width="872.39952pt" height="368.438103pt" viewBox="0 0 872.39952 368.438103" xmlns="http://www.w3.org/2000/svg" version="1.1">
 <metadata>
  <rdf:RDF xmlns:dc="http://purl.org/dc/elements/1.1/" xmlns:cc="http://creativecommons.org/ns#" xmlns:rdf="http://www.w3.org/1999/02/22-rdf-syntax-ns#">
   <cc:Work>
    <dc:type rdf:resource="http://purl.org/dc/dcmitype/StillImage"/>
    <dc:date>2024-09-13T15:30:48.170964</dc:date>
    <dc:format>image/svg+xml</dc:format>
    <dc:creator>
     <cc:Agent>
      <dc:title>Matplotlib v3.9.2, https://matplotlib.org/</dc:title>
     </cc:Agent>
    </dc:creator>
   </cc:Work>
  </rdf:RDF>
 </metadata>
 <defs>
  <style type="text/css">*{stroke-linejoin: round; stroke-linecap: butt}</style>
 </defs>
 <g id="figure_1">
  <g id="patch_1">
   <path d="M 0 368.438103 
L 872.39952 368.438103 
L 872.39952 0 
L 0 0 
z
" style="fill: #ffffff"/>
  </g>
  <g id="axes_1">
   <g id="patch_2">
    <path d="M 65.930416 323.24423 
L 247.417368 323.24423 
L 247.417368 49.516712 
L 65.930416 49.516712 
z
" style="fill: #ffffff"/>
   </g>
   <g id="matplotlib.axis_1">
    <g id="xtick_1">
     <g id="line2d_1">
      <defs>
       <path id="maee77b39cd" d="M 0 0 
L 0 6 
" style="stroke: #262626; stroke-width: 1.25"/>
      </defs>
      <g>
       <use xlink:href="#maee77b39cd" x="73.492373" y="323.24423" style="fill: #262626; stroke: #262626; stroke-width: 1.25"/>
      </g>
     </g>
     <g id="text_1">
      <!-- $\mathdefault{1}$ -->
      <g style="fill: #262626" transform="translate(70.752639 340.354577) scale(0.11 -0.11)">
       <defs>
        <path id="CMR17-31" d="M 1702 4058 
C 1702 4192 1696 4192 1606 4192 
C 1357 3916 979 3827 621 3827 
C 602 3827 570 3827 563 3808 
C 557 3795 557 3782 557 3648 
C 755 3648 1088 3686 1344 3839 
L 1344 461 
C 1344 236 1331 160 781 160 
L 589 160 
L 589 0 
C 896 0 1216 0 1523 0 
C 1830 0 2150 0 2458 0 
L 2458 160 
L 2266 160 
C 1715 160 1702 230 1702 458 
L 1702 4058 
z
" transform="scale(0.015625)"/>
       </defs>
       <use xlink:href="#CMR17-31" transform="scale(0.996264)"/>
      </g>
     </g>
    </g>
    <g id="xtick_2">
     <g id="line2d_2">
      <g>
       <use xlink:href="#maee77b39cd" x="88.616285" y="323.24423" style="fill: #262626; stroke: #262626; stroke-width: 1.25"/>
      </g>
     </g>
     <g id="text_2">
      <!-- $\mathdefault{2}$ -->
      <g style="fill: #262626" transform="translate(85.876552 340.354577) scale(0.11 -0.11)">
       <defs>
        <path id="CMR17-32" d="M 2669 989 
L 2554 989 
C 2490 536 2438 459 2413 420 
C 2381 369 1920 369 1830 369 
L 602 369 
C 832 619 1280 1072 1824 1597 
C 2214 1967 2669 2402 2669 3035 
C 2669 3790 2067 4224 1395 4224 
C 691 4224 262 3604 262 3030 
C 262 2780 448 2748 525 2748 
C 589 2748 781 2787 781 3010 
C 781 3207 614 3264 525 3264 
C 486 3264 448 3258 422 3245 
C 544 3790 915 4058 1306 4058 
C 1862 4058 2227 3617 2227 3035 
C 2227 2479 1901 2000 1536 1584 
L 262 146 
L 262 0 
L 2515 0 
L 2669 989 
z
" transform="scale(0.015625)"/>
       </defs>
       <use xlink:href="#CMR17-32" transform="scale(0.996264)"/>
      </g>
     </g>
    </g>
    <g id="xtick_3">
     <g id="line2d_3">
      <g>
       <use xlink:href="#maee77b39cd" x="103.740198" y="323.24423" style="fill: #262626; stroke: #262626; stroke-width: 1.25"/>
      </g>
     </g>
     <g id="text_3">
      <!-- $\mathdefault{3}$ -->
      <g style="fill: #262626" transform="translate(101.000464 340.354577) scale(0.11 -0.11)">
       <defs>
        <path id="CMR17-33" d="M 1414 2157 
C 1984 2157 2234 1662 2234 1090 
C 2234 320 1824 25 1453 25 
C 1114 25 563 194 390 693 
C 422 680 454 680 486 680 
C 640 680 755 782 755 948 
C 755 1133 614 1216 486 1216 
C 378 1216 211 1165 211 926 
C 211 335 787 -128 1466 -128 
C 2176 -128 2720 430 2720 1085 
C 2720 1707 2208 2157 1600 2227 
C 2086 2328 2554 2756 2554 3329 
C 2554 3820 2048 4179 1472 4179 
C 890 4179 378 3829 378 3329 
C 378 3110 544 3072 627 3072 
C 762 3072 877 3155 877 3321 
C 877 3486 762 3569 627 3569 
C 602 3569 570 3569 544 3557 
C 730 3959 1235 4032 1459 4032 
C 1683 4032 2106 3925 2106 3320 
C 2106 3143 2080 2828 1862 2550 
C 1670 2304 1453 2304 1242 2284 
C 1210 2284 1062 2269 1037 2269 
C 992 2263 966 2257 966 2208 
C 966 2163 973 2157 1101 2157 
L 1414 2157 
z
" transform="scale(0.015625)"/>
       </defs>
       <use xlink:href="#CMR17-33" transform="scale(0.996264)"/>
      </g>
     </g>
    </g>
    <g id="xtick_4">
     <g id="line2d_4">
      <g>
       <use xlink:href="#maee77b39cd" x="118.864111" y="323.24423" style="fill: #262626; stroke: #262626; stroke-width: 1.25"/>
      </g>
     </g>
     <g id="text_4">
      <!-- $\mathdefault{4}$ -->
      <g style="fill: #262626" transform="translate(116.124377 340.354577) scale(0.11 -0.11)">
       <defs>
        <path id="CMR17-34" d="M 2150 4122 
C 2150 4256 2144 4256 2029 4256 
L 128 1254 
L 128 1088 
L 1779 1088 
L 1779 457 
C 1779 224 1766 160 1318 160 
L 1197 160 
L 1197 0 
C 1402 0 1747 0 1965 0 
C 2182 0 2528 0 2733 0 
L 2733 160 
L 2611 160 
C 2163 160 2150 224 2150 457 
L 2150 1088 
L 2803 1088 
L 2803 1254 
L 2150 1254 
L 2150 4122 
z
M 1798 3703 
L 1798 1254 
L 256 1254 
L 1798 3703 
z
" transform="scale(0.015625)"/>
       </defs>
       <use xlink:href="#CMR17-34" transform="scale(0.996264)"/>
      </g>
     </g>
    </g>
    <g id="xtick_5">
     <g id="line2d_5">
      <g>
       <use xlink:href="#maee77b39cd" x="133.988023" y="323.24423" style="fill: #262626; stroke: #262626; stroke-width: 1.25"/>
      </g>
     </g>
     <g id="text_5">
      <!-- $\mathdefault{5}$ -->
      <g style="fill: #262626" transform="translate(131.24829 340.354577) scale(0.11 -0.11)">
       <defs>
        <path id="CMR17-35" d="M 730 3692 
C 794 3666 1056 3584 1325 3584 
C 1920 3584 2246 3911 2432 4100 
C 2432 4157 2432 4192 2394 4192 
C 2387 4192 2374 4192 2323 4163 
C 2099 4058 1837 3973 1517 3973 
C 1325 3973 1037 3999 723 4139 
C 653 4171 640 4171 634 4171 
C 602 4171 595 4164 595 4037 
L 595 2203 
C 595 2089 595 2057 659 2057 
C 691 2057 704 2070 736 2114 
C 941 2401 1222 2522 1542 2522 
C 1766 2522 2246 2382 2246 1289 
C 2246 1085 2246 715 2054 421 
C 1894 159 1645 25 1370 25 
C 947 25 518 320 403 814 
C 429 807 480 795 506 795 
C 589 795 749 840 749 1038 
C 749 1210 627 1280 506 1280 
C 358 1280 262 1190 262 1011 
C 262 454 704 -128 1382 -128 
C 2042 -128 2669 440 2669 1264 
C 2669 2030 2170 2624 1549 2624 
C 1222 2624 947 2503 730 2274 
L 730 3692 
z
" transform="scale(0.015625)"/>
       </defs>
       <use xlink:href="#CMR17-35" transform="scale(0.996264)"/>
      </g>
     </g>
    </g>
    <g id="xtick_6">
     <g id="line2d_6">
      <g>
       <use xlink:href="#maee77b39cd" x="149.111936" y="323.24423" style="fill: #262626; stroke: #262626; stroke-width: 1.25"/>
      </g>
     </g>
     <g id="text_6">
      <!-- $\mathdefault{6}$ -->
      <g style="fill: #262626" transform="translate(146.372202 340.354577) scale(0.11 -0.11)">
       <defs>
        <path id="CMR17-36" d="M 678 2176 
C 678 3690 1395 4032 1811 4032 
C 1946 4032 2272 4009 2400 3776 
C 2298 3776 2106 3776 2106 3553 
C 2106 3381 2246 3323 2336 3323 
C 2394 3323 2566 3348 2566 3560 
C 2566 3954 2246 4179 1805 4179 
C 1043 4179 243 3390 243 1984 
C 243 253 966 -128 1478 -128 
C 2099 -128 2688 427 2688 1283 
C 2688 2081 2170 2662 1517 2662 
C 1126 2662 838 2407 678 1960 
L 678 2176 
z
M 1478 25 
C 691 25 691 1200 691 1436 
C 691 1896 909 2560 1504 2560 
C 1613 2560 1926 2560 2138 2120 
C 2253 1870 2253 1609 2253 1289 
C 2253 944 2253 690 2118 434 
C 1978 171 1773 25 1478 25 
z
" transform="scale(0.015625)"/>
       </defs>
       <use xlink:href="#CMR17-36" transform="scale(0.996264)"/>
      </g>
     </g>
    </g>
    <g id="xtick_7">
     <g id="line2d_7">
      <g>
       <use xlink:href="#maee77b39cd" x="164.235849" y="323.24423" style="fill: #262626; stroke: #262626; stroke-width: 1.25"/>
      </g>
     </g>
     <g id="text_7">
      <!-- $\mathdefault{7}$ -->
      <g style="fill: #262626" transform="translate(161.496115 340.354577) scale(0.11 -0.11)">
       <defs>
        <path id="CMR17-37" d="M 2886 3941 
L 2886 4081 
L 1382 4081 
C 634 4081 621 4165 595 4288 
L 480 4288 
L 294 3094 
L 410 3094 
C 429 3215 474 3540 550 3661 
C 589 3712 1062 3712 1171 3712 
L 2579 3712 
L 1869 2661 
C 1395 1954 1069 999 1069 165 
C 1069 89 1069 -128 1299 -128 
C 1530 -128 1530 89 1530 171 
L 1530 465 
C 1530 1508 1709 2196 2003 2636 
L 2886 3941 
z
" transform="scale(0.015625)"/>
       </defs>
       <use xlink:href="#CMR17-37" transform="scale(0.996264)"/>
      </g>
     </g>
    </g>
    <g id="xtick_8">
     <g id="line2d_8">
      <g>
       <use xlink:href="#maee77b39cd" x="179.359761" y="323.24423" style="fill: #262626; stroke: #262626; stroke-width: 1.25"/>
      </g>
     </g>
     <g id="text_8">
      <!-- $\mathdefault{8}$ -->
      <g style="fill: #262626" transform="translate(176.620028 340.354577) scale(0.11 -0.11)">
       <defs>
        <path id="CMR17-38" d="M 1741 2264 
C 2144 2467 2554 2773 2554 3263 
C 2554 3841 1990 4179 1472 4179 
C 890 4179 378 3759 378 3180 
C 378 3021 416 2747 666 2505 
C 730 2442 998 2251 1171 2130 
C 883 1983 211 1634 211 934 
C 211 279 838 -128 1459 -128 
C 2144 -128 2720 362 2720 1010 
C 2720 1590 2330 1857 2074 2029 
L 1741 2264 
z
M 902 2822 
C 851 2854 595 3051 595 3351 
C 595 3739 998 4032 1459 4032 
C 1965 4032 2336 3676 2336 3262 
C 2336 2669 1670 2331 1638 2331 
C 1632 2331 1626 2331 1574 2370 
L 902 2822 
z
M 2080 1519 
C 2176 1449 2483 1240 2483 851 
C 2483 381 2010 25 1472 25 
C 890 25 448 438 448 940 
C 448 1443 838 1862 1280 2060 
L 2080 1519 
z
" transform="scale(0.015625)"/>
       </defs>
       <use xlink:href="#CMR17-38" transform="scale(0.996264)"/>
      </g>
     </g>
    </g>
    <g id="xtick_9">
     <g id="line2d_9">
      <g>
       <use xlink:href="#maee77b39cd" x="194.483674" y="323.24423" style="fill: #262626; stroke: #262626; stroke-width: 1.25"/>
      </g>
     </g>
     <g id="text_9">
      <!-- $\mathdefault{9}$ -->
      <g style="fill: #262626" transform="translate(191.74394 340.354577) scale(0.11 -0.11)">
       <defs>
        <path id="CMR17-39" d="M 2253 1864 
C 2253 464 1670 31 1190 31 
C 1043 31 685 31 538 294 
C 704 268 826 357 826 518 
C 826 692 685 749 595 749 
C 538 749 365 723 365 506 
C 365 71 742 -128 1203 -128 
C 1939 -128 2688 674 2688 2073 
C 2688 3817 1971 4179 1485 4179 
C 851 4179 243 3628 243 2778 
C 243 1991 762 1408 1414 1408 
C 1952 1408 2189 1903 2253 2112 
L 2253 1864 
z
M 1427 1510 
C 1254 1510 1011 1542 813 1922 
C 678 2169 678 2461 678 2771 
C 678 3146 678 3405 858 3684 
C 947 3817 1114 4032 1485 4032 
C 2240 4032 2240 2885 2240 2632 
C 2240 2182 2035 1510 1427 1510 
z
" transform="scale(0.015625)"/>
       </defs>
       <use xlink:href="#CMR17-39" transform="scale(0.996264)"/>
      </g>
     </g>
    </g>
    <g id="xtick_10">
     <g id="line2d_10">
      <g>
       <use xlink:href="#maee77b39cd" x="209.607586" y="323.24423" style="fill: #262626; stroke: #262626; stroke-width: 1.25"/>
      </g>
     </g>
     <g id="text_10">
      <!-- $\mathdefault{10}$ -->
      <g style="fill: #262626" transform="translate(204.128119 340.354577) scale(0.11 -0.11)">
       <defs>
        <path id="CMR17-30" d="M 2688 2025 
C 2688 2416 2682 3080 2413 3591 
C 2176 4039 1798 4198 1466 4198 
C 1158 4198 768 4058 525 3597 
C 269 3118 243 2524 243 2025 
C 243 1661 250 1106 448 619 
C 723 -39 1216 -128 1466 -128 
C 1760 -128 2208 -7 2470 600 
C 2662 1042 2688 1559 2688 2025 
z
M 1466 -26 
C 1056 -26 813 325 723 812 
C 653 1188 653 1738 653 2096 
C 653 2588 653 2997 736 3387 
C 858 3929 1216 4096 1466 4096 
C 1728 4096 2067 3923 2189 3400 
C 2272 3036 2278 2607 2278 2096 
C 2278 1680 2278 1169 2202 792 
C 2067 95 1690 -26 1466 -26 
z
" transform="scale(0.015625)"/>
       </defs>
       <use xlink:href="#CMR17-31" transform="scale(0.996264)"/>
       <use xlink:href="#CMR17-30" transform="translate(45.690477 0) scale(0.996264)"/>
      </g>
     </g>
    </g>
    <g id="xtick_11">
     <g id="line2d_11">
      <g>
       <use xlink:href="#maee77b39cd" x="224.731499" y="323.24423" style="fill: #262626; stroke: #262626; stroke-width: 1.25"/>
      </g>
     </g>
     <g id="text_11">
      <!-- $\mathdefault{11}$ -->
      <g style="fill: #262626" transform="translate(219.252032 340.354577) scale(0.11 -0.11)">
       <use xlink:href="#CMR17-31" transform="scale(0.996264)"/>
       <use xlink:href="#CMR17-31" transform="translate(45.690477 0) scale(0.996264)"/>
      </g>
     </g>
    </g>
    <g id="xtick_12">
     <g id="line2d_12">
      <g>
       <use xlink:href="#maee77b39cd" x="239.855412" y="323.24423" style="fill: #262626; stroke: #262626; stroke-width: 1.25"/>
      </g>
     </g>
     <g id="text_12">
      <!-- $\mathdefault{12}$ -->
      <g style="fill: #262626" transform="translate(234.375944 340.354577) scale(0.11 -0.11)">
       <use xlink:href="#CMR17-31" transform="scale(0.996264)"/>
       <use xlink:href="#CMR17-32" transform="translate(45.690477 0) scale(0.996264)"/>
      </g>
     </g>
    </g>
   </g>
   <g id="matplotlib.axis_2">
    <g id="ytick_1">
     <g id="line2d_13">
      <defs>
       <path id="mc59773113b" d="M 0 0 
L -6 0 
" style="stroke: #262626; stroke-width: 1.25"/>
      </defs>
      <g>
       <use xlink:href="#mc59773113b" x="65.930416" y="314.502336" style="fill: #262626; stroke: #262626; stroke-width: 1.25"/>
      </g>
     </g>
     <g id="text_13">
      <!-- $\mathdefault{0}$ -->
      <g style="fill: #262626" transform="translate(50.950949 318.307509) scale(0.11 -0.11)">
       <use xlink:href="#CMR17-30" transform="scale(0.996264)"/>
      </g>
     </g>
    </g>
    <g id="ytick_2">
     <g id="line2d_14">
      <g>
       <use xlink:href="#mc59773113b" x="65.930416" y="257.683865" style="fill: #262626; stroke: #262626; stroke-width: 1.25"/>
      </g>
     </g>
     <g id="text_14">
      <!-- $\mathdefault{5}$ -->
      <g style="fill: #262626" transform="translate(50.950949 261.489038) scale(0.11 -0.11)">
       <use xlink:href="#CMR17-35" transform="scale(0.996264)"/>
      </g>
     </g>
    </g>
    <g id="ytick_3">
     <g id="line2d_15">
      <g>
       <use xlink:href="#mc59773113b" x="65.930416" y="200.865393" style="fill: #262626; stroke: #262626; stroke-width: 1.25"/>
      </g>
     </g>
     <g id="text_15">
      <!-- $\mathdefault{10}$ -->
      <g style="fill: #262626" transform="translate(45.471482 204.670567) scale(0.11 -0.11)">
       <use xlink:href="#CMR17-31" transform="scale(0.996264)"/>
       <use xlink:href="#CMR17-30" transform="translate(45.690477 0) scale(0.996264)"/>
      </g>
     </g>
    </g>
    <g id="ytick_4">
     <g id="line2d_16">
      <g>
       <use xlink:href="#mc59773113b" x="65.930416" y="144.046922" style="fill: #262626; stroke: #262626; stroke-width: 1.25"/>
      </g>
     </g>
     <g id="text_16">
      <!-- $\mathdefault{15}$ -->
      <g style="fill: #262626" transform="translate(45.471482 147.852095) scale(0.11 -0.11)">
       <use xlink:href="#CMR17-31" transform="scale(0.996264)"/>
       <use xlink:href="#CMR17-35" transform="translate(45.690477 0) scale(0.996264)"/>
      </g>
     </g>
    </g>
    <g id="ytick_5">
     <g id="line2d_17">
      <g>
       <use xlink:href="#mc59773113b" x="65.930416" y="87.228451" style="fill: #262626; stroke: #262626; stroke-width: 1.25"/>
      </g>
     </g>
     <g id="text_17">
      <!-- $\mathdefault{20}$ -->
      <g style="fill: #262626" transform="translate(45.471482 91.033624) scale(0.11 -0.11)">
       <use xlink:href="#CMR17-32" transform="scale(0.996264)"/>
       <use xlink:href="#CMR17-30" transform="translate(45.690477 0) scale(0.996264)"/>
      </g>
     </g>
    </g>
    <g id="text_18">
     <!-- $H_2[P(X)] - H_2[P(X|\pi)]$  -->
     <g style="fill: #262626" transform="translate(19.155168 269.303252) rotate(-90) scale(0.16 -0.16)">
      <defs>
       <path id="CMMI12-48" d="M 4787 3887 
C 4845 4103 4858 4167 5312 4167 
C 5427 4167 5491 4167 5491 4282 
C 5491 4352 5434 4352 5395 4352 
C 5280 4352 5146 4352 5024 4352 
L 4269 4352 
C 4147 4352 4013 4352 3891 4352 
C 3846 4352 3770 4352 3770 4231 
C 3770 4167 3814 4167 3936 4167 
C 4320 4167 4320 4116 4320 4046 
C 4320 4034 4320 3995 4294 3900 
L 3904 2361 
L 1971 2361 
L 2355 3887 
C 2413 4103 2426 4167 2880 4167 
C 2995 4167 3059 4167 3059 4282 
C 3059 4352 3002 4352 2963 4352 
C 2848 4352 2714 4352 2592 4352 
L 1837 4352 
C 1715 4352 1581 4352 1459 4352 
C 1414 4352 1338 4352 1338 4231 
C 1338 4167 1382 4167 1504 4167 
C 1888 4167 1888 4116 1888 4046 
C 1888 4034 1888 3995 1862 3899 
L 998 472 
C 941 249 928 185 486 185 
C 339 185 294 185 294 64 
C 294 0 365 0 384 0 
C 499 0 634 0 755 0 
L 1510 0 
C 1632 0 1766 0 1888 0 
C 1939 0 2010 0 2010 121 
C 2010 185 1952 185 1856 185 
C 1466 185 1466 236 1466 300 
C 1466 307 1466 351 1478 402 
L 1920 2176 
L 3859 2176 
C 3750 1753 3424 416 3411 376 
C 3341 185 3238 185 2861 185 
C 2784 185 2726 185 2726 64 
C 2726 0 2797 0 2816 0 
C 2931 0 3066 0 3187 0 
L 3942 0 
C 4064 0 4198 0 4320 0 
C 4371 0 4442 0 4442 121 
C 4442 185 4384 185 4288 185 
C 3898 185 3898 236 3898 300 
C 3898 307 3898 351 3910 402 
L 4787 3887 
z
" transform="scale(0.015625)"/>
       <path id="CMR17-5b" d="M 1504 -1600 
L 1504 -1377 
L 902 -1377 
L 902 4544 
L 1504 4544 
L 1504 4767 
L 678 4767 
L 678 -1600 
L 1504 -1600 
z
" transform="scale(0.015625)"/>
       <path id="CMMI12-50" d="M 1894 2023 
L 2970 2023 
C 3853 2023 4736 2673 4736 3401 
C 4736 3898 4314 4352 3507 4352 
L 1530 4352 
C 1408 4352 1350 4352 1350 4231 
C 1350 4167 1408 4167 1504 4167 
C 1894 4167 1894 4116 1894 4046 
C 1894 4034 1894 3995 1869 3899 
L 1005 472 
C 947 249 934 185 486 185 
C 365 185 301 185 301 70 
C 301 0 358 0 397 0 
C 518 0 646 0 768 0 
L 1517 0 
C 1638 0 1773 0 1894 0 
C 1946 0 2016 0 2016 121 
C 2016 185 1958 185 1862 185 
C 1478 185 1472 230 1472 293 
C 1472 325 1478 369 1485 401 
L 1894 2023 
z
M 2355 3930 
C 2413 4167 2438 4167 2688 4167 
L 3322 4167 
C 3802 4167 4198 4013 4198 3535 
C 4198 3369 4115 2827 3821 2534 
C 3712 2419 3405 2176 2822 2176 
L 1920 2176 
L 2355 3930 
z
" transform="scale(0.015625)"/>
       <path id="CMR17-28" d="M 1958 -1561 
C 1958 -1555 1958 -1542 1939 -1523 
C 1645 -1224 858 -407 858 1581 
C 858 3569 1632 4379 1946 4697 
C 1946 4704 1958 4717 1958 4736 
C 1958 4755 1939 4768 1914 4768 
C 1843 4768 1299 4296 986 3594 
C 666 2887 576 2199 576 1588 
C 576 1128 621 351 1005 -471 
C 1312 -1135 1837 -1600 1914 -1600 
C 1946 -1600 1958 -1587 1958 -1561 
z
" transform="scale(0.015625)"/>
       <path id="CMMI12-58" d="M 3040 2596 
L 2438 3994 
C 2522 4147 2714 4172 2790 4179 
C 2829 4179 2899 4179 2899 4292 
C 2899 4364 2842 4364 2803 4364 
C 2694 4364 2566 4364 2458 4364 
L 2086 4364 
C 1696 4364 1414 4364 1408 4364 
C 1357 4364 1293 4364 1293 4243 
C 1293 4179 1350 4179 1434 4179 
C 1805 4179 1830 4115 1894 3962 
L 2656 2185 
L 1267 693 
C 1037 442 762 198 288 198 
C 211 192 160 192 160 68 
C 160 48 166 0 237 0 
C 326 0 422 0 512 0 
L 813 0 
C 1018 0 1242 0 1440 0 
C 1485 0 1562 0 1562 115 
C 1562 179 1517 185 1478 185 
C 1350 198 1267 268 1267 370 
C 1267 479 1344 557 1530 748 
L 2099 1368 
C 2240 1516 2579 1886 2720 2026 
L 3392 453 
C 3398 441 3424 377 3424 370 
C 3424 313 3283 198 3078 198 
C 3040 198 2970 198 2970 71 
C 2970 0 3034 0 3066 0 
C 3174 0 3302 0 3411 0 
L 4115 0 
C 4230 0 4352 0 4461 0 
C 4506 0 4576 0 4576 130 
C 4576 198 4512 198 4454 198 
C 4070 198 4058 230 3949 465 
L 3104 2441 
L 3917 3316 
C 3981 3381 4128 3542 4186 3606 
C 4461 3896 4717 4160 5235 4160 
C 5299 4179 5363 4179 5363 4292 
C 5363 4364 5306 4364 5280 4364 
C 5190 4364 5094 4364 5005 4364 
L 4710 4364 
C 4506 4364 4282 4364 4083 4364 
C 4038 4364 3962 4364 3962 4249 
C 3962 4185 4006 4179 4045 4179 
C 4147 4167 4256 4116 4256 3994 
L 4250 3982 
C 4243 3937 4230 3873 4160 3797 
L 3040 2596 
z
" transform="scale(0.015625)"/>
       <path id="CMR17-29" d="M 1683 1581 
C 1683 2040 1638 2817 1254 3639 
C 947 4303 422 4768 346 4768 
C 326 4768 301 4761 301 4729 
C 301 4717 307 4710 314 4697 
C 621 4378 1402 3568 1402 1584 
C 1402 -407 627 -1217 314 -1537 
C 307 -1549 301 -1556 301 -1568 
C 301 -1600 326 -1600 346 -1600 
C 416 -1600 960 -1128 1274 -426 
C 1594 281 1683 969 1683 1581 
z
" transform="scale(0.015625)"/>
       <path id="CMR17-5d" d="M 915 4767 
L 90 4767 
L 90 4544 
L 691 4544 
L 691 -1377 
L 90 -1377 
L 90 -1600 
L 915 -1600 
L 915 4767 
z
" transform="scale(0.015625)"/>
       <path id="CMSY10-0" d="M 4218 1472 
C 4326 1472 4442 1472 4442 1600 
C 4442 1728 4326 1728 4218 1728 
L 755 1728 
C 646 1728 531 1728 531 1600 
C 531 1472 646 1472 755 1472 
L 4218 1472 
z
" transform="scale(0.015625)"/>
       <path id="CMSY10-6a" d="M 1018 4570 
C 1018 4685 1018 4800 890 4800 
C 762 4800 762 4685 762 4570 
L 762 -1370 
C 762 -1485 762 -1600 890 -1600 
C 1018 -1600 1018 -1485 1018 -1370 
L 1018 4570 
z
" transform="scale(0.015625)"/>
       <path id="CMMI12-19" d="M 1658 2408 
L 2381 2408 
C 2208 1692 2099 1226 2099 716 
C 2099 626 2099 -64 2362 -64 
C 2496 -64 2611 57 2611 166 
C 2611 197 2611 210 2566 306 
C 2394 747 2394 1296 2394 1341 
C 2394 1379 2394 1832 2528 2408 
L 3245 2408 
C 3328 2408 3539 2408 3539 2612 
C 3539 2752 3418 2752 3302 2752 
L 1197 2752 
C 1050 2752 832 2752 538 2440 
C 371 2254 166 1916 166 1878 
C 166 1840 198 1827 237 1827 
C 282 1827 288 1846 320 1884 
C 653 2408 986 2408 1146 2408 
L 1510 2408 
C 1370 1929 1210 1373 685 256 
C 634 154 634 140 634 102 
C 634 -32 749 -64 806 -64 
C 992 -64 1043 102 1120 370 
C 1222 696 1222 709 1286 964 
L 1658 2408 
z
" transform="scale(0.015625)"/>
      </defs>
      <use xlink:href="#CMMI12-48" transform="scale(0.996264)"/>
      <use xlink:href="#CMR17-32" transform="translate(80.824837 -14.943915) scale(0.697382)"/>
      <use xlink:href="#CMR17-5b" transform="translate(113.306151 0) scale(0.996264)"/>
      <use xlink:href="#CMMI12-50" transform="translate(138.177209 0) scale(0.996264)"/>
      <use xlink:href="#CMR17-28" transform="translate(214.60303 0) scale(0.996264)"/>
      <use xlink:href="#CMMI12-58" transform="translate(249.883798 0) scale(0.996264)"/>
      <use xlink:href="#CMR17-29" transform="translate(338.67636 0) scale(0.996264)"/>
      <use xlink:href="#CMR17-5d" transform="translate(373.957127 0) scale(0.996264)"/>
      <use xlink:href="#CMSY10-0" transform="translate(420.967393 0) scale(0.996264)"/>
      <use xlink:href="#CMMI12-48" transform="translate(520.594067 0) scale(0.996264)"/>
      <use xlink:href="#CMR17-32" transform="translate(601.418904 -14.943915) scale(0.697382)"/>
      <use xlink:href="#CMR17-5b" transform="translate(633.900218 0) scale(0.996264)"/>
      <use xlink:href="#CMMI12-50" transform="translate(658.771276 0) scale(0.996264)"/>
      <use xlink:href="#CMR17-28" transform="translate(735.197097 0) scale(0.996264)"/>
      <use xlink:href="#CMMI12-58" transform="translate(770.477865 0) scale(0.996264)"/>
      <use xlink:href="#CMSY10-6a" transform="translate(859.270427 0) scale(0.996264)"/>
      <use xlink:href="#CMMI12-19" transform="translate(886.944512 0) scale(0.996264)"/>
      <use xlink:href="#CMR17-29" transform="translate(945.855112 0) scale(0.996264)"/>
      <use xlink:href="#CMR17-5d" transform="translate(981.13588 0) scale(0.996264)"/>
     </g>
     <!--  [bits] -->
     <g style="fill: #262626" transform="translate(37.486426 203.332465) rotate(-90) scale(0.16 -0.16)">
      <defs>
       <path id="CMR17-62" d="M 960 4396 
L 198 4326 
L 198 4160 
C 576 4160 634 4122 634 3817 
L 634 -13 
L 749 -13 
L 934 441 
C 1120 141 1395 -64 1766 -64 
C 2406 -64 3053 500 3053 1370 
C 3053 2188 2477 2790 1830 2790 
C 1434 2790 1152 2579 960 2330 
L 960 4396 
z
M 973 2004 
C 973 2118 973 2138 1062 2272 
C 1312 2657 1670 2688 1792 2688 
C 1984 2688 2643 2585 2643 1376 
C 2643 108 1888 38 1734 38 
C 1536 38 1248 114 1043 486 
C 973 608 973 621 973 735 
L 973 2004 
z
" transform="scale(0.015625)"/>
       <path id="CMR17-69" d="M 992 3909 
C 992 4049 877 4170 730 4170 
C 589 4170 467 4056 467 3909 
C 467 3769 582 3648 730 3648 
C 870 3648 992 3763 992 3909 
z
M 243 2706 
L 243 2541 
C 602 2541 653 2502 653 2197 
L 653 427 
C 653 184 627 153 218 153 
L 218 -13 
C 371 0 646 0 806 0 
C 960 0 1222 0 1370 -13 
L 1370 153 
C 992 153 979 191 979 420 
L 979 2776 
L 243 2706 
z
" transform="scale(0.015625)"/>
       <path id="CMR17-74" d="M 966 2560 
L 1862 2560 
L 1862 2725 
L 966 2725 
L 966 3904 
L 851 3904 
C 838 3245 614 2668 70 2668 
L 70 2560 
L 627 2560 
L 627 771 
C 627 650 627 -64 1370 -64 
C 1747 -64 1965 306 1965 777 
L 1965 1140 
L 1850 1140 
L 1850 783 
C 1850 344 1677 51 1408 51 
C 1222 51 966 178 966 758 
L 966 2560 
z
" transform="scale(0.015625)"/>
       <path id="CMR17-73" d="M 1978 2697 
C 1978 2813 1971 2819 1933 2819 
C 1907 2819 1901 2813 1824 2717 
C 1805 2691 1747 2626 1728 2601 
C 1523 2819 1235 2819 1126 2819 
C 416 2819 160 2447 160 2076 
C 160 1498 813 1365 998 1325 
C 1402 1243 1542 1217 1677 1101 
C 1760 1025 1901 884 1901 654 
C 1901 384 1747 38 1158 38 
C 602 38 403 460 288 1021 
C 269 1110 269 1117 218 1117 
C 166 1117 160 1110 160 983 
L 160 63 
C 160 -51 166 -58 205 -58 
C 237 -58 243 -51 275 0 
C 314 57 410 211 448 276 
C 576 103 800 -64 1158 -64 
C 1792 -64 2131 283 2131 784 
C 2131 1112 1958 1285 1875 1362 
C 1683 1561 1459 1606 1190 1657 
C 838 1735 390 1825 390 2217 
C 390 2383 480 2737 1126 2737 
C 1811 2737 1850 2094 1862 1888 
C 1869 1856 1901 1849 1920 1849 
C 1978 1849 1978 1869 1978 1978 
L 1978 2697 
z
" transform="scale(0.015625)"/>
      </defs>
      <use xlink:href="#CMR17-5b" transform="scale(0.996264)"/>
      <use xlink:href="#CMR17-62" transform="translate(24.871058 0) scale(0.996264)"/>
      <use xlink:href="#CMR17-69" transform="translate(75.766428 0) scale(0.996264)"/>
      <use xlink:href="#CMR17-74" transform="translate(100.637487 0) scale(0.996264)"/>
      <use xlink:href="#CMR17-73" transform="translate(135.918255 0) scale(0.996264)"/>
      <use xlink:href="#CMR17-5d" transform="translate(171.719592 0) scale(0.996264)"/>
     </g>
    </g>
   </g>
   <g id="PathCollection_1">
    <defs>
     <path id="m47eee6eb1b" d="M 0 3 
C 0.795609 3 1.55874 2.683901 2.12132 2.12132 
C 2.683901 1.55874 3 0.795609 3 0 
C 3 -0.795609 2.683901 -1.55874 2.12132 -2.12132 
C 1.55874 -2.683901 0.795609 -3 0 -3 
C -0.795609 -3 -1.55874 -2.683901 -2.12132 -2.12132 
C -2.683901 -1.55874 -3 -0.795609 -3 0 
C -3 0.795609 -2.683901 1.55874 -2.12132 2.12132 
C -1.55874 2.683901 -0.795609 3 0 3 
z
" style="stroke: #000000"/>
    </defs>
    <g clip-path="url(#pb15d461993)">
     <use xlink:href="#m47eee6eb1b" x="209.607586" y="11678.196579" style="stroke: #000000"/>
    </g>
   </g>
   <g id="PathCollection_2">
    <defs>
     <path id="mfbad5342ac" d="M 0 -3 
L -3 3 
L 3 3 
z
" style="stroke: #000000"/>
    </defs>
    <g clip-path="url(#pb15d461993)">
     <use xlink:href="#mfbad5342ac" x="209.607586" y="11678.196579" style="stroke: #000000"/>
    </g>
   </g>
   <g id="line2d_18">
    <path d="M 65.930416 294.232187 
L 247.417368 294.232187 
" clip-path="url(#pb15d461993)" style="fill: none; stroke-dasharray: 5.55,2.4; stroke-dashoffset: 0; stroke: #4c72b0; stroke-opacity: 0.4; stroke-width: 1.5"/>
   </g>
   <g id="LineCollection_1">
    <path d="M 73.492373 304.303454 
L 73.492373 298.419985 
" clip-path="url(#pb15d461993)" style="fill: none; stroke: #4c72b0; stroke-width: 1.5"/>
   </g>
   <g id="LineCollection_2">
    <path d="M 88.616285 297.236316 
L 88.616285 288.977788 
" clip-path="url(#pb15d461993)" style="fill: none; stroke: #4c72b0; stroke-width: 1.5"/>
   </g>
   <g id="LineCollection_3">
    <path d="M 103.740198 316.645383 
L 103.740198 312.246153 
" clip-path="url(#pb15d461993)" style="fill: none; stroke: #4c72b0; stroke-width: 1.5"/>
   </g>
   <g id="LineCollection_4">
    <path d="M 118.864111 294.887022 
L 118.864111 289.662525 
" clip-path="url(#pb15d461993)" style="fill: none; stroke: #4c72b0; stroke-width: 1.5"/>
   </g>
   <g id="LineCollection_5">
    <path d="M 133.988023 302.461057 
L 133.988023 298.519565 
" clip-path="url(#pb15d461993)" style="fill: none; stroke: #4c72b0; stroke-width: 1.5"/>
   </g>
   <g id="LineCollection_6">
    <path d="M 149.111936 312.469211 
L 149.111936 310.608807 
" clip-path="url(#pb15d461993)" style="fill: none; stroke: #4c72b0; stroke-width: 1.5"/>
   </g>
   <g id="LineCollection_7">
    <path d="M 164.235849 312.492375 
L 164.235849 309.215475 
" clip-path="url(#pb15d461993)" style="fill: none; stroke: #4c72b0; stroke-width: 1.5"/>
   </g>
   <g id="LineCollection_8">
    <path d="M 179.359761 309.430433 
L 179.359761 307.173873 
" clip-path="url(#pb15d461993)" style="fill: none; stroke: #4c72b0; stroke-width: 1.5"/>
   </g>
   <g id="LineCollection_9">
    <path d="M 194.483674 287.638726 
L 194.483674 286.194021 
" clip-path="url(#pb15d461993)" style="fill: none; stroke: #4c72b0; stroke-width: 1.5"/>
   </g>
   <g id="LineCollection_10">
    <path d="M 209.607586 301.662237 
L 209.607586 295.969415 
" clip-path="url(#pb15d461993)" style="fill: none; stroke: #4c72b0; stroke-width: 1.5"/>
   </g>
   <g id="LineCollection_11">
    <path d="M 224.731499 286.288073 
L 224.731499 281.54177 
" clip-path="url(#pb15d461993)" style="fill: none; stroke: #4c72b0; stroke-width: 1.5"/>
   </g>
   <g id="LineCollection_12">
    <path d="M 239.855412 278.365199 
L 239.855412 275.745794 
" clip-path="url(#pb15d461993)" style="fill: none; stroke: #4c72b0; stroke-width: 1.5"/>
   </g>
   <g id="line2d_19">
    <defs>
     <path id="m40f80d6ff2" d="M 0 3 
C 0.795609 3 1.55874 2.683901 2.12132 2.12132 
C 2.683901 1.55874 3 0.795609 3 0 
C 3 -0.795609 2.683901 -1.55874 2.12132 -2.12132 
C 1.55874 -2.683901 0.795609 -3 0 -3 
C -0.795609 -3 -1.55874 -2.683901 -2.12132 -2.12132 
C -2.683901 -1.55874 -3 -0.795609 -3 0 
C -3 0.795609 -2.683901 1.55874 -2.12132 2.12132 
C -1.55874 2.683901 -0.795609 3 0 3 
z
" style="stroke: #4c72b0"/>
    </defs>
    <g clip-path="url(#pb15d461993)">
     <use xlink:href="#m40f80d6ff2" x="73.492373" y="301.361719" style="fill: #4c72b0; stroke: #4c72b0"/>
    </g>
   </g>
   <g id="line2d_20">
    <g clip-path="url(#pb15d461993)">
     <use xlink:href="#m40f80d6ff2" x="88.616285" y="293.107052" style="fill: #4c72b0; stroke: #4c72b0"/>
    </g>
   </g>
   <g id="line2d_21">
    <g clip-path="url(#pb15d461993)">
     <use xlink:href="#m40f80d6ff2" x="103.740198" y="314.445768" style="fill: #4c72b0; stroke: #4c72b0"/>
    </g>
   </g>
   <g id="line2d_22">
    <g clip-path="url(#pb15d461993)">
     <use xlink:href="#m40f80d6ff2" x="118.864111" y="292.274774" style="fill: #4c72b0; stroke: #4c72b0"/>
    </g>
   </g>
   <g id="line2d_23">
    <g clip-path="url(#pb15d461993)">
     <use xlink:href="#m40f80d6ff2" x="133.988023" y="300.490311" style="fill: #4c72b0; stroke: #4c72b0"/>
    </g>
   </g>
   <g id="line2d_24">
    <g clip-path="url(#pb15d461993)">
     <use xlink:href="#m40f80d6ff2" x="149.111936" y="311.539009" style="fill: #4c72b0; stroke: #4c72b0"/>
    </g>
   </g>
   <g id="line2d_25">
    <g clip-path="url(#pb15d461993)">
     <use xlink:href="#m40f80d6ff2" x="164.235849" y="310.853925" style="fill: #4c72b0; stroke: #4c72b0"/>
    </g>
   </g>
   <g id="line2d_26">
    <g clip-path="url(#pb15d461993)">
     <use xlink:href="#m40f80d6ff2" x="179.359761" y="308.302153" style="fill: #4c72b0; stroke: #4c72b0"/>
    </g>
   </g>
   <g id="line2d_27">
    <g clip-path="url(#pb15d461993)">
     <use xlink:href="#m40f80d6ff2" x="194.483674" y="286.916373" style="fill: #4c72b0; stroke: #4c72b0"/>
    </g>
   </g>
   <g id="line2d_28">
    <defs>
     <path id="mb70d22f216" d="M 0 -3 
L -3 3 
L 3 3 
z
" style="stroke: #4c72b0; stroke-linejoin: miter"/>
    </defs>
    <g clip-path="url(#pb15d461993)">
     <use xlink:href="#mb70d22f216" x="209.607586" y="298.815826" style="fill: #4c72b0; stroke: #4c72b0; stroke-linejoin: miter"/>
    </g>
   </g>
   <g id="line2d_29">
    <g clip-path="url(#pb15d461993)">
     <use xlink:href="#mb70d22f216" x="224.731499" y="283.914921" style="fill: #4c72b0; stroke: #4c72b0; stroke-linejoin: miter"/>
    </g>
   </g>
   <g id="line2d_30">
    <g clip-path="url(#pb15d461993)">
     <use xlink:href="#mb70d22f216" x="239.855412" y="277.055496" style="fill: #4c72b0; stroke: #4c72b0; stroke-linejoin: miter"/>
    </g>
   </g>
   <g id="patch_3">
    <path d="M 65.930416 323.24423 
L 65.930416 49.516712 
" style="fill: none; stroke: #262626; stroke-width: 1.25; stroke-linejoin: miter; stroke-linecap: square"/>
   </g>
   <g id="patch_4">
    <path d="M 65.930416 323.24423 
L 247.417368 323.24423 
" style="fill: none; stroke: #262626; stroke-width: 1.25; stroke-linejoin: miter; stroke-linecap: square"/>
   </g>
   <g id="text_19">
    <!-- \bf a) -->
    <g style="fill: #262626" transform="translate(47.781721 22.14396) scale(0.2 -0.2)">
     <defs>
      <path id="CMBX12-61" d="M 2944 1898 
C 2944 2484 2477 2879 1574 2879 
C 1216 2879 461 2879 461 2334 
C 461 2061 666 1945 838 1945 
C 1030 1945 1216 2079 1216 2323 
C 1216 2445 1171 2559 1062 2630 
C 1274 2688 1427 2688 1549 2688 
C 1984 2688 2246 2445 2246 1919 
L 2246 1663 
C 1235 1663 218 1382 218 676 
C 218 95 960 -32 1402 -32 
C 1894 -32 2208 233 2336 510 
C 2336 274 2336 0 2982 0 
L 3309 0 
C 3443 0 3494 0 3494 145 
C 3494 273 3437 273 3347 273 
C 2944 273 2944 374 2944 522 
L 2944 1898 
z
M 2246 882 
C 2246 291 1709 178 1504 178 
C 1190 178 928 390 928 686 
C 928 1273 1619 1472 2246 1472 
L 2246 882 
z
" transform="scale(0.015625)"/>
      <path id="CMBX12-29" d="M 2099 1581 
C 2099 2751 1658 3890 749 4628 
C 582 4768 570 4768 506 4768 
C 474 4768 397 4768 397 4692 
C 397 4667 397 4654 518 4540 
C 1235 3827 1510 2708 1510 1588 
C 1510 334 1197 -696 480 -1415 
C 403 -1492 397 -1498 397 -1524 
C 397 -1600 474 -1600 506 -1600 
C 563 -1600 576 -1600 742 -1466 
C 1664 -735 2099 436 2099 1581 
z
" transform="scale(0.015625)"/>
     </defs>
     <use xlink:href="#CMBX12-61" transform="scale(0.996264)"/>
     <use xlink:href="#CMBX12-29" transform="translate(54.483188 0) scale(0.996264)"/>
    </g>
   </g>
   <g id="text_20">
    <!-- $V\beta$ -->
    <g style="fill: #262626" transform="translate(145.984447 43.516712) scale(0.16 -0.16)">
     <defs>
      <path id="CMMI12-56" d="M 3962 3640 
C 4179 3984 4378 4136 4704 4162 
C 4768 4168 4819 4168 4819 4282 
C 4819 4308 4806 4346 4749 4346 
C 4634 4346 4358 4346 4243 4346 
C 4058 4346 3866 4346 3686 4346 
C 3635 4346 3571 4346 3571 4226 
C 3571 4168 3629 4162 3654 4162 
C 3891 4143 3917 4029 3917 3952 
C 3917 3857 3827 3710 3821 3704 
L 1811 540 
L 1363 3969 
C 1363 4160 1696 4160 1766 4160 
C 1862 4160 1920 4160 1920 4282 
C 1920 4346 1850 4346 1830 4346 
C 1722 4346 1594 4346 1485 4346 
L 1126 4346 
C 659 4346 467 4346 461 4346 
C 422 4346 346 4346 346 4230 
C 346 4160 390 4160 493 4160 
C 819 4160 838 4102 858 3944 
L 1370 24 
C 1389 -109 1389 -128 1478 -128 
C 1555 -128 1587 -109 1651 -8 
L 3962 3640 
z
" transform="scale(0.015625)"/>
      <path id="CMMI12-c" d="M 3622 3701 
C 3622 4081 3296 4480 2714 4480 
C 1888 4480 1363 3477 1197 2816 
L 186 -1172 
C 173 -1223 211 -1236 243 -1236 
C 288 -1236 320 -1230 326 -1198 
L 774 586 
C 838 229 1190 -64 1568 -64 
C 2483 -64 3347 650 3347 1599 
C 3347 1841 3290 2083 3155 2287 
C 3078 2408 2982 2497 2880 2574 
C 3341 2815 3622 3200 3622 3701 
z
M 2509 2580 
C 2406 2542 2304 2529 2182 2529 
C 2093 2529 2010 2523 1894 2561 
C 1958 2606 2054 2618 2189 2618 
C 2304 2618 2419 2606 2509 2580 
z
M 3290 3758 
C 3290 3410 3117 2903 2701 2669 
C 2579 2718 2413 2752 2272 2752 
C 2138 2752 1754 2752 1754 2555 
C 1754 2389 2106 2389 2214 2389 
C 2381 2389 2528 2432 2682 2484 
C 2886 2318 2976 2101 2976 1783 
C 2976 1413 2874 1115 2752 841 
C 2541 369 2042 64 1600 64 
C 1133 64 890 432 890 864 
C 890 922 890 1005 915 1099 
L 1331 2771 
C 1542 3603 2080 4353 2701 4353 
C 3162 4353 3290 4036 3290 3758 
z
" transform="scale(0.015625)"/>
     </defs>
     <use xlink:href="#CMMI12-56" transform="scale(0.996264)"/>
     <use xlink:href="#CMMI12-c" transform="translate(78.547321 0) scale(0.996264)"/>
    </g>
   </g>
   <g id="legend_1">
    <g id="patch_5">
     <path d="M 155.780575 88.978501 
L 239.717368 88.978501 
Q 241.917368 88.978501 241.917368 86.778501 
L 241.917368 57.216712 
Q 241.917368 55.016712 239.717368 55.016712 
L 155.780575 55.016712 
Q 153.580575 55.016712 153.580575 57.216712 
L 153.580575 86.778501 
Q 153.580575 88.978501 155.780575 88.978501 
z
" style="fill: #ffffff; opacity: 0.8; stroke: #cccccc; stroke-linejoin: miter"/>
    </g>
    <g id="PathCollection_3">
     <g>
      <use xlink:href="#m47eee6eb1b" x="168.980575" y="64.229212" style="stroke: #000000"/>
     </g>
    </g>
    <g id="text_21">
     <!-- Minervina -->
     <g style="fill: #262626" transform="translate(188.780575 67.116712) scale(0.11 -0.11)">
      <defs>
       <path id="CMR17-4d" d="M 1338 4224 
C 1299 4320 1293 4320 1158 4320 
L 339 4320 
L 339 4160 
C 781 4160 851 4160 851 3875 
L 851 610 
C 851 451 851 153 339 153 
L 339 -13 
C 486 0 755 0 915 0 
C 1075 0 1344 0 1491 -13 
L 1491 153 
C 979 153 979 451 979 610 
L 979 4135 
L 986 4135 
L 2490 89 
C 2515 25 2528 -13 2579 -13 
C 2630 -13 2643 25 2669 89 
L 4186 4166 
L 4192 4166 
L 4192 438 
C 4192 153 4122 153 3680 153 
L 3680 -13 
C 3853 0 4198 0 4384 0 
C 4570 0 4922 0 5094 -13 
L 5094 153 
C 4653 153 4582 153 4582 438 
L 4582 3875 
C 4582 4160 4653 4160 5094 4160 
L 5094 4320 
L 4282 4320 
C 4147 4320 4141 4314 4102 4218 
L 2720 502 
L 1338 4224 
z
" transform="scale(0.015625)"/>
       <path id="CMR17-6e" d="M 2656 1933 
C 2656 2259 2592 2790 1837 2790 
C 1331 2790 1069 2400 973 2144 
L 966 2144 
L 966 2790 
L 211 2720 
L 211 2554 
C 589 2554 646 2515 646 2208 
L 646 428 
C 646 184 621 153 211 153 
L 211 -13 
C 365 0 646 0 813 0 
C 979 0 1267 0 1421 -13 
L 1421 153 
C 1011 153 986 178 986 428 
L 986 1658 
C 986 2247 1344 2688 1792 2688 
C 2266 2688 2317 2266 2317 1958 
L 2317 428 
C 2317 184 2291 153 1882 153 
L 1882 -13 
C 2035 0 2317 0 2483 0 
C 2650 0 2938 0 3091 -13 
L 3091 153 
C 2682 153 2656 178 2656 428 
L 2656 1933 
z
" transform="scale(0.015625)"/>
       <path id="CMR17-65" d="M 2438 1472 
C 2464 1498 2464 1511 2464 1576 
C 2464 2238 2118 2816 1389 2816 
C 710 2816 173 2169 173 1383 
C 173 551 781 -64 1459 -64 
C 2176 -64 2458 607 2458 740 
C 2458 784 2419 784 2406 784 
C 2362 784 2355 771 2330 696 
C 2189 265 1837 51 1504 51 
C 1229 51 954 203 781 480 
C 582 803 582 1176 582 1472 
L 2438 1472 
z
M 589 1568 
C 634 2505 1126 2714 1382 2714 
C 1818 2714 2112 2297 2118 1568 
L 589 1568 
z
" transform="scale(0.015625)"/>
       <path id="CMR17-72" d="M 960 1497 
C 960 2112 1222 2688 1702 2688 
C 1747 2688 1792 2682 1837 2662 
C 1837 2662 1696 2617 1696 2452 
C 1696 2298 1818 2234 1914 2234 
C 1990 2234 2131 2279 2131 2458 
C 2131 2663 1926 2790 1709 2790 
C 1222 2790 1011 2317 947 2093 
L 941 2093 
L 941 2790 
L 198 2720 
L 198 2554 
C 576 2554 634 2515 634 2208 
L 634 428 
C 634 184 608 153 198 153 
L 198 -13 
C 352 0 646 0 813 0 
C 998 0 1325 0 1498 -13 
L 1498 153 
C 1037 153 960 153 960 440 
L 960 1497 
z
" transform="scale(0.015625)"/>
       <path id="CMR17-76" d="M 2502 2163 
C 2560 2304 2662 2560 3034 2560 
L 3034 2726 
C 2912 2726 2752 2726 2630 2726 
C 2496 2726 2285 2726 2157 2732 
L 2157 2566 
C 2317 2553 2406 2477 2406 2311 
C 2406 2253 2406 2240 2368 2151 
L 1664 377 
L 902 2286 
C 864 2369 864 2381 864 2407 
C 864 2560 1075 2560 1171 2560 
L 1171 2732 
C 1018 2726 736 2726 576 2726 
C 403 2726 205 2726 64 2732 
L 64 2560 
C 307 2560 442 2560 518 2362 
L 1446 44 
C 1485 -51 1491 -64 1549 -64 
C 1606 -64 1613 -51 1651 44 
L 2502 2163 
z
" transform="scale(0.015625)"/>
       <path id="CMR17-61" d="M 2304 1653 
C 2304 2072 2304 2294 2035 2543 
C 1798 2752 1523 2816 1306 2816 
C 800 2816 435 2407 435 1971 
C 435 1728 627 1728 666 1728 
C 749 1728 896 1778 896 1954 
C 896 2112 774 2181 666 2181 
C 640 2181 608 2174 589 2168 
C 723 2592 1069 2714 1293 2714 
C 1613 2714 1965 2429 1965 1885 
L 1965 1600 
C 1587 1600 1133 1549 774 1357 
C 371 1133 256 813 256 570 
C 256 77 832 -64 1171 -64 
C 1523 -64 1850 139 1990 511 
C 2003 233 2182 -18 2464 -18 
C 2598 -18 2938 70 2938 567 
L 2938 920 
L 2822 920 
L 2822 562 
C 2822 178 2650 128 2566 128 
C 2304 128 2304 458 2304 738 
L 2304 1653 
z
M 1965 870 
C 1965 317 1568 38 1216 38 
C 896 38 646 275 646 570 
C 646 761 730 1100 1101 1305 
C 1408 1478 1760 1504 1965 1504 
L 1965 870 
z
" transform="scale(0.015625)"/>
      </defs>
      <use xlink:href="#CMR17-4d" transform="scale(0.996264)"/>
      <use xlink:href="#CMR17-69" transform="translate(84.686941 0) scale(0.996264)"/>
      <use xlink:href="#CMR17-6e" transform="translate(109.557999 0) scale(0.996264)"/>
      <use xlink:href="#CMR17-65" transform="translate(160.453369 0) scale(0.996264)"/>
      <use xlink:href="#CMR17-72" transform="translate(200.939029 0) scale(0.996264)"/>
      <use xlink:href="#CMR17-76" transform="translate(236.219797 0) scale(0.996264)"/>
      <use xlink:href="#CMR17-69" transform="translate(284.512713 0) scale(0.996264)"/>
      <use xlink:href="#CMR17-6e" transform="translate(309.383771 0) scale(0.996264)"/>
      <use xlink:href="#CMR17-61" transform="translate(360.279141 0) scale(0.996264)"/>
     </g>
    </g>
    <g id="PathCollection_4">
     <g>
      <use xlink:href="#mfbad5342ac" x="168.980575" y="79.560107" style="stroke: #000000"/>
     </g>
    </g>
    <g id="text_22">
     <!-- Dash -->
     <g style="fill: #262626" transform="translate(188.780575 82.447607) scale(0.11 -0.11)">
      <defs>
       <path id="CMR17-44" d="M 333 4352 
L 333 4186 
C 774 4186 845 4186 845 3900 
L 845 452 
C 845 166 774 166 333 166 
L 333 0 
L 2368 0 
C 3398 0 4224 943 4224 2141 
C 4224 3346 3411 4352 2368 4352 
L 333 4352 
z
M 1523 166 
C 1267 166 1254 197 1254 414 
L 1254 3938 
C 1254 4155 1267 4186 1523 4186 
L 2240 4186 
C 2771 4186 3750 3874 3750 2141 
C 3750 1242 3488 879 3366 707 
C 3213 510 2848 166 2240 166 
L 1523 166 
z
" transform="scale(0.015625)"/>
       <path id="CMR17-68" d="M 2656 1933 
C 2656 2259 2592 2790 1837 2790 
C 1312 2790 1056 2368 979 2157 
L 973 2157 
L 973 4396 
L 211 4326 
L 211 4160 
C 589 4160 646 4122 646 3817 
L 646 426 
C 646 184 621 153 211 153 
L 211 -13 
C 365 0 646 0 813 0 
C 979 0 1267 0 1421 -13 
L 1421 153 
C 1011 153 986 178 986 428 
L 986 1658 
C 986 2247 1344 2688 1792 2688 
C 2266 2688 2317 2266 2317 1958 
L 2317 428 
C 2317 184 2291 153 1882 153 
L 1882 -13 
C 2035 0 2317 0 2483 0 
C 2650 0 2938 0 3091 -13 
L 3091 153 
C 2682 153 2656 178 2656 428 
L 2656 1933 
z
" transform="scale(0.015625)"/>
      </defs>
      <use xlink:href="#CMR17-44" transform="scale(0.996264)"/>
      <use xlink:href="#CMR17-61" transform="translate(70.393556 0) scale(0.996264)"/>
      <use xlink:href="#CMR17-73" transform="translate(116.084033 0) scale(0.996264)"/>
      <use xlink:href="#CMR17-68" transform="translate(151.885371 0) scale(0.996264)"/>
     </g>
    </g>
   </g>
  </g>
  <g id="axes_2">
   <g id="patch_6">
    <path d="M 271.8578 323.24423 
L 453.344752 323.24423 
L 453.344752 49.516712 
L 271.8578 49.516712 
z
" style="fill: #ffffff"/>
   </g>
   <g id="matplotlib.axis_3">
    <g id="xtick_13">
     <g id="line2d_31">
      <g>
       <use xlink:href="#maee77b39cd" x="279.419757" y="323.24423" style="fill: #262626; stroke: #262626; stroke-width: 1.25"/>
      </g>
     </g>
     <g id="text_23">
      <!-- $\mathdefault{1}$ -->
      <g style="fill: #262626" transform="translate(276.680023 340.354577) scale(0.11 -0.11)">
       <use xlink:href="#CMR17-31" transform="scale(0.996264)"/>
      </g>
     </g>
    </g>
    <g id="xtick_14">
     <g id="line2d_32">
      <g>
       <use xlink:href="#maee77b39cd" x="294.543669" y="323.24423" style="fill: #262626; stroke: #262626; stroke-width: 1.25"/>
      </g>
     </g>
     <g id="text_24">
      <!-- $\mathdefault{2}$ -->
      <g style="fill: #262626" transform="translate(291.803936 340.354577) scale(0.11 -0.11)">
       <use xlink:href="#CMR17-32" transform="scale(0.996264)"/>
      </g>
     </g>
    </g>
    <g id="xtick_15">
     <g id="line2d_33">
      <g>
       <use xlink:href="#maee77b39cd" x="309.667582" y="323.24423" style="fill: #262626; stroke: #262626; stroke-width: 1.25"/>
      </g>
     </g>
     <g id="text_25">
      <!-- $\mathdefault{3}$ -->
      <g style="fill: #262626" transform="translate(306.927848 340.354577) scale(0.11 -0.11)">
       <use xlink:href="#CMR17-33" transform="scale(0.996264)"/>
      </g>
     </g>
    </g>
    <g id="xtick_16">
     <g id="line2d_34">
      <g>
       <use xlink:href="#maee77b39cd" x="324.791495" y="323.24423" style="fill: #262626; stroke: #262626; stroke-width: 1.25"/>
      </g>
     </g>
     <g id="text_26">
      <!-- $\mathdefault{4}$ -->
      <g style="fill: #262626" transform="translate(322.051761 340.354577) scale(0.11 -0.11)">
       <use xlink:href="#CMR17-34" transform="scale(0.996264)"/>
      </g>
     </g>
    </g>
    <g id="xtick_17">
     <g id="line2d_35">
      <g>
       <use xlink:href="#maee77b39cd" x="339.915407" y="323.24423" style="fill: #262626; stroke: #262626; stroke-width: 1.25"/>
      </g>
     </g>
     <g id="text_27">
      <!-- $\mathdefault{5}$ -->
      <g style="fill: #262626" transform="translate(337.175674 340.354577) scale(0.11 -0.11)">
       <use xlink:href="#CMR17-35" transform="scale(0.996264)"/>
      </g>
     </g>
    </g>
    <g id="xtick_18">
     <g id="line2d_36">
      <g>
       <use xlink:href="#maee77b39cd" x="355.03932" y="323.24423" style="fill: #262626; stroke: #262626; stroke-width: 1.25"/>
      </g>
     </g>
     <g id="text_28">
      <!-- $\mathdefault{6}$ -->
      <g style="fill: #262626" transform="translate(352.299586 340.354577) scale(0.11 -0.11)">
       <use xlink:href="#CMR17-36" transform="scale(0.996264)"/>
      </g>
     </g>
    </g>
    <g id="xtick_19">
     <g id="line2d_37">
      <g>
       <use xlink:href="#maee77b39cd" x="370.163233" y="323.24423" style="fill: #262626; stroke: #262626; stroke-width: 1.25"/>
      </g>
     </g>
     <g id="text_29">
      <!-- $\mathdefault{7}$ -->
      <g style="fill: #262626" transform="translate(367.423499 340.354577) scale(0.11 -0.11)">
       <use xlink:href="#CMR17-37" transform="scale(0.996264)"/>
      </g>
     </g>
    </g>
    <g id="xtick_20">
     <g id="line2d_38">
      <g>
       <use xlink:href="#maee77b39cd" x="385.287145" y="323.24423" style="fill: #262626; stroke: #262626; stroke-width: 1.25"/>
      </g>
     </g>
     <g id="text_30">
      <!-- $\mathdefault{8}$ -->
      <g style="fill: #262626" transform="translate(382.547412 340.354577) scale(0.11 -0.11)">
       <use xlink:href="#CMR17-38" transform="scale(0.996264)"/>
      </g>
     </g>
    </g>
    <g id="xtick_21">
     <g id="line2d_39">
      <g>
       <use xlink:href="#maee77b39cd" x="400.411058" y="323.24423" style="fill: #262626; stroke: #262626; stroke-width: 1.25"/>
      </g>
     </g>
     <g id="text_31">
      <!-- $\mathdefault{9}$ -->
      <g style="fill: #262626" transform="translate(397.671324 340.354577) scale(0.11 -0.11)">
       <use xlink:href="#CMR17-39" transform="scale(0.996264)"/>
      </g>
     </g>
    </g>
    <g id="xtick_22">
     <g id="line2d_40">
      <g>
       <use xlink:href="#maee77b39cd" x="415.53497" y="323.24423" style="fill: #262626; stroke: #262626; stroke-width: 1.25"/>
      </g>
     </g>
     <g id="text_32">
      <!-- $\mathdefault{10}$ -->
      <g style="fill: #262626" transform="translate(410.055503 340.354577) scale(0.11 -0.11)">
       <use xlink:href="#CMR17-31" transform="scale(0.996264)"/>
       <use xlink:href="#CMR17-30" transform="translate(45.690477 0) scale(0.996264)"/>
      </g>
     </g>
    </g>
    <g id="xtick_23">
     <g id="line2d_41">
      <g>
       <use xlink:href="#maee77b39cd" x="430.658883" y="323.24423" style="fill: #262626; stroke: #262626; stroke-width: 1.25"/>
      </g>
     </g>
     <g id="text_33">
      <!-- $\mathdefault{11}$ -->
      <g style="fill: #262626" transform="translate(425.179416 340.354577) scale(0.11 -0.11)">
       <use xlink:href="#CMR17-31" transform="scale(0.996264)"/>
       <use xlink:href="#CMR17-31" transform="translate(45.690477 0) scale(0.996264)"/>
      </g>
     </g>
    </g>
    <g id="xtick_24">
     <g id="line2d_42">
      <g>
       <use xlink:href="#maee77b39cd" x="445.782796" y="323.24423" style="fill: #262626; stroke: #262626; stroke-width: 1.25"/>
      </g>
     </g>
     <g id="text_34">
      <!-- $\mathdefault{12}$ -->
      <g style="fill: #262626" transform="translate(440.303328 340.354577) scale(0.11 -0.11)">
       <use xlink:href="#CMR17-31" transform="scale(0.996264)"/>
       <use xlink:href="#CMR17-32" transform="translate(45.690477 0) scale(0.996264)"/>
      </g>
     </g>
    </g>
   </g>
   <g id="matplotlib.axis_4">
    <g id="ytick_6">
     <g id="line2d_43">
      <g>
       <use xlink:href="#mc59773113b" x="271.8578" y="314.502336" style="fill: #262626; stroke: #262626; stroke-width: 1.25"/>
      </g>
     </g>
    </g>
    <g id="ytick_7">
     <g id="line2d_44">
      <g>
       <use xlink:href="#mc59773113b" x="271.8578" y="257.683865" style="fill: #262626; stroke: #262626; stroke-width: 1.25"/>
      </g>
     </g>
    </g>
    <g id="ytick_8">
     <g id="line2d_45">
      <g>
       <use xlink:href="#mc59773113b" x="271.8578" y="200.865393" style="fill: #262626; stroke: #262626; stroke-width: 1.25"/>
      </g>
     </g>
    </g>
    <g id="ytick_9">
     <g id="line2d_46">
      <g>
       <use xlink:href="#mc59773113b" x="271.8578" y="144.046922" style="fill: #262626; stroke: #262626; stroke-width: 1.25"/>
      </g>
     </g>
    </g>
    <g id="ytick_10">
     <g id="line2d_47">
      <g>
       <use xlink:href="#mc59773113b" x="271.8578" y="87.228451" style="fill: #262626; stroke: #262626; stroke-width: 1.25"/>
      </g>
     </g>
    </g>
   </g>
   <g id="line2d_48">
    <path d="M 271.8578 136.76189 
L 453.344752 136.76189 
" clip-path="url(#p0b8aafc316)" style="fill: none; stroke-dasharray: 5.55,2.4; stroke-dashoffset: 0; stroke: #dd8452; stroke-opacity: 0.4; stroke-width: 1.5"/>
   </g>
   <g id="LineCollection_13">
    <path d="M 279.419757 141.765585 
L 279.419757 126.629219 
" clip-path="url(#p0b8aafc316)" style="fill: none; stroke: #dd8452; stroke-width: 1.5"/>
   </g>
   <g id="LineCollection_14">
    <path d="M 294.543669 142.415682 
L 294.543669 123.130892 
" clip-path="url(#p0b8aafc316)" style="fill: none; stroke: #dd8452; stroke-width: 1.5"/>
   </g>
   <g id="LineCollection_15">
    <path d="M 309.667582 143.616054 
L 309.667582 118.908276 
" clip-path="url(#p0b8aafc316)" style="fill: none; stroke: #dd8452; stroke-width: 1.5"/>
   </g>
   <g id="LineCollection_16">
    <path d="M 324.791495 184.837717 
L 324.791495 173.461793 
" clip-path="url(#p0b8aafc316)" style="fill: none; stroke: #dd8452; stroke-width: 1.5"/>
   </g>
   <g id="LineCollection_17">
    <path d="M 339.915407 155.668344 
L 339.915407 142.868526 
" clip-path="url(#p0b8aafc316)" style="fill: none; stroke: #dd8452; stroke-width: 1.5"/>
   </g>
   <g id="LineCollection_18">
    <path d="M 355.03932 192.933856 
L 355.03932 181.703733 
" clip-path="url(#p0b8aafc316)" style="fill: none; stroke: #dd8452; stroke-width: 1.5"/>
   </g>
   <g id="LineCollection_19">
    <path d="M 370.163233 235.331919 
L 370.163233 202.540853 
" clip-path="url(#p0b8aafc316)" style="fill: none; stroke: #dd8452; stroke-width: 1.5"/>
   </g>
   <g id="LineCollection_20">
    <path d="M 385.287145 187.145614 
L 385.287145 177.657027 
" clip-path="url(#p0b8aafc316)" style="fill: none; stroke: #dd8452; stroke-width: 1.5"/>
   </g>
   <g id="LineCollection_21">
    <path d="M 400.411058 202.112888 
L 400.411058 198.154375 
" clip-path="url(#p0b8aafc316)" style="fill: none; stroke: #dd8452; stroke-width: 1.5"/>
   </g>
   <g id="LineCollection_22">
    <path d="M 415.53497 144.657912 
L 415.53497 129.265361 
" clip-path="url(#p0b8aafc316)" style="fill: none; stroke: #dd8452; stroke-width: 1.5"/>
   </g>
   <g id="LineCollection_23">
    <path d="M 430.658883 130.671672 
L 430.658883 120.71367 
" clip-path="url(#p0b8aafc316)" style="fill: none; stroke: #dd8452; stroke-width: 1.5"/>
   </g>
   <g id="LineCollection_24">
    <path d="M 445.782796 115.688848 
L 445.782796 108.3186 
" clip-path="url(#p0b8aafc316)" style="fill: none; stroke: #dd8452; stroke-width: 1.5"/>
   </g>
   <g id="line2d_49">
    <defs>
     <path id="m703820ded1" d="M 0 3 
C 0.795609 3 1.55874 2.683901 2.12132 2.12132 
C 2.683901 1.55874 3 0.795609 3 0 
C 3 -0.795609 2.683901 -1.55874 2.12132 -2.12132 
C 1.55874 -2.683901 0.795609 -3 0 -3 
C -0.795609 -3 -1.55874 -2.683901 -2.12132 -2.12132 
C -2.683901 -1.55874 -3 -0.795609 -3 0 
C -3 0.795609 -2.683901 1.55874 -2.12132 2.12132 
C -1.55874 2.683901 -0.795609 3 0 3 
z
" style="stroke: #dd8452"/>
    </defs>
    <g clip-path="url(#p0b8aafc316)">
     <use xlink:href="#m703820ded1" x="279.419757" y="134.197402" style="fill: #dd8452; stroke: #dd8452"/>
    </g>
   </g>
   <g id="line2d_50">
    <g clip-path="url(#p0b8aafc316)">
     <use xlink:href="#m703820ded1" x="294.543669" y="132.773287" style="fill: #dd8452; stroke: #dd8452"/>
    </g>
   </g>
   <g id="line2d_51">
    <g clip-path="url(#p0b8aafc316)">
     <use xlink:href="#m703820ded1" x="309.667582" y="131.262165" style="fill: #dd8452; stroke: #dd8452"/>
    </g>
   </g>
   <g id="line2d_52">
    <g clip-path="url(#p0b8aafc316)">
     <use xlink:href="#m703820ded1" x="324.791495" y="179.149755" style="fill: #dd8452; stroke: #dd8452"/>
    </g>
   </g>
   <g id="line2d_53">
    <g clip-path="url(#p0b8aafc316)">
     <use xlink:href="#m703820ded1" x="339.915407" y="149.268435" style="fill: #dd8452; stroke: #dd8452"/>
    </g>
   </g>
   <g id="line2d_54">
    <g clip-path="url(#p0b8aafc316)">
     <use xlink:href="#m703820ded1" x="355.03932" y="187.318795" style="fill: #dd8452; stroke: #dd8452"/>
    </g>
   </g>
   <g id="line2d_55">
    <g clip-path="url(#p0b8aafc316)">
     <use xlink:href="#m703820ded1" x="370.163233" y="218.936386" style="fill: #dd8452; stroke: #dd8452"/>
    </g>
   </g>
   <g id="line2d_56">
    <g clip-path="url(#p0b8aafc316)">
     <use xlink:href="#m703820ded1" x="385.287145" y="182.40132" style="fill: #dd8452; stroke: #dd8452"/>
    </g>
   </g>
   <g id="line2d_57">
    <g clip-path="url(#p0b8aafc316)">
     <use xlink:href="#m703820ded1" x="400.411058" y="200.133631" style="fill: #dd8452; stroke: #dd8452"/>
    </g>
   </g>
   <g id="line2d_58">
    <defs>
     <path id="m2097abb82b" d="M 0 -3 
L -3 3 
L 3 3 
z
" style="stroke: #dd8452; stroke-linejoin: miter"/>
    </defs>
    <g clip-path="url(#p0b8aafc316)">
     <use xlink:href="#m2097abb82b" x="415.53497" y="136.961636" style="fill: #dd8452; stroke: #dd8452; stroke-linejoin: miter"/>
    </g>
   </g>
   <g id="line2d_59">
    <g clip-path="url(#p0b8aafc316)">
     <use xlink:href="#m2097abb82b" x="430.658883" y="125.692671" style="fill: #dd8452; stroke: #dd8452; stroke-linejoin: miter"/>
    </g>
   </g>
   <g id="line2d_60">
    <g clip-path="url(#p0b8aafc316)">
     <use xlink:href="#m2097abb82b" x="445.782796" y="112.003724" style="fill: #dd8452; stroke: #dd8452; stroke-linejoin: miter"/>
    </g>
   </g>
   <g id="patch_7">
    <path d="M 271.8578 323.24423 
L 271.8578 49.516712 
" style="fill: none; stroke: #262626; stroke-width: 1.25; stroke-linejoin: miter; stroke-linecap: square"/>
   </g>
   <g id="patch_8">
    <path d="M 271.8578 323.24423 
L 453.344752 323.24423 
" style="fill: none; stroke: #262626; stroke-width: 1.25; stroke-linejoin: miter; stroke-linecap: square"/>
   </g>
   <g id="text_35">
    <!-- \bf b) -->
    <g style="fill: #262626" transform="translate(253.709105 22.14396) scale(0.2 -0.2)">
     <defs>
      <path id="CMBX12-62" d="M 1331 4416 
L 224 4416 
L 224 4117 
C 621 4117 666 4117 666 3867 
L 666 0 
L 934 0 
C 1043 123 1152 247 1254 376 
C 1581 38 1933 -32 2189 -32 
C 3072 -32 3750 504 3750 1431 
C 3750 2305 3149 2880 2272 2880 
C 1894 2880 1594 2759 1331 2555 
L 1331 4416 
z
M 1363 2248 
C 1587 2555 1920 2670 2189 2670 
C 2982 2670 2982 1859 2982 1437 
C 2982 1149 2982 785 2829 548 
C 2630 241 2330 178 2125 178 
C 1690 178 1453 484 1363 625 
L 1363 2248 
z
" transform="scale(0.015625)"/>
     </defs>
     <use xlink:href="#CMBX12-62" transform="scale(0.996264)"/>
     <use xlink:href="#CMBX12-29" transform="translate(62.266501 0) scale(0.996264)"/>
    </g>
   </g>
   <g id="text_36">
    <!-- $CDR3\beta$ -->
    <g style="fill: #262626" transform="translate(335.435881 43.516712) scale(0.16 -0.16)">
     <defs>
      <path id="CMMI12-43" d="M 4781 4423 
C 4781 4480 4736 4480 4723 4480 
C 4710 4480 4685 4480 4634 4416 
L 4192 3882 
C 3968 4264 3616 4480 3136 4480 
C 1754 4480 320 3088 320 1595 
C 320 533 1069 -128 2003 -128 
C 2515 -128 2963 88 3334 400 
C 3891 863 4058 1481 4058 1531 
C 4058 1588 4006 1588 3987 1588 
C 3930 1588 3923 1550 3910 1524 
C 3616 534 2752 57 2112 57 
C 1434 57 845 489 845 1391 
C 845 1595 909 2700 1632 3532 
C 1984 3939 2586 4295 3194 4295 
C 3898 4295 4211 3717 4211 3068 
C 4211 2903 4192 2764 4192 2738 
C 4192 2681 4256 2681 4275 2681 
C 4346 2681 4352 2687 4378 2801 
L 4781 4423 
z
" transform="scale(0.015625)"/>
      <path id="CMMI12-44" d="M 1005 472 
C 947 249 934 185 486 185 
C 365 185 301 185 301 70 
C 301 0 339 0 467 0 
L 2496 0 
C 3789 0 5050 1332 5050 2753 
C 5050 3671 4499 4352 3584 4352 
L 1530 4352 
C 1408 4352 1350 4352 1350 4231 
C 1350 4167 1408 4167 1504 4167 
C 1894 4167 1894 4116 1894 4046 
C 1894 4034 1894 3995 1869 3899 
L 1005 472 
z
M 2355 3931 
C 2413 4167 2438 4167 2688 4167 
L 3392 4167 
C 3994 4167 4544 3842 4544 2963 
C 4544 2644 4416 1536 3795 835 
C 3616 625 3130 185 2394 185 
L 1664 185 
C 1574 185 1562 185 1523 192 
C 1453 198 1446 211 1446 262 
C 1446 307 1459 345 1472 402 
L 2355 3931 
z
" transform="scale(0.015625)"/>
      <path id="CMMI12-52" d="M 2355 3924 
C 2413 4160 2438 4160 2688 4160 
L 3149 4160 
C 3699 4160 4109 3995 4109 3499 
C 4109 3175 3942 2240 2656 2240 
L 1933 2240 
L 2355 3924 
z
M 3245 2169 
C 4038 2341 4659 2851 4659 3398 
C 4659 3894 4154 4352 3264 4352 
L 1530 4352 
C 1402 4352 1344 4352 1344 4226 
C 1344 4160 1389 4160 1510 4160 
C 1894 4160 1894 4112 1894 4045 
C 1894 4033 1894 3994 1869 3899 
L 1005 479 
C 947 256 934 192 493 192 
C 346 192 301 192 301 71 
C 301 7 371 7 390 7 
C 506 7 640 7 762 7 
L 1517 7 
C 1632 7 1766 7 1882 7 
C 1933 7 2003 7 2003 128 
C 2003 192 1946 192 1850 192 
C 1459 192 1459 243 1459 306 
C 1459 313 1459 357 1472 407 
L 1901 2112 
L 2669 2112 
C 3277 2112 3392 1731 3392 1522 
C 3392 1427 3328 1179 3283 1014 
C 3213 723 3194 652 3194 532 
C 3194 82 3565 -128 3994 -128 
C 4512 -128 4736 501 4736 591 
C 4736 635 4704 654 4666 654 
C 4614 654 4602 616 4589 565 
C 4435 114 4173 0 4013 0 
C 3853 0 3750 70 3750 356 
C 3750 509 3827 1088 3834 1120 
C 3866 1355 3866 1380 3866 1432 
C 3866 1896 3488 2093 3245 2169 
z
" transform="scale(0.015625)"/>
     </defs>
     <use xlink:href="#CMMI12-43" transform="scale(0.996264)"/>
     <use xlink:href="#CMMI12-44" transform="translate(76.946847 0) scale(0.996264)"/>
     <use xlink:href="#CMMI12-52" transform="translate(160.650794 0) scale(0.996264)"/>
     <use xlink:href="#CMR17-33" transform="translate(235.721756 0) scale(0.996264)"/>
     <use xlink:href="#CMMI12-c" transform="translate(281.412233 0) scale(0.996264)"/>
    </g>
   </g>
  </g>
  <g id="axes_3">
   <g id="patch_9">
    <path d="M 477.785184 323.24423 
L 659.272136 323.24423 
L 659.272136 49.516712 
L 477.785184 49.516712 
z
" style="fill: #ffffff"/>
   </g>
   <g id="matplotlib.axis_5">
    <g id="xtick_25">
     <g id="line2d_61">
      <g>
       <use xlink:href="#maee77b39cd" x="485.347141" y="323.24423" style="fill: #262626; stroke: #262626; stroke-width: 1.25"/>
      </g>
     </g>
     <g id="text_37">
      <!-- $\mathdefault{1}$ -->
      <g style="fill: #262626" transform="translate(482.607407 340.354577) scale(0.11 -0.11)">
       <use xlink:href="#CMR17-31" transform="scale(0.996264)"/>
      </g>
     </g>
    </g>
    <g id="xtick_26">
     <g id="line2d_62">
      <g>
       <use xlink:href="#maee77b39cd" x="500.471053" y="323.24423" style="fill: #262626; stroke: #262626; stroke-width: 1.25"/>
      </g>
     </g>
     <g id="text_38">
      <!-- $\mathdefault{2}$ -->
      <g style="fill: #262626" transform="translate(497.73132 340.354577) scale(0.11 -0.11)">
       <use xlink:href="#CMR17-32" transform="scale(0.996264)"/>
      </g>
     </g>
    </g>
    <g id="xtick_27">
     <g id="line2d_63">
      <g>
       <use xlink:href="#maee77b39cd" x="515.594966" y="323.24423" style="fill: #262626; stroke: #262626; stroke-width: 1.25"/>
      </g>
     </g>
     <g id="text_39">
      <!-- $\mathdefault{3}$ -->
      <g style="fill: #262626" transform="translate(512.855232 340.354577) scale(0.11 -0.11)">
       <use xlink:href="#CMR17-33" transform="scale(0.996264)"/>
      </g>
     </g>
    </g>
    <g id="xtick_28">
     <g id="line2d_64">
      <g>
       <use xlink:href="#maee77b39cd" x="530.718879" y="323.24423" style="fill: #262626; stroke: #262626; stroke-width: 1.25"/>
      </g>
     </g>
     <g id="text_40">
      <!-- $\mathdefault{4}$ -->
      <g style="fill: #262626" transform="translate(527.979145 340.354577) scale(0.11 -0.11)">
       <use xlink:href="#CMR17-34" transform="scale(0.996264)"/>
      </g>
     </g>
    </g>
    <g id="xtick_29">
     <g id="line2d_65">
      <g>
       <use xlink:href="#maee77b39cd" x="545.842791" y="323.24423" style="fill: #262626; stroke: #262626; stroke-width: 1.25"/>
      </g>
     </g>
     <g id="text_41">
      <!-- $\mathdefault{5}$ -->
      <g style="fill: #262626" transform="translate(543.103058 340.354577) scale(0.11 -0.11)">
       <use xlink:href="#CMR17-35" transform="scale(0.996264)"/>
      </g>
     </g>
    </g>
    <g id="xtick_30">
     <g id="line2d_66">
      <g>
       <use xlink:href="#maee77b39cd" x="560.966704" y="323.24423" style="fill: #262626; stroke: #262626; stroke-width: 1.25"/>
      </g>
     </g>
     <g id="text_42">
      <!-- $\mathdefault{6}$ -->
      <g style="fill: #262626" transform="translate(558.22697 340.354577) scale(0.11 -0.11)">
       <use xlink:href="#CMR17-36" transform="scale(0.996264)"/>
      </g>
     </g>
    </g>
    <g id="xtick_31">
     <g id="line2d_67">
      <g>
       <use xlink:href="#maee77b39cd" x="576.090617" y="323.24423" style="fill: #262626; stroke: #262626; stroke-width: 1.25"/>
      </g>
     </g>
     <g id="text_43">
      <!-- $\mathdefault{7}$ -->
      <g style="fill: #262626" transform="translate(573.350883 340.354577) scale(0.11 -0.11)">
       <use xlink:href="#CMR17-37" transform="scale(0.996264)"/>
      </g>
     </g>
    </g>
    <g id="xtick_32">
     <g id="line2d_68">
      <g>
       <use xlink:href="#maee77b39cd" x="591.214529" y="323.24423" style="fill: #262626; stroke: #262626; stroke-width: 1.25"/>
      </g>
     </g>
     <g id="text_44">
      <!-- $\mathdefault{8}$ -->
      <g style="fill: #262626" transform="translate(588.474796 340.354577) scale(0.11 -0.11)">
       <use xlink:href="#CMR17-38" transform="scale(0.996264)"/>
      </g>
     </g>
    </g>
    <g id="xtick_33">
     <g id="line2d_69">
      <g>
       <use xlink:href="#maee77b39cd" x="606.338442" y="323.24423" style="fill: #262626; stroke: #262626; stroke-width: 1.25"/>
      </g>
     </g>
     <g id="text_45">
      <!-- $\mathdefault{9}$ -->
      <g style="fill: #262626" transform="translate(603.598708 340.354577) scale(0.11 -0.11)">
       <use xlink:href="#CMR17-39" transform="scale(0.996264)"/>
      </g>
     </g>
    </g>
    <g id="xtick_34">
     <g id="line2d_70">
      <g>
       <use xlink:href="#maee77b39cd" x="621.462354" y="323.24423" style="fill: #262626; stroke: #262626; stroke-width: 1.25"/>
      </g>
     </g>
     <g id="text_46">
      <!-- $\mathdefault{10}$ -->
      <g style="fill: #262626" transform="translate(615.982887 340.354577) scale(0.11 -0.11)">
       <use xlink:href="#CMR17-31" transform="scale(0.996264)"/>
       <use xlink:href="#CMR17-30" transform="translate(45.690477 0) scale(0.996264)"/>
      </g>
     </g>
    </g>
    <g id="xtick_35">
     <g id="line2d_71">
      <g>
       <use xlink:href="#maee77b39cd" x="636.586267" y="323.24423" style="fill: #262626; stroke: #262626; stroke-width: 1.25"/>
      </g>
     </g>
     <g id="text_47">
      <!-- $\mathdefault{11}$ -->
      <g style="fill: #262626" transform="translate(631.1068 340.354577) scale(0.11 -0.11)">
       <use xlink:href="#CMR17-31" transform="scale(0.996264)"/>
       <use xlink:href="#CMR17-31" transform="translate(45.690477 0) scale(0.996264)"/>
      </g>
     </g>
    </g>
    <g id="xtick_36">
     <g id="line2d_72">
      <g>
       <use xlink:href="#maee77b39cd" x="651.71018" y="323.24423" style="fill: #262626; stroke: #262626; stroke-width: 1.25"/>
      </g>
     </g>
     <g id="text_48">
      <!-- $\mathdefault{12}$ -->
      <g style="fill: #262626" transform="translate(646.230712 340.354577) scale(0.11 -0.11)">
       <use xlink:href="#CMR17-31" transform="scale(0.996264)"/>
       <use xlink:href="#CMR17-32" transform="translate(45.690477 0) scale(0.996264)"/>
      </g>
     </g>
    </g>
   </g>
   <g id="matplotlib.axis_6">
    <g id="ytick_11">
     <g id="line2d_73">
      <g>
       <use xlink:href="#mc59773113b" x="477.785184" y="314.502336" style="fill: #262626; stroke: #262626; stroke-width: 1.25"/>
      </g>
     </g>
    </g>
    <g id="ytick_12">
     <g id="line2d_74">
      <g>
       <use xlink:href="#mc59773113b" x="477.785184" y="257.683865" style="fill: #262626; stroke: #262626; stroke-width: 1.25"/>
      </g>
     </g>
    </g>
    <g id="ytick_13">
     <g id="line2d_75">
      <g>
       <use xlink:href="#mc59773113b" x="477.785184" y="200.865393" style="fill: #262626; stroke: #262626; stroke-width: 1.25"/>
      </g>
     </g>
    </g>
    <g id="ytick_14">
     <g id="line2d_76">
      <g>
       <use xlink:href="#mc59773113b" x="477.785184" y="144.046922" style="fill: #262626; stroke: #262626; stroke-width: 1.25"/>
      </g>
     </g>
    </g>
    <g id="ytick_15">
     <g id="line2d_77">
      <g>
       <use xlink:href="#mc59773113b" x="477.785184" y="87.228451" style="fill: #262626; stroke: #262626; stroke-width: 1.25"/>
      </g>
     </g>
    </g>
   </g>
   <g id="line2d_78">
    <path d="M 477.785184 97.958739 
L 659.272136 97.958739 
" clip-path="url(#p57f77413d7)" style="fill: none; stroke-dasharray: 5.55,2.4; stroke-dashoffset: 0; stroke: #55a868; stroke-opacity: 0.4; stroke-width: 1.5"/>
   </g>
   <g id="LineCollection_25">
    <path d="M 485.347141 98.465992 
L 485.347141 83.322143 
" clip-path="url(#p57f77413d7)" style="fill: none; stroke: #55a868; stroke-width: 1.5"/>
   </g>
   <g id="LineCollection_26">
    <path d="M 500.471053 99.115284 
L 500.471053 79.82462 
" clip-path="url(#p57f77413d7)" style="fill: none; stroke: #55a868; stroke-width: 1.5"/>
   </g>
   <g id="LineCollection_27">
    <path d="M 515.594966 113.187844 
L 515.594966 87.719391 
" clip-path="url(#p57f77413d7)" style="fill: none; stroke: #55a868; stroke-width: 1.5"/>
   </g>
   <g id="LineCollection_28">
    <path d="M 530.718879 141.53936 
L 530.718879 130.153481 
" clip-path="url(#p57f77413d7)" style="fill: none; stroke: #55a868; stroke-width: 1.5"/>
   </g>
   <g id="LineCollection_29">
    <path d="M 545.842791 112.524972 
L 545.842791 99.624552 
" clip-path="url(#p57f77413d7)" style="fill: none; stroke: #55a868; stroke-width: 1.5"/>
   </g>
   <g id="LineCollection_30">
    <path d="M 560.966704 153.83971 
L 560.966704 144.861384 
" clip-path="url(#p57f77413d7)" style="fill: none; stroke: #55a868; stroke-width: 1.5"/>
   </g>
   <g id="LineCollection_31">
    <path d="M 576.090617 192.030311 
L 576.090617 159.23579 
" clip-path="url(#p57f77413d7)" style="fill: none; stroke: #55a868; stroke-width: 1.5"/>
   </g>
   <g id="LineCollection_32">
    <path d="M 591.214529 143.848245 
L 591.214529 134.347726 
" clip-path="url(#p57f77413d7)" style="fill: none; stroke: #55a868; stroke-width: 1.5"/>
   </g>
   <g id="LineCollection_33">
    <path d="M 606.338442 159.421349 
L 606.338442 155.362254 
" clip-path="url(#p57f77413d7)" style="fill: none; stroke: #55a868; stroke-width: 1.5"/>
   </g>
   <g id="LineCollection_34">
    <path d="M 621.462354 101.358257 
L 621.462354 85.958346 
" clip-path="url(#p57f77413d7)" style="fill: none; stroke: #55a868; stroke-width: 1.5"/>
   </g>
   <g id="LineCollection_35">
    <path d="M 636.586267 87.374023 
L 636.586267 77.40465 
" clip-path="url(#p57f77413d7)" style="fill: none; stroke: #55a868; stroke-width: 1.5"/>
   </g>
   <g id="LineCollection_36">
    <path d="M 651.71018 82.779319 
L 651.71018 75.304368 
" clip-path="url(#p57f77413d7)" style="fill: none; stroke: #55a868; stroke-width: 1.5"/>
   </g>
   <g id="line2d_79">
    <defs>
     <path id="m34b7f4deab" d="M 0 3 
C 0.795609 3 1.55874 2.683901 2.12132 2.12132 
C 2.683901 1.55874 3 0.795609 3 0 
C 3 -0.795609 2.683901 -1.55874 2.12132 -2.12132 
C 1.55874 -2.683901 0.795609 -3 0 -3 
C -0.795609 -3 -1.55874 -2.683901 -2.12132 -2.12132 
C -2.683901 -1.55874 -3 -0.795609 -3 0 
C -3 0.795609 -2.683901 1.55874 -2.12132 2.12132 
C -1.55874 2.683901 -0.795609 3 0 3 
z
" style="stroke: #55a868"/>
    </defs>
    <g clip-path="url(#p57f77413d7)">
     <use xlink:href="#m34b7f4deab" x="485.347141" y="90.894067" style="fill: #55a868; stroke: #55a868"/>
    </g>
   </g>
   <g id="line2d_80">
    <g clip-path="url(#p57f77413d7)">
     <use xlink:href="#m34b7f4deab" x="500.471053" y="89.469952" style="fill: #55a868; stroke: #55a868"/>
    </g>
   </g>
   <g id="line2d_81">
    <g clip-path="url(#p57f77413d7)">
     <use xlink:href="#m34b7f4deab" x="515.594966" y="100.453618" style="fill: #55a868; stroke: #55a868"/>
    </g>
   </g>
   <g id="line2d_82">
    <g clip-path="url(#p57f77413d7)">
     <use xlink:href="#m34b7f4deab" x="530.718879" y="135.84642" style="fill: #55a868; stroke: #55a868"/>
    </g>
   </g>
   <g id="line2d_83">
    <g clip-path="url(#p57f77413d7)">
     <use xlink:href="#m34b7f4deab" x="545.842791" y="106.074762" style="fill: #55a868; stroke: #55a868"/>
    </g>
   </g>
   <g id="line2d_84">
    <g clip-path="url(#p57f77413d7)">
     <use xlink:href="#m34b7f4deab" x="560.966704" y="149.350547" style="fill: #55a868; stroke: #55a868"/>
    </g>
   </g>
   <g id="line2d_85">
    <g clip-path="url(#p57f77413d7)">
     <use xlink:href="#m34b7f4deab" x="576.090617" y="175.633051" style="fill: #55a868; stroke: #55a868"/>
    </g>
   </g>
   <g id="line2d_86">
    <g clip-path="url(#p57f77413d7)">
     <use xlink:href="#m34b7f4deab" x="591.214529" y="139.097986" style="fill: #55a868; stroke: #55a868"/>
    </g>
   </g>
   <g id="line2d_87">
    <g clip-path="url(#p57f77413d7)">
     <use xlink:href="#m34b7f4deab" x="606.338442" y="157.391802" style="fill: #55a868; stroke: #55a868"/>
    </g>
   </g>
   <g id="line2d_88">
    <defs>
     <path id="mc684ef65ec" d="M 0 -3 
L -3 3 
L 3 3 
z
" style="stroke: #55a868; stroke-linejoin: miter"/>
    </defs>
    <g clip-path="url(#p57f77413d7)">
     <use xlink:href="#mc684ef65ec" x="621.462354" y="93.658301" style="fill: #55a868; stroke: #55a868; stroke-linejoin: miter"/>
    </g>
   </g>
   <g id="line2d_89">
    <g clip-path="url(#p57f77413d7)">
     <use xlink:href="#mc684ef65ec" x="636.586267" y="82.389336" style="fill: #55a868; stroke: #55a868; stroke-linejoin: miter"/>
    </g>
   </g>
   <g id="line2d_90">
    <g clip-path="url(#p57f77413d7)">
     <use xlink:href="#mc684ef65ec" x="651.71018" y="79.041843" style="fill: #55a868; stroke: #55a868; stroke-linejoin: miter"/>
    </g>
   </g>
   <g id="patch_10">
    <path d="M 477.785184 323.24423 
L 477.785184 49.516712 
" style="fill: none; stroke: #262626; stroke-width: 1.25; stroke-linejoin: miter; stroke-linecap: square"/>
   </g>
   <g id="patch_11">
    <path d="M 477.785184 323.24423 
L 659.272136 323.24423 
" style="fill: none; stroke: #262626; stroke-width: 1.25; stroke-linejoin: miter; stroke-linecap: square"/>
   </g>
   <g id="text_49">
    <!-- \bf c) -->
    <g style="fill: #262626" transform="translate(459.636489 22.14396) scale(0.2 -0.2)">
     <defs>
      <path id="CMBX12-63" d="M 2995 753 
C 2995 829 2925 829 2861 829 
C 2758 829 2752 823 2720 747 
C 2675 625 2502 197 1914 197 
C 1011 197 1011 1166 1011 1453 
C 1011 1829 1018 2664 1856 2664 
C 1901 2664 2278 2664 2278 2632 
C 2278 2624 2272 2618 2259 2612 
C 2240 2593 2157 2496 2157 2334 
C 2157 2064 2374 1954 2534 1954 
C 2669 1954 2912 2039 2912 2346 
C 2912 2880 2176 2880 1830 2880 
C 691 2880 243 2145 243 1414 
C 243 552 851 -32 1792 -32 
C 2797 -32 2995 708 2995 753 
z
" transform="scale(0.015625)"/>
     </defs>
     <use xlink:href="#CMBX12-63" transform="scale(0.996264)"/>
     <use xlink:href="#CMBX12-29" transform="translate(49.8132 0) scale(0.996264)"/>
    </g>
   </g>
   <g id="text_50">
    <!-- $V\beta$ $\cap$ $CDR3\beta$ -->
    <g style="fill: #262626" transform="translate(519.715874 43.516712) scale(0.16 -0.16)">
     <defs>
      <path id="CMSY10-5c" d="M 3911 2436 
C 3911 3409 2932 3831 2132 3831 
C 1300 3831 352 3383 352 2442 
L 352 94 
C 352 -22 352 -137 480 -137 
C 608 -137 608 -22 608 94 
L 608 2410 
C 608 3370 1652 3575 2132 3575 
C 2420 3575 2823 3518 3163 3300 
C 3655 2986 3655 2577 3655 2404 
L 3655 94 
C 3655 -22 3655 -137 3783 -137 
C 3911 -137 3911 -22 3911 94 
L 3911 2436 
z
" transform="scale(0.015625)"/>
     </defs>
     <use xlink:href="#CMMI12-56" transform="scale(0.996264)"/>
     <use xlink:href="#CMMI12-c" transform="translate(78.547321 0) scale(0.996264)"/>
     <use xlink:href="#CMSY10-5c" transform="translate(169.217303 0) scale(0.996264)"/>
     <use xlink:href="#CMMI12-43" transform="translate(265.711088 0) scale(0.996264)"/>
     <use xlink:href="#CMMI12-44" transform="translate(342.657934 0) scale(0.996264)"/>
     <use xlink:href="#CMMI12-52" transform="translate(426.361882 0) scale(0.996264)"/>
     <use xlink:href="#CMR17-33" transform="translate(501.432844 0) scale(0.996264)"/>
     <use xlink:href="#CMMI12-c" transform="translate(547.123321 0) scale(0.996264)"/>
    </g>
   </g>
  </g>
  <g id="axes_4">
   <g id="patch_12">
    <path d="M 683.712568 323.24423 
L 865.19952 323.24423 
L 865.19952 49.516712 
L 683.712568 49.516712 
z
" style="fill: #ffffff"/>
   </g>
   <g id="matplotlib.axis_7">
    <g id="xtick_37">
     <g id="line2d_91">
      <g>
       <use xlink:href="#maee77b39cd" x="691.274525" y="323.24423" style="fill: #262626; stroke: #262626; stroke-width: 1.25"/>
      </g>
     </g>
     <g id="text_51">
      <!-- $\mathdefault{1}$ -->
      <g style="fill: #262626" transform="translate(688.534791 340.354577) scale(0.11 -0.11)">
       <use xlink:href="#CMR17-31" transform="scale(0.996264)"/>
      </g>
     </g>
    </g>
    <g id="xtick_38">
     <g id="line2d_92">
      <g>
       <use xlink:href="#maee77b39cd" x="706.398437" y="323.24423" style="fill: #262626; stroke: #262626; stroke-width: 1.25"/>
      </g>
     </g>
     <g id="text_52">
      <!-- $\mathdefault{2}$ -->
      <g style="fill: #262626" transform="translate(703.658704 340.354577) scale(0.11 -0.11)">
       <use xlink:href="#CMR17-32" transform="scale(0.996264)"/>
      </g>
     </g>
    </g>
    <g id="xtick_39">
     <g id="line2d_93">
      <g>
       <use xlink:href="#maee77b39cd" x="721.52235" y="323.24423" style="fill: #262626; stroke: #262626; stroke-width: 1.25"/>
      </g>
     </g>
     <g id="text_53">
      <!-- $\mathdefault{3}$ -->
      <g style="fill: #262626" transform="translate(718.782616 340.354577) scale(0.11 -0.11)">
       <use xlink:href="#CMR17-33" transform="scale(0.996264)"/>
      </g>
     </g>
    </g>
    <g id="xtick_40">
     <g id="line2d_94">
      <g>
       <use xlink:href="#maee77b39cd" x="736.646263" y="323.24423" style="fill: #262626; stroke: #262626; stroke-width: 1.25"/>
      </g>
     </g>
     <g id="text_54">
      <!-- $\mathdefault{4}$ -->
      <g style="fill: #262626" transform="translate(733.906529 340.354577) scale(0.11 -0.11)">
       <use xlink:href="#CMR17-34" transform="scale(0.996264)"/>
      </g>
     </g>
    </g>
    <g id="xtick_41">
     <g id="line2d_95">
      <g>
       <use xlink:href="#maee77b39cd" x="751.770175" y="323.24423" style="fill: #262626; stroke: #262626; stroke-width: 1.25"/>
      </g>
     </g>
     <g id="text_55">
      <!-- $\mathdefault{5}$ -->
      <g style="fill: #262626" transform="translate(749.030442 340.354577) scale(0.11 -0.11)">
       <use xlink:href="#CMR17-35" transform="scale(0.996264)"/>
      </g>
     </g>
    </g>
    <g id="xtick_42">
     <g id="line2d_96">
      <g>
       <use xlink:href="#maee77b39cd" x="766.894088" y="323.24423" style="fill: #262626; stroke: #262626; stroke-width: 1.25"/>
      </g>
     </g>
     <g id="text_56">
      <!-- $\mathdefault{6}$ -->
      <g style="fill: #262626" transform="translate(764.154354 340.354577) scale(0.11 -0.11)">
       <use xlink:href="#CMR17-36" transform="scale(0.996264)"/>
      </g>
     </g>
    </g>
    <g id="xtick_43">
     <g id="line2d_97">
      <g>
       <use xlink:href="#maee77b39cd" x="782.018001" y="323.24423" style="fill: #262626; stroke: #262626; stroke-width: 1.25"/>
      </g>
     </g>
     <g id="text_57">
      <!-- $\mathdefault{7}$ -->
      <g style="fill: #262626" transform="translate(779.278267 340.354577) scale(0.11 -0.11)">
       <use xlink:href="#CMR17-37" transform="scale(0.996264)"/>
      </g>
     </g>
    </g>
    <g id="xtick_44">
     <g id="line2d_98">
      <g>
       <use xlink:href="#maee77b39cd" x="797.141913" y="323.24423" style="fill: #262626; stroke: #262626; stroke-width: 1.25"/>
      </g>
     </g>
     <g id="text_58">
      <!-- $\mathdefault{8}$ -->
      <g style="fill: #262626" transform="translate(794.40218 340.354577) scale(0.11 -0.11)">
       <use xlink:href="#CMR17-38" transform="scale(0.996264)"/>
      </g>
     </g>
    </g>
    <g id="xtick_45">
     <g id="line2d_99">
      <g>
       <use xlink:href="#maee77b39cd" x="812.265826" y="323.24423" style="fill: #262626; stroke: #262626; stroke-width: 1.25"/>
      </g>
     </g>
     <g id="text_59">
      <!-- $\mathdefault{9}$ -->
      <g style="fill: #262626" transform="translate(809.526092 340.354577) scale(0.11 -0.11)">
       <use xlink:href="#CMR17-39" transform="scale(0.996264)"/>
      </g>
     </g>
    </g>
    <g id="xtick_46">
     <g id="line2d_100">
      <g>
       <use xlink:href="#maee77b39cd" x="827.389738" y="323.24423" style="fill: #262626; stroke: #262626; stroke-width: 1.25"/>
      </g>
     </g>
     <g id="text_60">
      <!-- $\mathdefault{10}$ -->
      <g style="fill: #262626" transform="translate(821.910271 340.354577) scale(0.11 -0.11)">
       <use xlink:href="#CMR17-31" transform="scale(0.996264)"/>
       <use xlink:href="#CMR17-30" transform="translate(45.690477 0) scale(0.996264)"/>
      </g>
     </g>
    </g>
    <g id="xtick_47">
     <g id="line2d_101">
      <g>
       <use xlink:href="#maee77b39cd" x="842.513651" y="323.24423" style="fill: #262626; stroke: #262626; stroke-width: 1.25"/>
      </g>
     </g>
     <g id="text_61">
      <!-- $\mathdefault{11}$ -->
      <g style="fill: #262626" transform="translate(837.034184 340.354577) scale(0.11 -0.11)">
       <use xlink:href="#CMR17-31" transform="scale(0.996264)"/>
       <use xlink:href="#CMR17-31" transform="translate(45.690477 0) scale(0.996264)"/>
      </g>
     </g>
    </g>
    <g id="xtick_48">
     <g id="line2d_102">
      <g>
       <use xlink:href="#maee77b39cd" x="857.637564" y="323.24423" style="fill: #262626; stroke: #262626; stroke-width: 1.25"/>
      </g>
     </g>
     <g id="text_62">
      <!-- $\mathdefault{12}$ -->
      <g style="fill: #262626" transform="translate(852.158096 340.354577) scale(0.11 -0.11)">
       <use xlink:href="#CMR17-31" transform="scale(0.996264)"/>
       <use xlink:href="#CMR17-32" transform="translate(45.690477 0) scale(0.996264)"/>
      </g>
     </g>
    </g>
   </g>
   <g id="matplotlib.axis_8">
    <g id="ytick_16">
     <g id="line2d_103">
      <g>
       <use xlink:href="#mc59773113b" x="683.712568" y="314.502336" style="fill: #262626; stroke: #262626; stroke-width: 1.25"/>
      </g>
     </g>
    </g>
    <g id="ytick_17">
     <g id="line2d_104">
      <g>
       <use xlink:href="#mc59773113b" x="683.712568" y="257.683865" style="fill: #262626; stroke: #262626; stroke-width: 1.25"/>
      </g>
     </g>
    </g>
    <g id="ytick_18">
     <g id="line2d_105">
      <g>
       <use xlink:href="#mc59773113b" x="683.712568" y="200.865393" style="fill: #262626; stroke: #262626; stroke-width: 1.25"/>
      </g>
     </g>
    </g>
    <g id="ytick_19">
     <g id="line2d_106">
      <g>
       <use xlink:href="#mc59773113b" x="683.712568" y="144.046922" style="fill: #262626; stroke: #262626; stroke-width: 1.25"/>
      </g>
     </g>
    </g>
    <g id="ytick_20">
     <g id="line2d_107">
      <g>
       <use xlink:href="#mc59773113b" x="683.712568" y="87.228451" style="fill: #262626; stroke: #262626; stroke-width: 1.25"/>
      </g>
     </g>
    </g>
   </g>
   <g id="line2d_108">
    <path d="M 683.712568 116.49174 
L 865.19952 116.49174 
" clip-path="url(#p86a3e2fe70)" style="fill: none; stroke-dasharray: 5.55,2.4; stroke-dashoffset: 0; stroke: #c44e52; stroke-opacity: 0.4; stroke-width: 1.5"/>
   </g>
   <g id="LineCollection_37">
    <path d="M 691.274525 129.176588 
L 691.274525 112.936983 
" clip-path="url(#p86a3e2fe70)" style="fill: none; stroke: #c44e52; stroke-width: 1.5"/>
   </g>
   <g id="LineCollection_38">
    <path d="M 706.398437 121.86736 
L 706.398437 100.888647 
" clip-path="url(#p86a3e2fe70)" style="fill: none; stroke: #c44e52; stroke-width: 1.5"/>
   </g>
   <g id="LineCollection_39">
    <path d="M 721.52235 143.75378 
L 721.52235 118.657415 
" clip-path="url(#p86a3e2fe70)" style="fill: none; stroke: #c44e52; stroke-width: 1.5"/>
   </g>
   <g id="LineCollection_40">
    <path d="M 736.646263 163.181327 
L 736.646263 150.663059 
" clip-path="url(#p86a3e2fe70)" style="fill: none; stroke: #c44e52; stroke-width: 1.5"/>
   </g>
   <g id="LineCollection_41">
    <path d="M 751.770175 141.952878 
L 751.770175 128.559943 
" clip-path="url(#p86a3e2fe70)" style="fill: none; stroke: #c44e52; stroke-width: 1.5"/>
   </g>
   <g id="LineCollection_42">
    <path d="M 766.894088 190.047057 
L 766.894088 178.663878 
" clip-path="url(#p86a3e2fe70)" style="fill: none; stroke: #c44e52; stroke-width: 1.5"/>
   </g>
   <g id="LineCollection_43">
    <path d="M 782.018001 231.765172 
L 782.018001 198.810778 
" clip-path="url(#p86a3e2fe70)" style="fill: none; stroke: #c44e52; stroke-width: 1.5"/>
   </g>
   <g id="LineCollection_44">
    <path d="M 797.141913 181.077748 
L 797.141913 171.324527 
" clip-path="url(#p86a3e2fe70)" style="fill: none; stroke: #c44e52; stroke-width: 1.5"/>
   </g>
   <g id="LineCollection_45">
    <path d="M 812.265826 174.654622 
L 812.265826 170.440716 
" clip-path="url(#p86a3e2fe70)" style="fill: none; stroke: #c44e52; stroke-width: 1.5"/>
   </g>
   <g id="LineCollection_46">
    <path d="M 827.389738 129.4809 
L 827.389738 113.069353 
" clip-path="url(#p86a3e2fe70)" style="fill: none; stroke: #c44e52; stroke-width: 1.5"/>
   </g>
   <g id="LineCollection_47">
    <path d="M 842.513651 100.620898 
L 842.513651 89.589616 
" clip-path="url(#p86a3e2fe70)" style="fill: none; stroke: #c44e52; stroke-width: 1.5"/>
   </g>
   <g id="LineCollection_48">
    <path d="M 857.637564 78.467826 
L 857.637564 70.645944 
" clip-path="url(#p86a3e2fe70)" style="fill: none; stroke: #c44e52; stroke-width: 1.5"/>
   </g>
   <g id="line2d_109">
    <defs>
     <path id="m9a683570f0" d="M 0 3 
C 0.795609 3 1.55874 2.683901 2.12132 2.12132 
C 2.683901 1.55874 3 0.795609 3 0 
C 3 -0.795609 2.683901 -1.55874 2.12132 -2.12132 
C 1.55874 -2.683901 0.795609 -3 0 -3 
C -0.795609 -3 -1.55874 -2.683901 -2.12132 -2.12132 
C -2.683901 -1.55874 -3 -0.795609 -3 0 
C -3 0.795609 -2.683901 1.55874 -2.12132 2.12132 
C -1.55874 2.683901 -0.795609 3 0 3 
z
" style="stroke: #c44e52"/>
    </defs>
    <g clip-path="url(#p86a3e2fe70)">
     <use xlink:href="#m9a683570f0" x="691.274525" y="121.056786" style="fill: #c44e52; stroke: #c44e52"/>
    </g>
   </g>
   <g id="line2d_110">
    <g clip-path="url(#p86a3e2fe70)">
     <use xlink:href="#m9a683570f0" x="706.398437" y="111.378003" style="fill: #c44e52; stroke: #c44e52"/>
    </g>
   </g>
   <g id="line2d_111">
    <g clip-path="url(#p86a3e2fe70)">
     <use xlink:href="#m9a683570f0" x="721.52235" y="131.205598" style="fill: #c44e52; stroke: #c44e52"/>
    </g>
   </g>
   <g id="line2d_112">
    <g clip-path="url(#p86a3e2fe70)">
     <use xlink:href="#m9a683570f0" x="736.646263" y="156.922193" style="fill: #c44e52; stroke: #c44e52"/>
    </g>
   </g>
   <g id="line2d_113">
    <g clip-path="url(#p86a3e2fe70)">
     <use xlink:href="#m9a683570f0" x="751.770175" y="135.25641" style="fill: #c44e52; stroke: #c44e52"/>
    </g>
   </g>
   <g id="line2d_114">
    <g clip-path="url(#p86a3e2fe70)">
     <use xlink:href="#m9a683570f0" x="766.894088" y="184.355468" style="fill: #c44e52; stroke: #c44e52"/>
    </g>
   </g>
   <g id="line2d_115">
    <g clip-path="url(#p86a3e2fe70)">
     <use xlink:href="#m9a683570f0" x="782.018001" y="215.287975" style="fill: #c44e52; stroke: #c44e52"/>
    </g>
   </g>
   <g id="line2d_116">
    <g clip-path="url(#p86a3e2fe70)">
     <use xlink:href="#m9a683570f0" x="797.141913" y="176.201138" style="fill: #c44e52; stroke: #c44e52"/>
    </g>
   </g>
   <g id="line2d_117">
    <g clip-path="url(#p86a3e2fe70)">
     <use xlink:href="#m9a683570f0" x="812.265826" y="172.547669" style="fill: #c44e52; stroke: #c44e52"/>
    </g>
   </g>
   <g id="line2d_118">
    <defs>
     <path id="m6dacb6d57e" d="M 0 -3 
L -3 3 
L 3 3 
z
" style="stroke: #c44e52; stroke-linejoin: miter"/>
    </defs>
    <g clip-path="url(#p86a3e2fe70)">
     <use xlink:href="#m6dacb6d57e" x="827.389738" y="121.275127" style="fill: #c44e52; stroke: #c44e52; stroke-linejoin: miter"/>
    </g>
   </g>
   <g id="line2d_119">
    <g clip-path="url(#p86a3e2fe70)">
     <use xlink:href="#m6dacb6d57e" x="842.513651" y="95.105257" style="fill: #c44e52; stroke: #c44e52; stroke-linejoin: miter"/>
    </g>
   </g>
   <g id="line2d_120">
    <g clip-path="url(#p86a3e2fe70)">
     <use xlink:href="#m6dacb6d57e" x="857.637564" y="74.556885" style="fill: #c44e52; stroke: #c44e52; stroke-linejoin: miter"/>
    </g>
   </g>
   <g id="patch_13">
    <path d="M 683.712568 323.24423 
L 683.712568 49.516712 
" style="fill: none; stroke: #262626; stroke-width: 1.25; stroke-linejoin: miter; stroke-linecap: square"/>
   </g>
   <g id="patch_14">
    <path d="M 683.712568 323.24423 
L 865.19952 323.24423 
" style="fill: none; stroke: #262626; stroke-width: 1.25; stroke-linejoin: miter; stroke-linecap: square"/>
   </g>
   <g id="text_63">
    <!-- \bf d) -->
    <g style="fill: #262626" transform="translate(665.563873 22.14396) scale(0.2 -0.2)">
     <defs>
      <path id="CMBX12-64" d="M 2221 4416 
L 2221 4117 
C 2618 4117 2662 4117 2662 3867 
L 2662 2575 
C 2522 2696 2240 2880 1798 2880 
C 890 2880 243 2318 243 1424 
C 243 510 877 -32 1728 -32 
C 2080 -32 2381 94 2630 311 
L 2630 0 
L 3770 0 
L 3770 292 
C 3373 292 3328 292 3328 540 
L 3328 4416 
L 2221 4416 
z
M 2630 661 
C 2362 262 2035 178 1805 178 
C 1011 178 1011 989 1011 1411 
C 1011 1712 1011 2032 1152 2274 
C 1350 2632 1728 2670 1875 2670 
C 2138 2670 2419 2556 2630 2276 
L 2630 661 
z
" transform="scale(0.015625)"/>
     </defs>
     <use xlink:href="#CMBX12-64" transform="scale(0.996264)"/>
     <use xlink:href="#CMBX12-29" transform="translate(62.266501 0) scale(0.996264)"/>
    </g>
   </g>
   <g id="text_64">
    <!-- $V\beta$ $\perp \!\!\! \perp$ $CDR3\beta$ -->
    <g style="fill: #262626" transform="translate(722.543728 43.516712) scale(0.16 -0.16)">
     <defs>
      <path id="CMSY10-3f" d="M 2618 4045 
C 2618 4160 2618 4275 2490 4275 
C 2362 4275 2362 4141 2362 4045 
L 2362 256 
L 582 256 
C 486 256 352 256 352 128 
C 352 0 486 0 582 0 
L 4403 0 
C 4512 0 4627 0 4627 128 
C 4627 256 4512 256 4403 256 
L 2618 256 
L 2618 4045 
z
" transform="scale(0.015625)"/>
     </defs>
     <use xlink:href="#CMMI12-56" transform="scale(0.996264)"/>
     <use xlink:href="#CMMI12-c" transform="translate(78.547321 0) scale(0.996264)"/>
     <use xlink:href="#CMSY10-3f" transform="translate(169.217303 0) scale(0.996264)"/>
     <use xlink:href="#CMSY10-3f" transform="translate(196.891555 0) scale(0.996264)"/>
     <use xlink:href="#CMMI12-43" transform="translate(304.454989 0) scale(0.996264)"/>
     <use xlink:href="#CMMI12-44" transform="translate(381.401835 0) scale(0.996264)"/>
     <use xlink:href="#CMMI12-52" transform="translate(465.105783 0) scale(0.996264)"/>
     <use xlink:href="#CMR17-33" transform="translate(540.176745 0) scale(0.996264)"/>
     <use xlink:href="#CMMI12-c" transform="translate(585.867222 0) scale(0.996264)"/>
    </g>
   </g>
  </g>
  <g id="text_65">
   <!-- Epitope ID -->
   <g style="fill: #262626" transform="translate(401.867257 358.448576) scale(0.144 -0.144)">
    <defs>
     <path id="CMR17-45" d="M 3885 1615 
L 3770 1615 
C 3629 676 3546 166 2419 166 
L 1530 166 
C 1274 166 1261 197 1261 414 
L 1261 2176 
L 1862 2176 
C 2464 2176 2522 1960 2522 1430 
L 2637 1430 
L 2637 3081 
L 2522 3081 
C 2522 2557 2464 2342 1862 2342 
L 1261 2342 
L 1261 3913 
C 1261 4128 1274 4160 1530 4160 
L 2406 4160 
C 3398 4160 3514 3769 3603 2929 
L 3718 2929 
L 3565 4325 
L 326 4325 
L 326 4160 
C 768 4160 838 4160 838 3874 
L 838 451 
C 838 166 768 166 326 166 
L 326 0 
L 3654 0 
L 3885 1615 
z
" transform="scale(0.015625)"/>
     <path id="CMR17-70" d="M 1408 -1063 
C 998 -1063 973 -1037 973 -789 
L 973 402 
C 1158 134 1427 -38 1766 -38 
C 2406 -38 3053 523 3053 1388 
C 3053 2191 2496 2802 1837 2802 
C 1453 2802 1139 2592 960 2338 
L 960 2802 
L 198 2732 
L 198 2567 
C 576 2567 634 2528 634 2223 
L 634 -789 
C 634 -1031 608 -1063 198 -1063 
L 198 -1228 
C 352 -1216 634 -1216 800 -1216 
C 966 -1216 1254 -1216 1408 -1228 
L 1408 -1063 
z
M 973 2012 
C 973 2102 973 2235 1222 2471 
C 1254 2497 1472 2688 1792 2688 
C 2259 2688 2643 2108 2643 1382 
C 2643 656 2234 64 1728 64 
C 1498 64 1248 172 1056 472 
C 973 612 973 650 973 752 
L 973 2012 
z
" transform="scale(0.015625)"/>
     <path id="CMR17-6f" d="M 2758 1356 
C 2758 2176 2163 2816 1466 2816 
C 768 2816 173 2176 173 1356 
C 173 551 768 -64 1466 -64 
C 2163 -64 2758 551 2758 1356 
z
M 1466 51 
C 1165 51 909 230 762 480 
C 602 767 582 1126 582 1408 
C 582 1677 595 2010 762 2298 
C 890 2509 1139 2714 1466 2714 
C 1754 2714 1997 2554 2150 2330 
C 2349 2029 2349 1607 2349 1408 
C 2349 1158 2336 775 2163 467 
C 1984 173 1709 51 1466 51 
z
" transform="scale(0.015625)"/>
     <path id="CMR17-49" d="M 1261 3905 
C 1261 4192 1338 4192 1798 4192 
L 1798 4352 
C 1594 4352 1267 4352 1050 4352 
C 832 4352 506 4352 301 4352 
L 301 4192 
C 762 4192 838 4192 838 3905 
L 838 447 
C 838 160 762 160 301 160 
L 301 0 
C 506 0 832 0 1050 0 
C 1267 0 1594 0 1798 0 
L 1798 160 
C 1338 160 1261 160 1261 447 
L 1261 3905 
z
" transform="scale(0.015625)"/>
    </defs>
    <use xlink:href="#CMR17-45" transform="scale(0.996264)"/>
    <use xlink:href="#CMR17-70" transform="translate(62.586301 0) scale(0.996264)"/>
    <use xlink:href="#CMR17-69" transform="translate(113.48167 0) scale(0.996264)"/>
    <use xlink:href="#CMR17-74" transform="translate(138.352729 0) scale(0.996264)"/>
    <use xlink:href="#CMR17-6f" transform="translate(173.633497 0) scale(0.996264)"/>
    <use xlink:href="#CMR17-70" transform="translate(219.323974 0) scale(0.996264)"/>
    <use xlink:href="#CMR17-65" transform="translate(272.821782 0) scale(0.996264)"/>
    <use xlink:href="#CMR17-49" transform="translate(343.383409 0) scale(0.996264)"/>
    <use xlink:href="#CMR17-44" transform="translate(376.021818 0) scale(0.996264)"/>
   </g>
  </g>
 </g>
 <defs>
  <clipPath id="pb15d461993">
   <rect x="65.930416" y="49.516712" width="181.486952" height="273.727518"/>
  </clipPath>
  <clipPath id="p0b8aafc316">
   <rect x="271.8578" y="49.516712" width="181.486952" height="273.727518"/>
  </clipPath>
  <clipPath id="p57f77413d7">
   <rect x="477.785184" y="49.516712" width="181.486952" height="273.727518"/>
  </clipPath>
  <clipPath id="p86a3e2fe70">
   <rect x="683.712568" y="49.516712" width="181.486952" height="273.727518"/>
  </clipPath>
 </defs>
</svg>
