<?xml version="1.0" encoding="utf-8" standalone="no"?>
<!DOCTYPE svg PUBLIC "-//W3C//DTD SVG 1.1//EN"
  "http://www.w3.org/Graphics/SVG/1.1/DTD/svg11.dtd">
<svg xmlns:xlink="http://www.w3.org/1999/xlink" width="1086.060797pt" height="440.587196pt" viewBox="0 0 1086.060797 440.587196" xmlns="http://www.w3.org/2000/svg" version="1.1">
 <metadata>
  <rdf:RDF xmlns:dc="http://purl.org/dc/elements/1.1/" xmlns:cc="http://creativecommons.org/ns#" xmlns:rdf="http://www.w3.org/1999/02/22-rdf-syntax-ns#">
   <cc:Work>
    <dc:type rdf:resource="http://purl.org/dc/dcmitype/StillImage"/>
    <dc:date>2024-09-13T15:30:03.191954</dc:date>
    <dc:format>image/svg+xml</dc:format>
    <dc:creator>
     <cc:Agent>
      <dc:title>Matplotlib v3.9.2, https://matplotlib.org/</dc:title>
     </cc:Agent>
    </dc:creator>
   </cc:Work>
  </rdf:RDF>
 </metadata>
 <defs>
  <style type="text/css">*{stroke-linejoin: round; stroke-linecap: butt}</style>
 </defs>
 <g id="figure_1">
  <g id="patch_1">
   <path d="M 0 440.587196 
L 1086.060797 440.587196 
L 1086.060797 0 
L 0 0 
z
" style="fill: #ffffff"/>
  </g>
  <g id="axes_1">
   <g id="patch_2">
    <path d="M 73.875409 373.104 
L 369.287174 373.104 
L 369.287174 40.464 
L 73.875409 40.464 
z
" style="fill: #ffffff"/>
   </g>
   <g id="matplotlib.axis_1">
    <g id="xtick_1">
     <g id="line2d_1">
      <defs>
       <path id="md36266a041" d="M 0 0 
L 0 6 
" style="stroke: #262626; stroke-width: 1.25"/>
      </defs>
      <g>
       <use xlink:href="#md36266a041" x="81.260703" y="373.104" style="fill: #262626; stroke: #262626; stroke-width: 1.25"/>
      </g>
     </g>
     <g id="text_1">
      <!-- Gly -->
      <g style="fill: #262626" transform="translate(85.743321 408.797462) rotate(-90) scale(0.18 -0.18)">
       <defs>
        <path id="CMR17-47" d="M 3974 1233 
C 3974 1473 3994 1505 4390 1505 
L 4390 1670 
C 4237 1664 3891 1664 3718 1664 
C 3539 1664 3040 1664 2797 1664 
L 2797 1505 
L 2989 1505 
C 3539 1505 3552 1434 3552 1201 
L 3552 774 
C 3552 63 2720 63 2522 63 
C 1862 63 781 511 781 2160 
C 781 3808 1843 4250 2464 4250 
C 3187 4250 3712 3626 3834 2741 
C 3846 2664 3846 2651 3904 2651 
C 3974 2651 3974 2664 3974 2779 
L 3974 4288 
C 3974 4402 3968 4409 3930 4409 
C 3904 4409 3898 4402 3853 4326 
L 3571 3791 
C 3258 4187 2874 4416 2381 4416 
C 1286 4416 294 3456 294 2148 
C 294 845 1267 -128 2394 -128 
C 2912 -128 3418 56 3616 417 
C 3725 158 3904 -20 3936 -20 
C 3968 -20 3974 -13 3974 100 
L 3974 1233 
z
" transform="scale(0.015625)"/>
        <path id="CMR17-6c" d="M 979 4396 
L 218 4326 
L 218 4160 
C 595 4160 653 4122 653 3817 
L 653 426 
C 653 184 627 153 218 153 
L 218 -13 
C 371 0 653 0 813 0 
C 979 0 1261 0 1414 -13 
L 1414 153 
C 1005 153 979 178 979 426 
L 979 4396 
z
" transform="scale(0.015625)"/>
        <path id="CMR17-79" d="M 2496 2197 
C 2656 2586 2944 2586 3034 2586 
L 3034 2752 
C 2912 2752 2752 2752 2630 2752 
C 2496 2752 2285 2752 2157 2758 
L 2157 2592 
C 2400 2573 2406 2394 2406 2343 
C 2406 2280 2394 2248 2362 2171 
L 1664 449 
L 902 2306 
C 870 2382 870 2426 870 2433 
C 870 2573 1018 2586 1171 2586 
L 1171 2758 
C 1018 2752 742 2752 582 2752 
C 410 2752 205 2752 64 2758 
L 64 2586 
C 410 2586 448 2554 531 2350 
L 1485 15 
C 1197 -738 1030 -1178 627 -1178 
C 557 -1178 397 -1159 282 -1044 
C 429 -1031 493 -942 493 -833 
C 493 -725 416 -629 288 -629 
C 147 -629 77 -725 77 -840 
C 77 -1095 339 -1280 627 -1280 
C 998 -1280 1229 -922 1357 -604 
L 2496 2197 
z
" transform="scale(0.015625)"/>
       </defs>
       <use xlink:href="#CMR17-47" transform="scale(0.996264)"/>
       <use xlink:href="#CMR17-6c" transform="translate(72.355346 0) scale(0.996264)"/>
       <use xlink:href="#CMR17-79" transform="translate(97.226404 0) scale(0.996264)"/>
      </g>
     </g>
    </g>
    <g id="xtick_2">
     <g id="line2d_2">
      <g>
       <use xlink:href="#md36266a041" x="96.031291" y="373.104" style="fill: #262626; stroke: #262626; stroke-width: 1.25"/>
      </g>
     </g>
     <g id="text_2">
      <!-- Pro -->
      <g style="fill: #262626" transform="translate(100.513909 408.444339) rotate(-90) scale(0.18 -0.18)">
       <defs>
        <path id="CMR17-50" d="M 1267 2042 
L 2291 2042 
C 3117 2042 3718 2578 3718 3184 
C 3718 3791 3130 4352 2291 4352 
L 333 4352 
L 333 4186 
C 774 4186 845 4186 845 3899 
L 845 446 
C 845 160 774 160 333 160 
L 333 0 
C 518 0 858 0 1056 0 
C 1254 0 1594 0 1779 0 
L 1779 160 
C 1338 160 1267 160 1267 446 
L 1267 2042 
z
M 1254 2176 
L 1254 3938 
C 1254 4155 1267 4186 1523 4186 
L 2170 4186 
C 2995 4186 3232 3714 3232 3184 
C 3232 2604 2950 2176 2170 2176 
L 1254 2176 
z
" transform="scale(0.015625)"/>
        <path id="CMR17-72" d="M 960 1497 
C 960 2112 1222 2688 1702 2688 
C 1747 2688 1792 2682 1837 2662 
C 1837 2662 1696 2617 1696 2452 
C 1696 2298 1818 2234 1914 2234 
C 1990 2234 2131 2279 2131 2458 
C 2131 2663 1926 2790 1709 2790 
C 1222 2790 1011 2317 947 2093 
L 941 2093 
L 941 2790 
L 198 2720 
L 198 2554 
C 576 2554 634 2515 634 2208 
L 634 428 
C 634 184 608 153 198 153 
L 198 -13 
C 352 0 646 0 813 0 
C 998 0 1325 0 1498 -13 
L 1498 153 
C 1037 153 960 153 960 440 
L 960 1497 
z
" transform="scale(0.015625)"/>
        <path id="CMR17-6f" d="M 2758 1356 
C 2758 2176 2163 2816 1466 2816 
C 768 2816 173 2176 173 1356 
C 173 551 768 -64 1466 -64 
C 2163 -64 2758 551 2758 1356 
z
M 1466 51 
C 1165 51 909 230 762 480 
C 602 767 582 1126 582 1408 
C 582 1677 595 2010 762 2298 
C 890 2509 1139 2714 1466 2714 
C 1754 2714 1997 2554 2150 2330 
C 2349 2029 2349 1607 2349 1408 
C 2349 1158 2336 775 2163 467 
C 1984 173 1709 51 1466 51 
z
" transform="scale(0.015625)"/>
       </defs>
       <use xlink:href="#CMR17-50" transform="scale(0.996264)"/>
       <use xlink:href="#CMR17-72" transform="translate(62.586301 0) scale(0.996264)"/>
       <use xlink:href="#CMR17-6f" transform="translate(97.867068 0) scale(0.996264)"/>
      </g>
     </g>
    </g>
    <g id="xtick_3">
     <g id="line2d_3">
      <g>
       <use xlink:href="#md36266a041" x="110.80188" y="373.104" style="fill: #262626; stroke: #262626; stroke-width: 1.25"/>
      </g>
     </g>
     <g id="text_3">
      <!-- Ser -->
      <g style="fill: #262626" transform="translate(115.284498 405.403101) rotate(-90) scale(0.18 -0.18)">
       <defs>
        <path id="CMR17-53" d="M 2803 4290 
C 2803 4404 2797 4411 2758 4411 
C 2720 4411 2707 4385 2682 4328 
L 2490 3907 
C 2246 4257 1875 4416 1472 4416 
C 819 4416 294 3901 294 3253 
C 294 3056 339 2776 557 2510 
C 794 2218 1018 2167 1530 2033 
C 1722 1982 2042 1899 2106 1874 
C 2470 1722 2662 1341 2662 985 
C 2662 527 2336 38 1779 38 
C 1094 38 454 419 410 1311 
C 403 1413 397 1419 352 1419 
C 301 1419 294 1413 294 1285 
L 294 -1 
C 294 -115 301 -122 339 -122 
C 384 -122 397 -90 486 108 
C 493 127 493 140 614 381 
C 934 -39 1472 -128 1779 -128 
C 2477 -128 2970 451 2970 1124 
C 2970 1454 2848 1708 2778 1823 
C 2509 2230 2221 2306 1914 2382 
C 1869 2402 1856 2402 1498 2490 
C 1152 2579 1005 2624 845 2796 
C 666 2992 602 3196 602 3399 
C 602 3812 934 4263 1478 4263 
C 2157 4263 2579 3786 2675 2993 
C 2694 2878 2701 2872 2746 2872 
C 2803 2872 2803 2891 2803 2999 
L 2803 4290 
z
" transform="scale(0.015625)"/>
        <path id="CMR17-65" d="M 2438 1472 
C 2464 1498 2464 1511 2464 1576 
C 2464 2238 2118 2816 1389 2816 
C 710 2816 173 2169 173 1383 
C 173 551 781 -64 1459 -64 
C 2176 -64 2458 607 2458 740 
C 2458 784 2419 784 2406 784 
C 2362 784 2355 771 2330 696 
C 2189 265 1837 51 1504 51 
C 1229 51 954 203 781 480 
C 582 803 582 1176 582 1472 
L 2438 1472 
z
M 589 1568 
C 634 2505 1126 2714 1382 2714 
C 1818 2714 2112 2297 2118 1568 
L 589 1568 
z
" transform="scale(0.015625)"/>
       </defs>
       <use xlink:href="#CMR17-53" transform="scale(0.996264)"/>
       <use xlink:href="#CMR17-65" transform="translate(50.89537 0) scale(0.996264)"/>
       <use xlink:href="#CMR17-72" transform="translate(91.38103 0) scale(0.996264)"/>
      </g>
     </g>
    </g>
    <g id="xtick_4">
     <g id="line2d_4">
      <g>
       <use xlink:href="#md36266a041" x="125.572468" y="373.104" style="fill: #262626; stroke: #262626; stroke-width: 1.25"/>
      </g>
     </g>
     <g id="text_4">
      <!-- Leu -->
      <g style="fill: #262626" transform="translate(130.055086 409.381225) rotate(-90) scale(0.18 -0.18)">
       <defs>
        <path id="CMR17-4c" d="M 3469 1615 
L 3354 1615 
C 3302 983 3219 166 2125 166 
L 1530 166 
C 1274 166 1261 197 1261 414 
L 1261 3898 
C 1261 4129 1274 4192 1760 4192 
L 1901 4192 
L 1901 4352 
C 1638 4352 1331 4352 1069 4352 
C 870 4352 512 4352 326 4352 
L 326 4192 
C 768 4192 838 4192 838 3905 
L 838 452 
C 838 166 768 166 326 166 
L 326 0 
L 3315 0 
L 3469 1615 
z
" transform="scale(0.015625)"/>
        <path id="CMR17-75" d="M 1882 2693 
L 1882 2528 
C 2259 2528 2317 2489 2317 2186 
L 2317 1032 
C 2317 500 2029 38 1555 38 
C 1030 38 986 348 986 678 
L 986 2763 
L 211 2693 
L 211 2528 
C 467 2528 640 2528 646 2274 
L 646 1058 
C 646 633 646 361 813 183 
C 896 101 1056 -64 1517 -64 
C 2061 -64 2272 377 2323 506 
L 2330 506 
L 2330 -63 
L 3091 -63 
L 3091 128 
C 2714 128 2656 166 2656 473 
L 2656 2763 
L 1882 2693 
z
" transform="scale(0.015625)"/>
       </defs>
       <use xlink:href="#CMR17-4c" transform="scale(0.996264)"/>
       <use xlink:href="#CMR17-65" transform="translate(57.381408 0) scale(0.996264)"/>
       <use xlink:href="#CMR17-75" transform="translate(97.867068 0) scale(0.996264)"/>
      </g>
     </g>
    </g>
    <g id="xtick_5">
     <g id="line2d_5">
      <g>
       <use xlink:href="#md36266a041" x="140.343056" y="373.104" style="fill: #262626; stroke: #262626; stroke-width: 1.25"/>
      </g>
     </g>
     <g id="text_5">
      <!-- Ala -->
      <g style="fill: #262626" transform="translate(144.825674 407.73811) rotate(-90) scale(0.18 -0.18)">
       <defs>
        <path id="CMR17-41" d="M 2323 4378 
C 2291 4461 2278 4480 2214 4480 
C 2150 4480 2138 4461 2106 4378 
L 749 566 
C 627 223 371 153 147 153 
L 147 -13 
C 262 0 518 0 640 0 
C 800 0 1056 0 1210 -13 
L 1210 153 
C 909 153 864 361 864 439 
C 864 497 877 530 890 569 
L 1229 1536 
L 2906 1536 
L 3290 442 
C 3322 365 3322 352 3322 327 
C 3322 153 3046 153 2925 153 
L 2925 0 
C 3110 0 3443 0 3642 0 
C 3808 0 4128 0 4282 -13 
L 4282 153 
C 3942 153 3827 153 3744 387 
L 2323 4378 
z
M 2067 3893 
L 2848 1702 
L 1286 1702 
L 2067 3893 
z
" transform="scale(0.015625)"/>
        <path id="CMR17-61" d="M 2304 1653 
C 2304 2072 2304 2294 2035 2543 
C 1798 2752 1523 2816 1306 2816 
C 800 2816 435 2407 435 1971 
C 435 1728 627 1728 666 1728 
C 749 1728 896 1778 896 1954 
C 896 2112 774 2181 666 2181 
C 640 2181 608 2174 589 2168 
C 723 2592 1069 2714 1293 2714 
C 1613 2714 1965 2429 1965 1885 
L 1965 1600 
C 1587 1600 1133 1549 774 1357 
C 371 1133 256 813 256 570 
C 256 77 832 -64 1171 -64 
C 1523 -64 1850 139 1990 511 
C 2003 233 2182 -18 2464 -18 
C 2598 -18 2938 70 2938 567 
L 2938 920 
L 2822 920 
L 2822 562 
C 2822 178 2650 128 2566 128 
C 2304 128 2304 458 2304 738 
L 2304 1653 
z
M 1965 870 
C 1965 317 1568 38 1216 38 
C 896 38 646 275 646 570 
C 646 761 730 1100 1101 1305 
C 1408 1478 1760 1504 1965 1504 
L 1965 870 
z
" transform="scale(0.015625)"/>
       </defs>
       <use xlink:href="#CMR17-41" transform="scale(0.996264)"/>
       <use xlink:href="#CMR17-6c" transform="translate(69.07243 0) scale(0.996264)"/>
       <use xlink:href="#CMR17-61" transform="translate(93.943488 0) scale(0.996264)"/>
      </g>
     </g>
    </g>
    <g id="xtick_6">
     <g id="line2d_6">
      <g>
       <use xlink:href="#md36266a041" x="155.113644" y="373.104" style="fill: #262626; stroke: #262626; stroke-width: 1.25"/>
      </g>
     </g>
     <g id="text_6">
      <!-- Thr -->
      <g style="fill: #262626" transform="translate(159.596262 410.087454) rotate(-90) scale(0.18 -0.18)">
       <defs>
        <path id="CMR17-54" d="M 3981 4326 
L 288 4326 
L 179 2918 
L 294 2918 
C 378 3976 467 4160 1453 4160 
C 1568 4160 1754 4160 1805 4154 
C 1926 4135 1926 4058 1926 3912 
L 1926 459 
C 1926 230 1907 160 1376 160 
L 1197 160 
L 1197 0 
C 1504 0 1824 0 2138 0 
C 2451 0 2771 0 3078 0 
L 3078 160 
L 2899 160 
C 2368 160 2349 230 2349 459 
L 2349 3912 
C 2349 4052 2349 4129 2464 4154 
C 2515 4160 2701 4160 2816 4160 
C 3795 4160 3891 3976 3974 2918 
L 4090 2918 
L 3981 4326 
z
" transform="scale(0.015625)"/>
        <path id="CMR17-68" d="M 2656 1933 
C 2656 2259 2592 2790 1837 2790 
C 1312 2790 1056 2368 979 2157 
L 973 2157 
L 973 4396 
L 211 4326 
L 211 4160 
C 589 4160 646 4122 646 3817 
L 646 426 
C 646 184 621 153 211 153 
L 211 -13 
C 365 0 646 0 813 0 
C 979 0 1267 0 1421 -13 
L 1421 153 
C 1011 153 986 178 986 428 
L 986 1658 
C 986 2247 1344 2688 1792 2688 
C 2266 2688 2317 2266 2317 1958 
L 2317 428 
C 2317 184 2291 153 1882 153 
L 1882 -13 
C 2035 0 2317 0 2483 0 
C 2650 0 2938 0 3091 -13 
L 3091 153 
C 2682 153 2656 178 2656 428 
L 2656 1933 
z
" transform="scale(0.015625)"/>
       </defs>
       <use xlink:href="#CMR17-54" transform="scale(0.996264)"/>
       <use xlink:href="#CMR17-68" transform="translate(66.509881 0) scale(0.996264)"/>
       <use xlink:href="#CMR17-72" transform="translate(117.40525 0) scale(0.996264)"/>
      </g>
     </g>
    </g>
    <g id="xtick_7">
     <g id="line2d_7">
      <g>
       <use xlink:href="#md36266a041" x="169.884233" y="373.104" style="fill: #262626; stroke: #262626; stroke-width: 1.25"/>
      </g>
     </g>
     <g id="text_7">
      <!-- Ile -->
      <g style="fill: #262626" transform="translate(174.366851 400.243115) rotate(-90) scale(0.18 -0.18)">
       <defs>
        <path id="CMR17-49" d="M 1261 3905 
C 1261 4192 1338 4192 1798 4192 
L 1798 4352 
C 1594 4352 1267 4352 1050 4352 
C 832 4352 506 4352 301 4352 
L 301 4192 
C 762 4192 838 4192 838 3905 
L 838 447 
C 838 160 762 160 301 160 
L 301 0 
C 506 0 832 0 1050 0 
C 1267 0 1594 0 1798 0 
L 1798 160 
C 1338 160 1261 160 1261 447 
L 1261 3905 
z
" transform="scale(0.015625)"/>
       </defs>
       <use xlink:href="#CMR17-49" transform="scale(0.996264)"/>
       <use xlink:href="#CMR17-6c" transform="translate(32.638409 0) scale(0.996264)"/>
       <use xlink:href="#CMR17-65" transform="translate(57.509468 0) scale(0.996264)"/>
      </g>
     </g>
    </g>
    <g id="xtick_8">
     <g id="line2d_8">
      <g>
       <use xlink:href="#md36266a041" x="184.654821" y="373.104" style="fill: #262626; stroke: #262626; stroke-width: 1.25"/>
      </g>
     </g>
     <g id="text_8">
      <!-- Tyr -->
      <g style="fill: #262626" transform="translate(189.137439 409.150569) rotate(-90) scale(0.18 -0.18)">
       <use xlink:href="#CMR17-54" transform="scale(0.996264)"/>
       <use xlink:href="#CMR17-79" transform="translate(63.907427 0) scale(0.996264)"/>
       <use xlink:href="#CMR17-72" transform="translate(112.200342 0) scale(0.996264)"/>
      </g>
     </g>
    </g>
    <g id="xtick_9">
     <g id="line2d_9">
      <g>
       <use xlink:href="#md36266a041" x="199.425409" y="373.104" style="fill: #262626; stroke: #262626; stroke-width: 1.25"/>
      </g>
     </g>
     <g id="text_9">
      <!-- Arg -->
      <g style="fill: #262626" transform="translate(203.908027 409.611851) rotate(-90) scale(0.18 -0.18)">
       <defs>
        <path id="CMR17-67" d="M 710 1164 
C 832 1068 1043 960 1299 960 
C 1805 960 2240 1357 2240 1888 
C 2240 2054 2189 2310 1997 2509 
C 2176 2692 2438 2752 2586 2752 
C 2611 2752 2650 2752 2682 2734 
C 2656 2728 2598 2703 2598 2605 
C 2598 2527 2656 2471 2739 2471 
C 2835 2471 2886 2533 2886 2614 
C 2886 2731 2790 2854 2586 2854 
C 2330 2854 2106 2738 1926 2580 
C 1734 2753 1504 2816 1299 2816 
C 794 2816 358 2419 358 1888 
C 358 1522 570 1292 634 1228 
C 442 1004 442 743 442 711 
C 442 545 506 302 723 168 
C 390 85 128 -169 128 -486 
C 128 -943 736 -1280 1466 -1280 
C 2170 -1280 2803 -956 2803 -479 
C 2803 384 1856 384 1363 384 
C 1216 384 954 384 922 391 
C 723 423 589 602 589 826 
C 589 883 589 1024 710 1164 
z
M 1299 1068 
C 736 1068 736 1760 736 1889 
C 736 2016 736 2708 1299 2708 
C 1862 2708 1862 2016 1862 1889 
C 1862 1760 1862 1068 1299 1068 
z
M 1466 -1171 
C 826 -1171 384 -835 384 -486 
C 384 -289 493 -105 634 -4 
C 794 104 858 104 1293 104 
C 1818 104 2547 104 2547 -486 
C 2547 -835 2106 -1171 1466 -1171 
z
" transform="scale(0.015625)"/>
       </defs>
       <use xlink:href="#CMR17-41" transform="scale(0.996264)"/>
       <use xlink:href="#CMR17-72" transform="translate(69.07243 0) scale(0.996264)"/>
       <use xlink:href="#CMR17-67" transform="translate(104.353198 0) scale(0.996264)"/>
      </g>
     </g>
    </g>
    <g id="xtick_10">
     <g id="line2d_10">
      <g>
       <use xlink:href="#md36266a041" x="214.195997" y="373.104" style="fill: #262626; stroke: #262626; stroke-width: 1.25"/>
      </g>
     </g>
     <g id="text_10">
      <!-- Asn -->
      <g style="fill: #262626" transform="translate(218.678615 410.642426) rotate(-90) scale(0.18 -0.18)">
       <defs>
        <path id="CMR17-73" d="M 1978 2697 
C 1978 2813 1971 2819 1933 2819 
C 1907 2819 1901 2813 1824 2717 
C 1805 2691 1747 2626 1728 2601 
C 1523 2819 1235 2819 1126 2819 
C 416 2819 160 2447 160 2076 
C 160 1498 813 1365 998 1325 
C 1402 1243 1542 1217 1677 1101 
C 1760 1025 1901 884 1901 654 
C 1901 384 1747 38 1158 38 
C 602 38 403 460 288 1021 
C 269 1110 269 1117 218 1117 
C 166 1117 160 1110 160 983 
L 160 63 
C 160 -51 166 -58 205 -58 
C 237 -58 243 -51 275 0 
C 314 57 410 211 448 276 
C 576 103 800 -64 1158 -64 
C 1792 -64 2131 283 2131 784 
C 2131 1112 1958 1285 1875 1362 
C 1683 1561 1459 1606 1190 1657 
C 838 1735 390 1825 390 2217 
C 390 2383 480 2737 1126 2737 
C 1811 2737 1850 2094 1862 1888 
C 1869 1856 1901 1849 1920 1849 
C 1978 1849 1978 1869 1978 1978 
L 1978 2697 
z
" transform="scale(0.015625)"/>
        <path id="CMR17-6e" d="M 2656 1933 
C 2656 2259 2592 2790 1837 2790 
C 1331 2790 1069 2400 973 2144 
L 966 2144 
L 966 2790 
L 211 2720 
L 211 2554 
C 589 2554 646 2515 646 2208 
L 646 428 
C 646 184 621 153 211 153 
L 211 -13 
C 365 0 646 0 813 0 
C 979 0 1267 0 1421 -13 
L 1421 153 
C 1011 153 986 178 986 428 
L 986 1658 
C 986 2247 1344 2688 1792 2688 
C 2266 2688 2317 2266 2317 1958 
L 2317 428 
C 2317 184 2291 153 1882 153 
L 1882 -13 
C 2035 0 2317 0 2483 0 
C 2650 0 2938 0 3091 -13 
L 3091 153 
C 2682 153 2656 178 2656 428 
L 2656 1933 
z
" transform="scale(0.015625)"/>
       </defs>
       <use xlink:href="#CMR17-41" transform="scale(0.996264)"/>
       <use xlink:href="#CMR17-73" transform="translate(69.07243 0) scale(0.996264)"/>
       <use xlink:href="#CMR17-6e" transform="translate(104.873767 0) scale(0.996264)"/>
      </g>
     </g>
    </g>
    <g id="xtick_11">
     <g id="line2d_11">
      <g>
       <use xlink:href="#md36266a041" x="228.966586" y="373.104" style="fill: #262626; stroke: #262626; stroke-width: 1.25"/>
      </g>
     </g>
     <g id="text_11">
      <!-- Phe -->
      <g style="fill: #262626" transform="translate(233.449204 410.318096) rotate(-90) scale(0.18 -0.18)">
       <use xlink:href="#CMR17-50" transform="scale(0.996264)"/>
       <use xlink:href="#CMR17-68" transform="translate(62.586301 0) scale(0.996264)"/>
       <use xlink:href="#CMR17-65" transform="translate(113.48167 0) scale(0.996264)"/>
      </g>
     </g>
    </g>
    <g id="xtick_12">
     <g id="line2d_12">
      <g>
       <use xlink:href="#md36266a041" x="243.737174" y="373.104" style="fill: #262626; stroke: #262626; stroke-width: 1.25"/>
      </g>
     </g>
     <g id="text_12">
      <!-- Glu -->
      <g style="fill: #262626" transform="translate(248.219792 409.265904) rotate(-90) scale(0.18 -0.18)">
       <use xlink:href="#CMR17-47" transform="scale(0.996264)"/>
       <use xlink:href="#CMR17-6c" transform="translate(72.355346 0) scale(0.996264)"/>
       <use xlink:href="#CMR17-75" transform="translate(97.226404 0) scale(0.996264)"/>
      </g>
     </g>
    </g>
    <g id="xtick_13">
     <g id="line2d_13">
      <g>
       <use xlink:href="#md36266a041" x="258.507762" y="373.104" style="fill: #262626; stroke: #262626; stroke-width: 1.25"/>
      </g>
     </g>
     <g id="text_13">
      <!-- Lys -->
      <g style="fill: #262626" transform="translate(262.99038 408.0696) rotate(-90) scale(0.18 -0.18)">
       <use xlink:href="#CMR17-4c" transform="scale(0.996264)"/>
       <use xlink:href="#CMR17-79" transform="translate(57.381408 0) scale(0.996264)"/>
       <use xlink:href="#CMR17-73" transform="translate(105.674324 0) scale(0.996264)"/>
      </g>
     </g>
    </g>
    <g id="xtick_14">
     <g id="line2d_14">
      <g>
       <use xlink:href="#md36266a041" x="273.27835" y="373.104" style="fill: #262626; stroke: #262626; stroke-width: 1.25"/>
      </g>
     </g>
     <g id="text_14">
      <!-- His -->
      <g style="fill: #262626" transform="translate(277.760968 405.958057) rotate(-90) scale(0.18 -0.18)">
       <defs>
        <path id="CMR17-48" d="M 3590 3905 
C 3590 4192 3661 4192 4102 4192 
L 4102 4352 
C 3917 4352 3578 4352 3379 4352 
C 3181 4352 2842 4352 2656 4352 
L 2656 4192 
C 3098 4192 3168 4192 3168 3904 
L 3168 2341 
L 1261 2341 
L 1261 3904 
C 1261 4192 1331 4192 1773 4192 
L 1773 4352 
C 1587 4352 1248 4352 1050 4352 
C 851 4352 512 4352 326 4352 
L 326 4192 
C 768 4192 838 4192 838 3905 
L 838 447 
C 838 160 768 160 326 160 
L 326 0 
C 512 0 851 0 1050 0 
C 1248 0 1587 0 1773 0 
L 1773 160 
C 1331 160 1261 160 1261 446 
L 1261 2176 
L 3168 2176 
L 3168 446 
C 3168 160 3098 160 2656 160 
L 2656 0 
C 2842 0 3181 0 3379 0 
C 3578 0 3917 0 4102 0 
L 4102 160 
C 3661 160 3590 160 3590 447 
L 3590 3905 
z
" transform="scale(0.015625)"/>
        <path id="CMR17-69" d="M 992 3909 
C 992 4049 877 4170 730 4170 
C 589 4170 467 4056 467 3909 
C 467 3769 582 3648 730 3648 
C 870 3648 992 3763 992 3909 
z
M 243 2706 
L 243 2541 
C 602 2541 653 2502 653 2197 
L 653 427 
C 653 184 627 153 218 153 
L 218 -13 
C 371 0 646 0 806 0 
C 960 0 1222 0 1370 -13 
L 1370 153 
C 992 153 979 191 979 420 
L 979 2776 
L 243 2706 
z
" transform="scale(0.015625)"/>
       </defs>
       <use xlink:href="#CMR17-48" transform="scale(0.996264)"/>
       <use xlink:href="#CMR17-69" transform="translate(69.07243 0) scale(0.996264)"/>
       <use xlink:href="#CMR17-73" transform="translate(93.943488 0) scale(0.996264)"/>
      </g>
     </g>
    </g>
    <g id="xtick_15">
     <g id="line2d_15">
      <g>
       <use xlink:href="#md36266a041" x="288.048939" y="373.104" style="fill: #262626; stroke: #262626; stroke-width: 1.25"/>
      </g>
     </g>
     <g id="text_15">
      <!-- Gln -->
      <g style="fill: #262626" transform="translate(292.531557 409.265904) rotate(-90) scale(0.18 -0.18)">
       <use xlink:href="#CMR17-47" transform="scale(0.996264)"/>
       <use xlink:href="#CMR17-6c" transform="translate(72.355346 0) scale(0.996264)"/>
       <use xlink:href="#CMR17-6e" transform="translate(97.226404 0) scale(0.996264)"/>
      </g>
     </g>
    </g>
    <g id="xtick_16">
     <g id="line2d_16">
      <g>
       <use xlink:href="#md36266a041" x="302.819527" y="373.104" style="fill: #262626; stroke: #262626; stroke-width: 1.25"/>
      </g>
     </g>
     <g id="text_16">
      <!-- Cys -->
      <g style="fill: #262626" transform="translate(307.302145 409.712715) rotate(-90) scale(0.18 -0.18)">
       <defs>
        <path id="CMR17-43" d="M 3974 4289 
C 3974 4403 3968 4410 3930 4410 
C 3904 4410 3898 4403 3853 4327 
L 3571 3792 
C 3258 4187 2874 4416 2381 4416 
C 1286 4416 294 3456 294 2148 
C 294 826 1286 -128 2387 -128 
C 3366 -128 3974 730 3974 1461 
C 3974 1524 3974 1550 3917 1550 
C 3866 1550 3866 1531 3859 1474 
C 3808 585 3168 38 2477 38 
C 1824 38 781 495 781 2147 
C 781 3805 1843 4250 2464 4250 
C 3187 4250 3712 3628 3834 2745 
C 3846 2668 3846 2655 3904 2655 
C 3974 2655 3974 2668 3974 2783 
L 3974 4289 
z
" transform="scale(0.015625)"/>
       </defs>
       <use xlink:href="#CMR17-43" transform="scale(0.996264)"/>
       <use xlink:href="#CMR17-79" transform="translate(66.509881 0) scale(0.996264)"/>
       <use xlink:href="#CMR17-73" transform="translate(114.802796 0) scale(0.996264)"/>
      </g>
     </g>
    </g>
    <g id="xtick_17">
     <g id="line2d_17">
      <g>
       <use xlink:href="#md36266a041" x="317.590115" y="373.104" style="fill: #262626; stroke: #262626; stroke-width: 1.25"/>
      </g>
     </g>
     <g id="text_17">
      <!-- Trp -->
      <g style="fill: #262626" transform="translate(322.072733 408.682141) rotate(-90) scale(0.18 -0.18)">
       <defs>
        <path id="CMR17-70" d="M 1408 -1063 
C 998 -1063 973 -1037 973 -789 
L 973 402 
C 1158 134 1427 -38 1766 -38 
C 2406 -38 3053 523 3053 1388 
C 3053 2191 2496 2802 1837 2802 
C 1453 2802 1139 2592 960 2338 
L 960 2802 
L 198 2732 
L 198 2567 
C 576 2567 634 2528 634 2223 
L 634 -789 
C 634 -1031 608 -1063 198 -1063 
L 198 -1228 
C 352 -1216 634 -1216 800 -1216 
C 966 -1216 1254 -1216 1408 -1228 
L 1408 -1063 
z
M 973 2012 
C 973 2102 973 2235 1222 2471 
C 1254 2497 1472 2688 1792 2688 
C 2259 2688 2643 2108 2643 1382 
C 2643 656 2234 64 1728 64 
C 1498 64 1248 172 1056 472 
C 973 612 973 650 973 752 
L 973 2012 
z
" transform="scale(0.015625)"/>
       </defs>
       <use xlink:href="#CMR17-54" transform="scale(0.996264)"/>
       <use xlink:href="#CMR17-72" transform="translate(58.702625 0) scale(0.996264)"/>
       <use xlink:href="#CMR17-70" transform="translate(93.983393 0) scale(0.996264)"/>
      </g>
     </g>
    </g>
    <g id="xtick_18">
     <g id="line2d_18">
      <g>
       <use xlink:href="#md36266a041" x="332.360703" y="373.104" style="fill: #262626; stroke: #262626; stroke-width: 1.25"/>
      </g>
     </g>
     <g id="text_18">
      <!-- Val -->
      <g style="fill: #262626" transform="translate(336.843321 406.332797) rotate(-90) scale(0.18 -0.18)">
       <defs>
        <path id="CMR17-56" d="M 3776 3745 
C 3834 3886 3936 4160 4365 4160 
L 4365 4332 
C 4218 4319 4051 4319 3891 4319 
C 3738 4319 3475 4319 3328 4332 
L 3328 4160 
C 3648 4160 3661 3936 3661 3898 
C 3661 3827 3642 3783 3622 3732 
L 2362 446 
L 1043 3886 
C 1024 3931 1011 3963 1011 3994 
C 1011 4160 1267 4160 1402 4160 
L 1402 4319 
C 1197 4319 896 4319 685 4319 
C 518 4319 218 4319 64 4332 
L 64 4160 
C 435 4160 506 4135 582 3931 
L 2106 -26 
C 2138 -115 2144 -128 2214 -128 
C 2285 -128 2291 -115 2323 -26 
L 3776 3745 
z
" transform="scale(0.015625)"/>
       </defs>
       <use xlink:href="#CMR17-56" transform="scale(0.996264)"/>
       <use xlink:href="#CMR17-61" transform="translate(61.265174 0) scale(0.996264)"/>
       <use xlink:href="#CMR17-6c" transform="translate(106.955652 0) scale(0.996264)"/>
      </g>
     </g>
    </g>
    <g id="xtick_19">
     <g id="line2d_19">
      <g>
       <use xlink:href="#md36266a041" x="347.131291" y="373.104" style="fill: #262626; stroke: #262626; stroke-width: 1.25"/>
      </g>
     </g>
     <g id="text_19">
      <!-- Met -->
      <g style="fill: #262626" transform="translate(351.613909 411.485593) rotate(-90) scale(0.18 -0.18)">
       <defs>
        <path id="CMR17-4d" d="M 1338 4224 
C 1299 4320 1293 4320 1158 4320 
L 339 4320 
L 339 4160 
C 781 4160 851 4160 851 3875 
L 851 610 
C 851 451 851 153 339 153 
L 339 -13 
C 486 0 755 0 915 0 
C 1075 0 1344 0 1491 -13 
L 1491 153 
C 979 153 979 451 979 610 
L 979 4135 
L 986 4135 
L 2490 89 
C 2515 25 2528 -13 2579 -13 
C 2630 -13 2643 25 2669 89 
L 4186 4166 
L 4192 4166 
L 4192 438 
C 4192 153 4122 153 3680 153 
L 3680 -13 
C 3853 0 4198 0 4384 0 
C 4570 0 4922 0 5094 -13 
L 5094 153 
C 4653 153 4582 153 4582 438 
L 4582 3875 
C 4582 4160 4653 4160 5094 4160 
L 5094 4320 
L 4282 4320 
C 4147 4320 4141 4314 4102 4218 
L 2720 502 
L 1338 4224 
z
" transform="scale(0.015625)"/>
        <path id="CMR17-74" d="M 966 2560 
L 1862 2560 
L 1862 2725 
L 966 2725 
L 966 3904 
L 851 3904 
C 838 3245 614 2668 70 2668 
L 70 2560 
L 627 2560 
L 627 771 
C 627 650 627 -64 1370 -64 
C 1747 -64 1965 306 1965 777 
L 1965 1140 
L 1850 1140 
L 1850 783 
C 1850 344 1677 51 1408 51 
C 1222 51 966 178 966 758 
L 966 2560 
z
" transform="scale(0.015625)"/>
       </defs>
       <use xlink:href="#CMR17-4d" transform="scale(0.996264)"/>
       <use xlink:href="#CMR17-65" transform="translate(84.686941 0) scale(0.996264)"/>
       <use xlink:href="#CMR17-74" transform="translate(125.172601 0) scale(0.996264)"/>
      </g>
     </g>
    </g>
    <g id="xtick_20">
     <g id="line2d_20">
      <g>
       <use xlink:href="#md36266a041" x="361.90188" y="373.104" style="fill: #262626; stroke: #262626; stroke-width: 1.25"/>
      </g>
     </g>
     <g id="text_20">
      <!-- Asp -->
      <g style="fill: #262626" transform="translate(366.384498 410.642426) rotate(-90) scale(0.18 -0.18)">
       <use xlink:href="#CMR17-41" transform="scale(0.996264)"/>
       <use xlink:href="#CMR17-73" transform="translate(69.07243 0) scale(0.996264)"/>
       <use xlink:href="#CMR17-70" transform="translate(104.873767 0) scale(0.996264)"/>
      </g>
     </g>
    </g>
    <g id="text_21">
     <!-- CDR3$\alpha$ content -->
     <g style="fill: #262626" transform="translate(164.255727 427.938893) scale(0.18 -0.18)">
      <defs>
       <path id="CMR17-44" d="M 333 4352 
L 333 4186 
C 774 4186 845 4186 845 3900 
L 845 452 
C 845 166 774 166 333 166 
L 333 0 
L 2368 0 
C 3398 0 4224 943 4224 2141 
C 4224 3346 3411 4352 2368 4352 
L 333 4352 
z
M 1523 166 
C 1267 166 1254 197 1254 414 
L 1254 3938 
C 1254 4155 1267 4186 1523 4186 
L 2240 4186 
C 2771 4186 3750 3874 3750 2141 
C 3750 1242 3488 879 3366 707 
C 3213 510 2848 166 2240 166 
L 1523 166 
z
" transform="scale(0.015625)"/>
       <path id="CMR17-52" d="M 2509 2146 
C 3117 2268 3629 2676 3629 3186 
C 3629 3785 2950 4326 2054 4326 
L 333 4326 
L 333 4160 
C 774 4160 845 4160 845 3873 
L 845 415 
C 845 128 774 128 333 128 
L 333 -26 
C 518 -26 851 -26 1050 -26 
C 1248 -26 1581 -26 1766 -26 
L 1766 128 
C 1325 128 1254 128 1254 417 
L 1254 2112 
L 2003 2112 
C 2368 2112 2573 1964 2662 1881 
C 2918 1632 2918 1459 2918 1024 
C 2918 595 2918 377 3110 160 
C 3354 -102 3680 -128 3821 -128 
C 4294 -128 4365 396 4365 503 
C 4365 540 4365 585 4307 585 
C 4256 585 4250 547 4250 522 
C 4218 112 4032 -26 3834 -26 
C 3482 -26 3443 375 3405 764 
C 3386 898 3373 993 3360 1133 
C 3322 1452 3270 1917 2509 2146 
z
M 1984 2214 
L 1254 2214 
L 1254 3913 
C 1254 4129 1267 4160 1523 4160 
L 1990 4160 
C 2522 4160 3142 3977 3142 3190 
C 3142 2372 2464 2214 1984 2214 
z
" transform="scale(0.015625)"/>
       <path id="CMR17-33" d="M 1414 2157 
C 1984 2157 2234 1662 2234 1090 
C 2234 320 1824 25 1453 25 
C 1114 25 563 194 390 693 
C 422 680 454 680 486 680 
C 640 680 755 782 755 948 
C 755 1133 614 1216 486 1216 
C 378 1216 211 1165 211 926 
C 211 335 787 -128 1466 -128 
C 2176 -128 2720 430 2720 1085 
C 2720 1707 2208 2157 1600 2227 
C 2086 2328 2554 2756 2554 3329 
C 2554 3820 2048 4179 1472 4179 
C 890 4179 378 3829 378 3329 
C 378 3110 544 3072 627 3072 
C 762 3072 877 3155 877 3321 
C 877 3486 762 3569 627 3569 
C 602 3569 570 3569 544 3557 
C 730 3959 1235 4032 1459 4032 
C 1683 4032 2106 3925 2106 3320 
C 2106 3143 2080 2828 1862 2550 
C 1670 2304 1453 2304 1242 2284 
C 1210 2284 1062 2269 1037 2269 
C 992 2263 966 2257 966 2208 
C 966 2163 973 2157 1101 2157 
L 1414 2157 
z
" transform="scale(0.015625)"/>
       <path id="CMMI12-b" d="M 2963 1616 
C 2963 2235 2611 2815 1933 2815 
C 1094 2815 256 1902 256 996 
C 256 441 602 -64 1254 -64 
C 1651 -64 2125 89 2579 472 
C 2669 115 2867 -64 3142 -64 
C 3488 -64 3661 294 3661 377 
C 3661 434 3616 434 3597 434 
C 3546 434 3539 415 3520 364 
C 3462 204 3315 64 3162 64 
C 2963 64 2963 472 2963 862 
C 3616 1641 3770 2446 3770 2452 
C 3770 2510 3718 2510 3699 2510 
C 3642 2510 3635 2491 3610 2376 
C 3526 2095 3360 1597 2963 1073 
L 2963 1616 
z
M 2560 626 
C 1997 121 1491 64 1267 64 
C 813 64 685 466 685 766 
C 685 1040 826 1692 1024 2044 
C 1286 2491 1645 2688 1933 2688 
C 2554 2688 2554 1877 2554 1341 
C 2554 1182 2547 1016 2547 856 
C 2547 728 2554 696 2560 626 
z
" transform="scale(0.015625)"/>
       <path id="CMR17-63" d="M 2234 2240 
C 2112 2240 1933 2240 1933 2017 
C 1933 1838 2080 1787 2163 1787 
C 2208 1787 2394 1807 2394 2024 
C 2394 2467 1958 2803 1466 2803 
C 787 2803 211 2178 211 1363 
C 211 516 813 -64 1466 -64 
C 2259 -64 2458 677 2458 748 
C 2458 774 2451 793 2406 793 
C 2362 793 2355 787 2330 703 
C 2163 180 1798 51 1523 51 
C 1114 51 621 427 621 1369 
C 621 2338 1094 2688 1472 2688 
C 1722 2688 2093 2573 2234 2240 
z
" transform="scale(0.015625)"/>
      </defs>
      <use xlink:href="#CMR17-43" transform="scale(0.996264)"/>
      <use xlink:href="#CMR17-44" transform="translate(66.509881 0) scale(0.996264)"/>
      <use xlink:href="#CMR17-52" transform="translate(136.903436 0) scale(0.996264)"/>
      <use xlink:href="#CMR17-33" transform="translate(204.694538 0) scale(0.996264)"/>
      <use xlink:href="#CMMI12-b" transform="translate(250.385016 0) scale(0.996264)"/>
      <use xlink:href="#CMR17-63" transform="translate(343.142005 0) scale(0.996264)"/>
      <use xlink:href="#CMR17-6f" transform="translate(383.627665 0) scale(0.996264)"/>
      <use xlink:href="#CMR17-6e" transform="translate(429.318142 0) scale(0.996264)"/>
      <use xlink:href="#CMR17-74" transform="translate(477.611058 0) scale(0.996264)"/>
      <use xlink:href="#CMR17-65" transform="translate(512.891826 0) scale(0.996264)"/>
      <use xlink:href="#CMR17-6e" transform="translate(553.377486 0) scale(0.996264)"/>
      <use xlink:href="#CMR17-74" transform="translate(601.670402 0) scale(0.996264)"/>
     </g>
    </g>
   </g>
   <g id="matplotlib.axis_2">
    <g id="ytick_1">
     <g id="line2d_21">
      <defs>
       <path id="meb01c31c5f" d="M 0 0 
L -6 0 
" style="stroke: #262626; stroke-width: 1.25"/>
      </defs>
      <g>
       <use xlink:href="#meb01c31c5f" x="73.875409" y="352.133836" style="fill: #262626; stroke: #262626; stroke-width: 1.25"/>
      </g>
     </g>
     <g id="text_22">
      <!-- $\mathdefault{−0.2}$ -->
      <g style="fill: #262626" transform="translate(29.101604 358.360486) scale(0.18 -0.18)">
       <defs>
        <path id="CMSY10-0" d="M 4218 1472 
C 4326 1472 4442 1472 4442 1600 
C 4442 1728 4326 1728 4218 1728 
L 755 1728 
C 646 1728 531 1728 531 1600 
C 531 1472 646 1472 755 1472 
L 4218 1472 
z
" transform="scale(0.015625)"/>
        <path id="CMR17-30" d="M 2688 2025 
C 2688 2416 2682 3080 2413 3591 
C 2176 4039 1798 4198 1466 4198 
C 1158 4198 768 4058 525 3597 
C 269 3118 243 2524 243 2025 
C 243 1661 250 1106 448 619 
C 723 -39 1216 -128 1466 -128 
C 1760 -128 2208 -7 2470 600 
C 2662 1042 2688 1559 2688 2025 
z
M 1466 -26 
C 1056 -26 813 325 723 812 
C 653 1188 653 1738 653 2096 
C 653 2588 653 2997 736 3387 
C 858 3929 1216 4096 1466 4096 
C 1728 4096 2067 3923 2189 3400 
C 2272 3036 2278 2607 2278 2096 
C 2278 1680 2278 1169 2202 792 
C 2067 95 1690 -26 1466 -26 
z
" transform="scale(0.015625)"/>
        <path id="CMMI12-3a" d="M 1178 307 
C 1178 492 1024 619 870 619 
C 685 619 557 466 557 313 
C 557 128 710 0 864 0 
C 1050 0 1178 153 1178 307 
z
" transform="scale(0.015625)"/>
        <path id="CMR17-32" d="M 2669 989 
L 2554 989 
C 2490 536 2438 459 2413 420 
C 2381 369 1920 369 1830 369 
L 602 369 
C 832 619 1280 1072 1824 1597 
C 2214 1967 2669 2402 2669 3035 
C 2669 3790 2067 4224 1395 4224 
C 691 4224 262 3604 262 3030 
C 262 2780 448 2748 525 2748 
C 589 2748 781 2787 781 3010 
C 781 3207 614 3264 525 3264 
C 486 3264 448 3258 422 3245 
C 544 3790 915 4058 1306 4058 
C 1862 4058 2227 3617 2227 3035 
C 2227 2479 1901 2000 1536 1584 
L 262 146 
L 262 0 
L 2515 0 
L 2669 989 
z
" transform="scale(0.015625)"/>
       </defs>
       <use xlink:href="#CMSY10-0" transform="scale(0.996264)"/>
       <use xlink:href="#CMR17-30" transform="translate(77.487468 0) scale(0.996264)"/>
       <use xlink:href="#CMMI12-3a" transform="translate(123.177945 0) scale(0.996264)"/>
       <use xlink:href="#CMR17-32" transform="translate(150.275122 0) scale(0.996264)"/>
      </g>
     </g>
    </g>
    <g id="ytick_2">
     <g id="line2d_22">
      <g>
       <use xlink:href="#meb01c31c5f" x="73.875409" y="283.954274" style="fill: #262626; stroke: #262626; stroke-width: 1.25"/>
      </g>
     </g>
     <g id="text_23">
      <!-- $\mathdefault{0.0}$ -->
      <g style="fill: #262626" transform="translate(43.049345 290.180924) scale(0.18 -0.18)">
       <use xlink:href="#CMR17-30" transform="scale(0.996264)"/>
       <use xlink:href="#CMMI12-3a" transform="translate(45.690477 0) scale(0.996264)"/>
       <use xlink:href="#CMR17-30" transform="translate(72.787654 0) scale(0.996264)"/>
      </g>
     </g>
    </g>
    <g id="ytick_3">
     <g id="line2d_23">
      <g>
       <use xlink:href="#meb01c31c5f" x="73.875409" y="215.774711" style="fill: #262626; stroke: #262626; stroke-width: 1.25"/>
      </g>
     </g>
     <g id="text_24">
      <!-- $\mathdefault{0.2}$ -->
      <g style="fill: #262626" transform="translate(43.049345 222.001362) scale(0.18 -0.18)">
       <use xlink:href="#CMR17-30" transform="scale(0.996264)"/>
       <use xlink:href="#CMMI12-3a" transform="translate(45.690477 0) scale(0.996264)"/>
       <use xlink:href="#CMR17-32" transform="translate(72.787654 0) scale(0.996264)"/>
      </g>
     </g>
    </g>
    <g id="ytick_4">
     <g id="line2d_24">
      <g>
       <use xlink:href="#meb01c31c5f" x="73.875409" y="147.595149" style="fill: #262626; stroke: #262626; stroke-width: 1.25"/>
      </g>
     </g>
     <g id="text_25">
      <!-- $\mathdefault{0.4}$ -->
      <g style="fill: #262626" transform="translate(43.049345 153.821799) scale(0.18 -0.18)">
       <defs>
        <path id="CMR17-34" d="M 2150 4122 
C 2150 4256 2144 4256 2029 4256 
L 128 1254 
L 128 1088 
L 1779 1088 
L 1779 457 
C 1779 224 1766 160 1318 160 
L 1197 160 
L 1197 0 
C 1402 0 1747 0 1965 0 
C 2182 0 2528 0 2733 0 
L 2733 160 
L 2611 160 
C 2163 160 2150 224 2150 457 
L 2150 1088 
L 2803 1088 
L 2803 1254 
L 2150 1254 
L 2150 4122 
z
M 1798 3703 
L 1798 1254 
L 256 1254 
L 1798 3703 
z
" transform="scale(0.015625)"/>
       </defs>
       <use xlink:href="#CMR17-30" transform="scale(0.996264)"/>
       <use xlink:href="#CMMI12-3a" transform="translate(45.690477 0) scale(0.996264)"/>
       <use xlink:href="#CMR17-34" transform="translate(72.787654 0) scale(0.996264)"/>
      </g>
     </g>
    </g>
    <g id="ytick_5">
     <g id="line2d_25">
      <g>
       <use xlink:href="#meb01c31c5f" x="73.875409" y="79.415587" style="fill: #262626; stroke: #262626; stroke-width: 1.25"/>
      </g>
     </g>
     <g id="text_26">
      <!-- $\mathdefault{0.6}$ -->
      <g style="fill: #262626" transform="translate(43.049345 85.642237) scale(0.18 -0.18)">
       <defs>
        <path id="CMR17-36" d="M 678 2176 
C 678 3690 1395 4032 1811 4032 
C 1946 4032 2272 4009 2400 3776 
C 2298 3776 2106 3776 2106 3553 
C 2106 3381 2246 3323 2336 3323 
C 2394 3323 2566 3348 2566 3560 
C 2566 3954 2246 4179 1805 4179 
C 1043 4179 243 3390 243 1984 
C 243 253 966 -128 1478 -128 
C 2099 -128 2688 427 2688 1283 
C 2688 2081 2170 2662 1517 2662 
C 1126 2662 838 2407 678 1960 
L 678 2176 
z
M 1478 25 
C 691 25 691 1200 691 1436 
C 691 1896 909 2560 1504 2560 
C 1613 2560 1926 2560 2138 2120 
C 2253 1870 2253 1609 2253 1289 
C 2253 944 2253 690 2118 434 
C 1978 171 1773 25 1478 25 
z
" transform="scale(0.015625)"/>
       </defs>
       <use xlink:href="#CMR17-30" transform="scale(0.996264)"/>
       <use xlink:href="#CMMI12-3a" transform="translate(45.690477 0) scale(0.996264)"/>
       <use xlink:href="#CMR17-36" transform="translate(72.787654 0) scale(0.996264)"/>
      </g>
     </g>
    </g>
    <g id="text_27">
     <!-- $I_2(X, \Pi)$ [bits] -->
     <g style="fill: #262626" transform="translate(20.63342 258.381791) rotate(-90) scale(0.18 -0.18)">
      <defs>
       <path id="CMMI12-49" d="M 2355 3880 
C 2413 4103 2426 4167 2893 4167 
C 3034 4167 3085 4167 3085 4288 
C 3085 4352 3014 4352 2995 4352 
C 2880 4352 2739 4352 2624 4352 
L 1837 4352 
C 1709 4352 1562 4352 1434 4352 
C 1382 4352 1312 4352 1312 4231 
C 1312 4167 1363 4167 1491 4167 
C 1888 4167 1888 4116 1888 4046 
C 1888 4002 1875 3963 1862 3906 
L 998 472 
C 941 249 928 185 461 185 
C 320 185 262 185 262 64 
C 262 0 326 0 358 0 
C 474 0 614 0 730 0 
L 1517 0 
C 1645 0 1786 0 1914 0 
C 1965 0 2042 0 2042 115 
C 2042 185 2003 185 1862 185 
C 1466 185 1466 236 1466 312 
C 1466 325 1466 357 1491 459 
L 2355 3880 
z
" transform="scale(0.015625)"/>
       <path id="CMR17-28" d="M 1958 -1561 
C 1958 -1555 1958 -1542 1939 -1523 
C 1645 -1224 858 -407 858 1581 
C 858 3569 1632 4379 1946 4697 
C 1946 4704 1958 4717 1958 4736 
C 1958 4755 1939 4768 1914 4768 
C 1843 4768 1299 4296 986 3594 
C 666 2887 576 2199 576 1588 
C 576 1128 621 351 1005 -471 
C 1312 -1135 1837 -1600 1914 -1600 
C 1946 -1600 1958 -1587 1958 -1561 
z
" transform="scale(0.015625)"/>
       <path id="CMMI12-58" d="M 3040 2596 
L 2438 3994 
C 2522 4147 2714 4172 2790 4179 
C 2829 4179 2899 4179 2899 4292 
C 2899 4364 2842 4364 2803 4364 
C 2694 4364 2566 4364 2458 4364 
L 2086 4364 
C 1696 4364 1414 4364 1408 4364 
C 1357 4364 1293 4364 1293 4243 
C 1293 4179 1350 4179 1434 4179 
C 1805 4179 1830 4115 1894 3962 
L 2656 2185 
L 1267 693 
C 1037 442 762 198 288 198 
C 211 192 160 192 160 68 
C 160 48 166 0 237 0 
C 326 0 422 0 512 0 
L 813 0 
C 1018 0 1242 0 1440 0 
C 1485 0 1562 0 1562 115 
C 1562 179 1517 185 1478 185 
C 1350 198 1267 268 1267 370 
C 1267 479 1344 557 1530 748 
L 2099 1368 
C 2240 1516 2579 1886 2720 2026 
L 3392 453 
C 3398 441 3424 377 3424 370 
C 3424 313 3283 198 3078 198 
C 3040 198 2970 198 2970 71 
C 2970 0 3034 0 3066 0 
C 3174 0 3302 0 3411 0 
L 4115 0 
C 4230 0 4352 0 4461 0 
C 4506 0 4576 0 4576 130 
C 4576 198 4512 198 4454 198 
C 4070 198 4058 230 3949 465 
L 3104 2441 
L 3917 3316 
C 3981 3381 4128 3542 4186 3606 
C 4461 3896 4717 4160 5235 4160 
C 5299 4179 5363 4179 5363 4292 
C 5363 4364 5306 4364 5280 4364 
C 5190 4364 5094 4364 5005 4364 
L 4710 4364 
C 4506 4364 4282 4364 4083 4364 
C 4038 4364 3962 4364 3962 4249 
C 3962 4185 4006 4179 4045 4179 
C 4147 4167 4256 4116 4256 3994 
L 4250 3982 
C 4243 3937 4230 3873 4160 3797 
L 3040 2596 
z
" transform="scale(0.015625)"/>
       <path id="CMMI12-3b" d="M 1248 -31 
C 1248 343 1126 619 864 619 
C 659 619 557 453 557 313 
C 557 172 653 0 870 0 
C 954 0 1024 26 1082 83 
C 1094 96 1101 96 1107 96 
C 1120 96 1120 5 1120 -27 
C 1120 -240 1082 -659 710 -1080 
C 640 -1157 640 -1170 640 -1183 
C 640 -1216 672 -1248 704 -1248 
C 755 -1248 1248 -771 1248 -31 
z
" transform="scale(0.015625)"/>
       <path id="CMR17-5" d="M 3590 3898 
C 3590 4186 3661 4186 4102 4186 
L 4102 4352 
L 326 4352 
L 326 4186 
C 768 4186 838 4186 838 3898 
L 838 448 
C 838 160 768 160 326 160 
L 326 0 
C 512 0 851 0 1050 0 
C 1248 0 1587 0 1773 0 
L 1773 160 
C 1331 160 1261 160 1261 448 
L 1261 4186 
L 3168 4186 
L 3168 448 
C 3168 160 3098 160 2656 160 
L 2656 0 
C 2842 0 3181 0 3379 0 
C 3578 0 3917 0 4102 0 
L 4102 160 
C 3661 160 3590 160 3590 448 
L 3590 3898 
z
" transform="scale(0.015625)"/>
       <path id="CMR17-29" d="M 1683 1581 
C 1683 2040 1638 2817 1254 3639 
C 947 4303 422 4768 346 4768 
C 326 4768 301 4761 301 4729 
C 301 4717 307 4710 314 4697 
C 621 4378 1402 3568 1402 1584 
C 1402 -407 627 -1217 314 -1537 
C 307 -1549 301 -1556 301 -1568 
C 301 -1600 326 -1600 346 -1600 
C 416 -1600 960 -1128 1274 -426 
C 1594 281 1683 969 1683 1581 
z
" transform="scale(0.015625)"/>
       <path id="CMR17-5b" d="M 1504 -1600 
L 1504 -1377 
L 902 -1377 
L 902 4544 
L 1504 4544 
L 1504 4767 
L 678 4767 
L 678 -1600 
L 1504 -1600 
z
" transform="scale(0.015625)"/>
       <path id="CMR17-62" d="M 960 4396 
L 198 4326 
L 198 4160 
C 576 4160 634 4122 634 3817 
L 634 -13 
L 749 -13 
L 934 441 
C 1120 141 1395 -64 1766 -64 
C 2406 -64 3053 500 3053 1370 
C 3053 2188 2477 2790 1830 2790 
C 1434 2790 1152 2579 960 2330 
L 960 4396 
z
M 973 2004 
C 973 2118 973 2138 1062 2272 
C 1312 2657 1670 2688 1792 2688 
C 1984 2688 2643 2585 2643 1376 
C 2643 108 1888 38 1734 38 
C 1536 38 1248 114 1043 486 
C 973 608 973 621 973 735 
L 973 2004 
z
" transform="scale(0.015625)"/>
       <path id="CMR17-5d" d="M 915 4767 
L 90 4767 
L 90 4544 
L 691 4544 
L 691 -1377 
L 90 -1377 
L 90 -1600 
L 915 -1600 
L 915 4767 
z
" transform="scale(0.015625)"/>
      </defs>
      <use xlink:href="#CMMI12-49" transform="scale(0.996264)"/>
      <use xlink:href="#CMR17-32" transform="translate(43.024176 -14.943915) scale(0.697382)"/>
      <use xlink:href="#CMR17-28" transform="translate(75.50549 0) scale(0.996264)"/>
      <use xlink:href="#CMMI12-58" transform="translate(110.786257 0) scale(0.996264)"/>
      <use xlink:href="#CMMI12-3b" transform="translate(194.159384 0) scale(0.996264)"/>
      <use xlink:href="#CMR17-5" transform="translate(237.860966 0) scale(0.996264)"/>
      <use xlink:href="#CMR17-29" transform="translate(306.933396 0) scale(0.996264)"/>
      <use xlink:href="#CMR17-5b" transform="translate(372.29013 0) scale(0.996264)"/>
      <use xlink:href="#CMR17-62" transform="translate(397.161189 0) scale(0.996264)"/>
      <use xlink:href="#CMR17-69" transform="translate(448.056559 0) scale(0.996264)"/>
      <use xlink:href="#CMR17-74" transform="translate(472.927617 0) scale(0.996264)"/>
      <use xlink:href="#CMR17-73" transform="translate(508.208385 0) scale(0.996264)"/>
      <use xlink:href="#CMR17-5d" transform="translate(544.009722 0) scale(0.996264)"/>
     </g>
    </g>
   </g>
   <g id="patch_3">
    <path d="M 77.568056 283.954274 
L 84.95335 283.954274 
L 84.95335 199.806146 
L 77.568056 199.806146 
z
" clip-path="url(#p9257fde1e8)" style="fill: #4c72b0; stroke: #000000; stroke-linejoin: miter"/>
   </g>
   <g id="patch_4">
    <path d="M 92.338644 283.954274 
L 99.723939 283.954274 
L 99.723939 200.649034 
L 92.338644 200.649034 
z
" clip-path="url(#p9257fde1e8)" style="fill: #4c72b0; stroke: #000000; stroke-linejoin: miter"/>
   </g>
   <g id="patch_5">
    <path d="M 107.109233 283.954274 
L 114.494527 283.954274 
L 114.494527 209.291483 
L 107.109233 209.291483 
z
" clip-path="url(#p9257fde1e8)" style="fill: #4c72b0; stroke: #000000; stroke-linejoin: miter"/>
   </g>
   <g id="patch_6">
    <path d="M 121.879821 283.954274 
L 129.265115 283.954274 
L 129.265115 210.50983 
L 121.879821 210.50983 
z
" clip-path="url(#p9257fde1e8)" style="fill: #4c72b0; stroke: #000000; stroke-linejoin: miter"/>
   </g>
   <g id="patch_7">
    <path d="M 136.650409 283.954274 
L 144.035703 283.954274 
L 144.035703 212.421379 
L 136.650409 212.421379 
z
" clip-path="url(#p9257fde1e8)" style="fill: #4c72b0; stroke: #000000; stroke-linejoin: miter"/>
   </g>
   <g id="patch_8">
    <path d="M 151.420997 283.954274 
L 158.806291 283.954274 
L 158.806291 216.34027 
L 151.420997 216.34027 
z
" clip-path="url(#p9257fde1e8)" style="fill: #4c72b0; stroke: #000000; stroke-linejoin: miter"/>
   </g>
   <g id="patch_9">
    <path d="M 166.191586 283.954274 
L 173.57688 283.954274 
L 173.57688 236.075452 
L 166.191586 236.075452 
z
" clip-path="url(#p9257fde1e8)" style="fill: #4c72b0; stroke: #000000; stroke-linejoin: miter"/>
   </g>
   <g id="patch_10">
    <path d="M 180.962174 283.954274 
L 188.347468 283.954274 
L 188.347468 249.301349 
L 180.962174 249.301349 
z
" clip-path="url(#p9257fde1e8)" style="fill: #4c72b0; stroke: #000000; stroke-linejoin: miter"/>
   </g>
   <g id="patch_11">
    <path d="M 195.732762 283.954274 
L 203.118056 283.954274 
L 203.118056 249.947677 
L 195.732762 249.947677 
z
" clip-path="url(#p9257fde1e8)" style="fill: #4c72b0; stroke: #000000; stroke-linejoin: miter"/>
   </g>
   <g id="patch_12">
    <path d="M 210.50335 283.954274 
L 217.888644 283.954274 
L 217.888644 251.825937 
L 210.50335 251.825937 
z
" clip-path="url(#p9257fde1e8)" style="fill: #4c72b0; stroke: #000000; stroke-linejoin: miter"/>
   </g>
   <g id="patch_13">
    <path d="M 225.273939 283.954274 
L 232.659233 283.954274 
L 232.659233 253.000157 
L 225.273939 253.000157 
z
" clip-path="url(#p9257fde1e8)" style="fill: #4c72b0; stroke: #000000; stroke-linejoin: miter"/>
   </g>
   <g id="patch_14">
    <path d="M 240.044527 283.954274 
L 247.429821 283.954274 
L 247.429821 256.3781 
L 240.044527 256.3781 
z
" clip-path="url(#p9257fde1e8)" style="fill: #4c72b0; stroke: #000000; stroke-linejoin: miter"/>
   </g>
   <g id="patch_15">
    <path d="M 254.815115 283.954274 
L 262.200409 283.954274 
L 262.200409 261.179671 
L 254.815115 261.179671 
z
" clip-path="url(#p9257fde1e8)" style="fill: #4c72b0; stroke: #000000; stroke-linejoin: miter"/>
   </g>
   <g id="patch_16">
    <path d="M 269.585703 283.954274 
L 276.970997 283.954274 
L 276.970997 262.071705 
L 269.585703 262.071705 
z
" clip-path="url(#p9257fde1e8)" style="fill: #4c72b0; stroke: #000000; stroke-linejoin: miter"/>
   </g>
   <g id="patch_17">
    <path d="M 284.356291 283.954274 
L 291.741586 283.954274 
L 291.741586 262.93244 
L 284.356291 262.93244 
z
" clip-path="url(#p9257fde1e8)" style="fill: #4c72b0; stroke: #000000; stroke-linejoin: miter"/>
   </g>
   <g id="patch_18">
    <path d="M 299.12688 283.954274 
L 306.512174 283.954274 
L 306.512174 273.034271 
L 299.12688 273.034271 
z
" clip-path="url(#p9257fde1e8)" style="fill: #4c72b0; stroke: #000000; stroke-linejoin: miter"/>
   </g>
   <g id="patch_19">
    <path d="M 313.897468 283.954274 
L 321.282762 283.954274 
L 321.282762 294.272143 
L 313.897468 294.272143 
z
" clip-path="url(#p9257fde1e8)" style="fill: #4c72b0; stroke: #000000; stroke-linejoin: miter"/>
   </g>
   <g id="patch_20">
    <path d="M 328.668056 283.954274 
L 336.05335 283.954274 
L 336.05335 298.336522 
L 328.668056 298.336522 
z
" clip-path="url(#p9257fde1e8)" style="fill: #4c72b0; stroke: #000000; stroke-linejoin: miter"/>
   </g>
   <g id="patch_21">
    <path d="M 343.438644 283.954274 
L 350.823939 283.954274 
L 350.823939 344.424254 
L 343.438644 344.424254 
z
" clip-path="url(#p9257fde1e8)" style="fill: #4c72b0; stroke: #000000; stroke-linejoin: miter"/>
   </g>
   <g id="patch_22">
    <path d="M 358.209233 283.954274 
L 365.594527 283.954274 
L 365.594527 357.984 
L 358.209233 357.984 
z
" clip-path="url(#p9257fde1e8)" style="fill: #4c72b0; stroke: #000000; stroke-linejoin: miter"/>
   </g>
   <g id="patch_23">
    <path d="M 73.875409 373.104 
L 73.875409 40.464 
" style="fill: none; stroke: #262626; stroke-width: 1.25; stroke-linejoin: miter; stroke-linecap: square"/>
   </g>
   <g id="patch_24">
    <path d="M 73.875409 373.104 
L 369.287174 373.104 
" style="fill: none; stroke: #262626; stroke-width: 1.25; stroke-linejoin: miter; stroke-linecap: square"/>
   </g>
   <g id="text_28">
    <!-- \bf a) -->
    <g style="fill: #262626" transform="translate(24.720285 22.14396) scale(0.2 -0.2)">
     <defs>
      <path id="CMBX12-61" d="M 2944 1898 
C 2944 2484 2477 2879 1574 2879 
C 1216 2879 461 2879 461 2334 
C 461 2061 666 1945 838 1945 
C 1030 1945 1216 2079 1216 2323 
C 1216 2445 1171 2559 1062 2630 
C 1274 2688 1427 2688 1549 2688 
C 1984 2688 2246 2445 2246 1919 
L 2246 1663 
C 1235 1663 218 1382 218 676 
C 218 95 960 -32 1402 -32 
C 1894 -32 2208 233 2336 510 
C 2336 274 2336 0 2982 0 
L 3309 0 
C 3443 0 3494 0 3494 145 
C 3494 273 3437 273 3347 273 
C 2944 273 2944 374 2944 522 
L 2944 1898 
z
M 2246 882 
C 2246 291 1709 178 1504 178 
C 1190 178 928 390 928 686 
C 928 1273 1619 1472 2246 1472 
L 2246 882 
z
" transform="scale(0.015625)"/>
      <path id="CMBX12-29" d="M 2099 1581 
C 2099 2751 1658 3890 749 4628 
C 582 4768 570 4768 506 4768 
C 474 4768 397 4768 397 4692 
C 397 4667 397 4654 518 4540 
C 1235 3827 1510 2708 1510 1588 
C 1510 334 1197 -696 480 -1415 
C 403 -1492 397 -1498 397 -1524 
C 397 -1600 474 -1600 506 -1600 
C 563 -1600 576 -1600 742 -1466 
C 1664 -735 2099 436 2099 1581 
z
" transform="scale(0.015625)"/>
     </defs>
     <use xlink:href="#CMBX12-61" transform="scale(0.996264)"/>
     <use xlink:href="#CMBX12-29" transform="translate(54.483188 0) scale(0.996264)"/>
    </g>
   </g>
  </g>
  <g id="axes_2">
   <g id="patch_25">
    <path d="M 428.369527 373.104 
L 723.781291 373.104 
L 723.781291 40.464 
L 428.369527 40.464 
z
" style="fill: #ffffff"/>
   </g>
   <g id="matplotlib.axis_3">
    <g id="xtick_21">
     <g id="line2d_26">
      <g>
       <use xlink:href="#md36266a041" x="435.754821" y="373.104" style="fill: #262626; stroke: #262626; stroke-width: 1.25"/>
      </g>
     </g>
     <g id="text_29">
      <!-- Arg -->
      <g style="fill: #262626" transform="translate(440.237439 409.611851) rotate(-90) scale(0.18 -0.18)">
       <use xlink:href="#CMR17-41" transform="scale(0.996264)"/>
       <use xlink:href="#CMR17-72" transform="translate(69.07243 0) scale(0.996264)"/>
       <use xlink:href="#CMR17-67" transform="translate(104.353198 0) scale(0.996264)"/>
      </g>
     </g>
    </g>
    <g id="xtick_22">
     <g id="line2d_27">
      <g>
       <use xlink:href="#md36266a041" x="450.525409" y="373.104" style="fill: #262626; stroke: #262626; stroke-width: 1.25"/>
      </g>
     </g>
     <g id="text_30">
      <!-- Pro -->
      <g style="fill: #262626" transform="translate(455.008027 408.444339) rotate(-90) scale(0.18 -0.18)">
       <use xlink:href="#CMR17-50" transform="scale(0.996264)"/>
       <use xlink:href="#CMR17-72" transform="translate(62.586301 0) scale(0.996264)"/>
       <use xlink:href="#CMR17-6f" transform="translate(97.867068 0) scale(0.996264)"/>
      </g>
     </g>
    </g>
    <g id="xtick_23">
     <g id="line2d_28">
      <g>
       <use xlink:href="#md36266a041" x="465.295997" y="373.104" style="fill: #262626; stroke: #262626; stroke-width: 1.25"/>
      </g>
     </g>
     <g id="text_31">
      <!-- His -->
      <g style="fill: #262626" transform="translate(469.778615 405.958057) rotate(-90) scale(0.18 -0.18)">
       <use xlink:href="#CMR17-48" transform="scale(0.996264)"/>
       <use xlink:href="#CMR17-69" transform="translate(69.07243 0) scale(0.996264)"/>
       <use xlink:href="#CMR17-73" transform="translate(93.943488 0) scale(0.996264)"/>
      </g>
     </g>
    </g>
    <g id="xtick_24">
     <g id="line2d_29">
      <g>
       <use xlink:href="#md36266a041" x="480.066586" y="373.104" style="fill: #262626; stroke: #262626; stroke-width: 1.25"/>
      </g>
     </g>
     <g id="text_32">
      <!-- Lys -->
      <g style="fill: #262626" transform="translate(484.549204 408.0696) rotate(-90) scale(0.18 -0.18)">
       <use xlink:href="#CMR17-4c" transform="scale(0.996264)"/>
       <use xlink:href="#CMR17-79" transform="translate(57.381408 0) scale(0.996264)"/>
       <use xlink:href="#CMR17-73" transform="translate(105.674324 0) scale(0.996264)"/>
      </g>
     </g>
    </g>
    <g id="xtick_25">
     <g id="line2d_30">
      <g>
       <use xlink:href="#md36266a041" x="494.837174" y="373.104" style="fill: #262626; stroke: #262626; stroke-width: 1.25"/>
      </g>
     </g>
     <g id="text_33">
      <!-- Gly -->
      <g style="fill: #262626" transform="translate(499.319792 408.797462) rotate(-90) scale(0.18 -0.18)">
       <use xlink:href="#CMR17-47" transform="scale(0.996264)"/>
       <use xlink:href="#CMR17-6c" transform="translate(72.355346 0) scale(0.996264)"/>
       <use xlink:href="#CMR17-79" transform="translate(97.226404 0) scale(0.996264)"/>
      </g>
     </g>
    </g>
    <g id="xtick_26">
     <g id="line2d_31">
      <g>
       <use xlink:href="#md36266a041" x="509.607762" y="373.104" style="fill: #262626; stroke: #262626; stroke-width: 1.25"/>
      </g>
     </g>
     <g id="text_34">
      <!-- Gln -->
      <g style="fill: #262626" transform="translate(514.09038 409.265904) rotate(-90) scale(0.18 -0.18)">
       <use xlink:href="#CMR17-47" transform="scale(0.996264)"/>
       <use xlink:href="#CMR17-6c" transform="translate(72.355346 0) scale(0.996264)"/>
       <use xlink:href="#CMR17-6e" transform="translate(97.226404 0) scale(0.996264)"/>
      </g>
     </g>
    </g>
    <g id="xtick_27">
     <g id="line2d_32">
      <g>
       <use xlink:href="#md36266a041" x="524.37835" y="373.104" style="fill: #262626; stroke: #262626; stroke-width: 1.25"/>
      </g>
     </g>
     <g id="text_35">
      <!-- Cys -->
      <g style="fill: #262626" transform="translate(528.860968 409.712715) rotate(-90) scale(0.18 -0.18)">
       <use xlink:href="#CMR17-43" transform="scale(0.996264)"/>
       <use xlink:href="#CMR17-79" transform="translate(66.509881 0) scale(0.996264)"/>
       <use xlink:href="#CMR17-73" transform="translate(114.802796 0) scale(0.996264)"/>
      </g>
     </g>
    </g>
    <g id="xtick_28">
     <g id="line2d_33">
      <g>
       <use xlink:href="#md36266a041" x="539.148939" y="373.104" style="fill: #262626; stroke: #262626; stroke-width: 1.25"/>
      </g>
     </g>
     <g id="text_36">
      <!-- Glu -->
      <g style="fill: #262626" transform="translate(543.631557 409.265904) rotate(-90) scale(0.18 -0.18)">
       <use xlink:href="#CMR17-47" transform="scale(0.996264)"/>
       <use xlink:href="#CMR17-6c" transform="translate(72.355346 0) scale(0.996264)"/>
       <use xlink:href="#CMR17-75" transform="translate(97.226404 0) scale(0.996264)"/>
      </g>
     </g>
    </g>
    <g id="xtick_29">
     <g id="line2d_34">
      <g>
       <use xlink:href="#md36266a041" x="553.919527" y="373.104" style="fill: #262626; stroke: #262626; stroke-width: 1.25"/>
      </g>
     </g>
     <g id="text_37">
      <!-- Ser -->
      <g style="fill: #262626" transform="translate(558.402145 405.403101) rotate(-90) scale(0.18 -0.18)">
       <use xlink:href="#CMR17-53" transform="scale(0.996264)"/>
       <use xlink:href="#CMR17-65" transform="translate(50.89537 0) scale(0.996264)"/>
       <use xlink:href="#CMR17-72" transform="translate(91.38103 0) scale(0.996264)"/>
      </g>
     </g>
    </g>
    <g id="xtick_30">
     <g id="line2d_35">
      <g>
       <use xlink:href="#md36266a041" x="568.690115" y="373.104" style="fill: #262626; stroke: #262626; stroke-width: 1.25"/>
      </g>
     </g>
     <g id="text_38">
      <!-- Tyr -->
      <g style="fill: #262626" transform="translate(573.172733 409.150569) rotate(-90) scale(0.18 -0.18)">
       <use xlink:href="#CMR17-54" transform="scale(0.996264)"/>
       <use xlink:href="#CMR17-79" transform="translate(63.907427 0) scale(0.996264)"/>
       <use xlink:href="#CMR17-72" transform="translate(112.200342 0) scale(0.996264)"/>
      </g>
     </g>
    </g>
    <g id="xtick_31">
     <g id="line2d_36">
      <g>
       <use xlink:href="#md36266a041" x="583.460703" y="373.104" style="fill: #262626; stroke: #262626; stroke-width: 1.25"/>
      </g>
     </g>
     <g id="text_39">
      <!-- Leu -->
      <g style="fill: #262626" transform="translate(587.943321 409.381225) rotate(-90) scale(0.18 -0.18)">
       <use xlink:href="#CMR17-4c" transform="scale(0.996264)"/>
       <use xlink:href="#CMR17-65" transform="translate(57.381408 0) scale(0.996264)"/>
       <use xlink:href="#CMR17-75" transform="translate(97.867068 0) scale(0.996264)"/>
      </g>
     </g>
    </g>
    <g id="xtick_32">
     <g id="line2d_37">
      <g>
       <use xlink:href="#md36266a041" x="598.231291" y="373.104" style="fill: #262626; stroke: #262626; stroke-width: 1.25"/>
      </g>
     </g>
     <g id="text_40">
      <!-- Val -->
      <g style="fill: #262626" transform="translate(602.713909 406.332797) rotate(-90) scale(0.18 -0.18)">
       <use xlink:href="#CMR17-56" transform="scale(0.996264)"/>
       <use xlink:href="#CMR17-61" transform="translate(61.265174 0) scale(0.996264)"/>
       <use xlink:href="#CMR17-6c" transform="translate(106.955652 0) scale(0.996264)"/>
      </g>
     </g>
    </g>
    <g id="xtick_33">
     <g id="line2d_38">
      <g>
       <use xlink:href="#md36266a041" x="613.00188" y="373.104" style="fill: #262626; stroke: #262626; stroke-width: 1.25"/>
      </g>
     </g>
     <g id="text_41">
      <!-- Asn -->
      <g style="fill: #262626" transform="translate(617.484498 410.642426) rotate(-90) scale(0.18 -0.18)">
       <use xlink:href="#CMR17-41" transform="scale(0.996264)"/>
       <use xlink:href="#CMR17-73" transform="translate(69.07243 0) scale(0.996264)"/>
       <use xlink:href="#CMR17-6e" transform="translate(104.873767 0) scale(0.996264)"/>
      </g>
     </g>
    </g>
    <g id="xtick_34">
     <g id="line2d_39">
      <g>
       <use xlink:href="#md36266a041" x="627.772468" y="373.104" style="fill: #262626; stroke: #262626; stroke-width: 1.25"/>
      </g>
     </g>
     <g id="text_42">
      <!-- Ala -->
      <g style="fill: #262626" transform="translate(632.255086 407.73811) rotate(-90) scale(0.18 -0.18)">
       <use xlink:href="#CMR17-41" transform="scale(0.996264)"/>
       <use xlink:href="#CMR17-6c" transform="translate(69.07243 0) scale(0.996264)"/>
       <use xlink:href="#CMR17-61" transform="translate(93.943488 0) scale(0.996264)"/>
      </g>
     </g>
    </g>
    <g id="xtick_35">
     <g id="line2d_40">
      <g>
       <use xlink:href="#md36266a041" x="642.543056" y="373.104" style="fill: #262626; stroke: #262626; stroke-width: 1.25"/>
      </g>
     </g>
     <g id="text_43">
      <!-- Trp -->
      <g style="fill: #262626" transform="translate(647.025674 408.682141) rotate(-90) scale(0.18 -0.18)">
       <use xlink:href="#CMR17-54" transform="scale(0.996264)"/>
       <use xlink:href="#CMR17-72" transform="translate(58.702625 0) scale(0.996264)"/>
       <use xlink:href="#CMR17-70" transform="translate(93.983393 0) scale(0.996264)"/>
      </g>
     </g>
    </g>
    <g id="xtick_36">
     <g id="line2d_41">
      <g>
       <use xlink:href="#md36266a041" x="657.313644" y="373.104" style="fill: #262626; stroke: #262626; stroke-width: 1.25"/>
      </g>
     </g>
     <g id="text_44">
      <!-- Thr -->
      <g style="fill: #262626" transform="translate(661.796262 410.087454) rotate(-90) scale(0.18 -0.18)">
       <use xlink:href="#CMR17-54" transform="scale(0.996264)"/>
       <use xlink:href="#CMR17-68" transform="translate(66.509881 0) scale(0.996264)"/>
       <use xlink:href="#CMR17-72" transform="translate(117.40525 0) scale(0.996264)"/>
      </g>
     </g>
    </g>
    <g id="xtick_37">
     <g id="line2d_42">
      <g>
       <use xlink:href="#md36266a041" x="672.084233" y="373.104" style="fill: #262626; stroke: #262626; stroke-width: 1.25"/>
      </g>
     </g>
     <g id="text_45">
      <!-- Ile -->
      <g style="fill: #262626" transform="translate(676.566851 400.243115) rotate(-90) scale(0.18 -0.18)">
       <use xlink:href="#CMR17-49" transform="scale(0.996264)"/>
       <use xlink:href="#CMR17-6c" transform="translate(32.638409 0) scale(0.996264)"/>
       <use xlink:href="#CMR17-65" transform="translate(57.509468 0) scale(0.996264)"/>
      </g>
     </g>
    </g>
    <g id="xtick_38">
     <g id="line2d_43">
      <g>
       <use xlink:href="#md36266a041" x="686.854821" y="373.104" style="fill: #262626; stroke: #262626; stroke-width: 1.25"/>
      </g>
     </g>
     <g id="text_46">
      <!-- Phe -->
      <g style="fill: #262626" transform="translate(691.337439 410.318096) rotate(-90) scale(0.18 -0.18)">
       <use xlink:href="#CMR17-50" transform="scale(0.996264)"/>
       <use xlink:href="#CMR17-68" transform="translate(62.586301 0) scale(0.996264)"/>
       <use xlink:href="#CMR17-65" transform="translate(113.48167 0) scale(0.996264)"/>
      </g>
     </g>
    </g>
    <g id="xtick_39">
     <g id="line2d_44">
      <g>
       <use xlink:href="#md36266a041" x="701.625409" y="373.104" style="fill: #262626; stroke: #262626; stroke-width: 1.25"/>
      </g>
     </g>
     <g id="text_47">
      <!-- Asp -->
      <g style="fill: #262626" transform="translate(706.108027 410.642426) rotate(-90) scale(0.18 -0.18)">
       <use xlink:href="#CMR17-41" transform="scale(0.996264)"/>
       <use xlink:href="#CMR17-73" transform="translate(69.07243 0) scale(0.996264)"/>
       <use xlink:href="#CMR17-70" transform="translate(104.873767 0) scale(0.996264)"/>
      </g>
     </g>
    </g>
    <g id="xtick_40">
     <g id="line2d_45">
      <g>
       <use xlink:href="#md36266a041" x="716.395997" y="373.104" style="fill: #262626; stroke: #262626; stroke-width: 1.25"/>
      </g>
     </g>
     <g id="text_48">
      <!-- Met -->
      <g style="fill: #262626" transform="translate(720.878615 411.485593) rotate(-90) scale(0.18 -0.18)">
       <use xlink:href="#CMR17-4d" transform="scale(0.996264)"/>
       <use xlink:href="#CMR17-65" transform="translate(84.686941 0) scale(0.996264)"/>
       <use xlink:href="#CMR17-74" transform="translate(125.172601 0) scale(0.996264)"/>
      </g>
     </g>
    </g>
    <g id="text_49">
     <!-- CDR3$\beta$ content -->
     <g style="fill: #262626" transform="translate(518.937671 427.938893) scale(0.18 -0.18)">
      <defs>
       <path id="CMMI12-c" d="M 3622 3701 
C 3622 4081 3296 4480 2714 4480 
C 1888 4480 1363 3477 1197 2816 
L 186 -1172 
C 173 -1223 211 -1236 243 -1236 
C 288 -1236 320 -1230 326 -1198 
L 774 586 
C 838 229 1190 -64 1568 -64 
C 2483 -64 3347 650 3347 1599 
C 3347 1841 3290 2083 3155 2287 
C 3078 2408 2982 2497 2880 2574 
C 3341 2815 3622 3200 3622 3701 
z
M 2509 2580 
C 2406 2542 2304 2529 2182 2529 
C 2093 2529 2010 2523 1894 2561 
C 1958 2606 2054 2618 2189 2618 
C 2304 2618 2419 2606 2509 2580 
z
M 3290 3758 
C 3290 3410 3117 2903 2701 2669 
C 2579 2718 2413 2752 2272 2752 
C 2138 2752 1754 2752 1754 2555 
C 1754 2389 2106 2389 2214 2389 
C 2381 2389 2528 2432 2682 2484 
C 2886 2318 2976 2101 2976 1783 
C 2976 1413 2874 1115 2752 841 
C 2541 369 2042 64 1600 64 
C 1133 64 890 432 890 864 
C 890 922 890 1005 915 1099 
L 1331 2771 
C 1542 3603 2080 4353 2701 4353 
C 3162 4353 3290 4036 3290 3758 
z
" transform="scale(0.015625)"/>
      </defs>
      <use xlink:href="#CMR17-43" transform="scale(0.996264)"/>
      <use xlink:href="#CMR17-44" transform="translate(66.509881 0) scale(0.996264)"/>
      <use xlink:href="#CMR17-52" transform="translate(136.903436 0) scale(0.996264)"/>
      <use xlink:href="#CMR17-33" transform="translate(204.694538 0) scale(0.996264)"/>
      <use xlink:href="#CMMI12-c" transform="translate(250.385016 0) scale(0.996264)"/>
      <use xlink:href="#CMR17-63" transform="translate(341.054998 0) scale(0.996264)"/>
      <use xlink:href="#CMR17-6f" transform="translate(381.540658 0) scale(0.996264)"/>
      <use xlink:href="#CMR17-6e" transform="translate(427.231135 0) scale(0.996264)"/>
      <use xlink:href="#CMR17-74" transform="translate(475.524051 0) scale(0.996264)"/>
      <use xlink:href="#CMR17-65" transform="translate(510.804819 0) scale(0.996264)"/>
      <use xlink:href="#CMR17-6e" transform="translate(551.290479 0) scale(0.996264)"/>
      <use xlink:href="#CMR17-74" transform="translate(599.583395 0) scale(0.996264)"/>
     </g>
    </g>
   </g>
   <g id="matplotlib.axis_4">
    <g id="ytick_6">
     <g id="line2d_46">
      <g>
       <use xlink:href="#meb01c31c5f" x="428.369527" y="352.133836" style="fill: #262626; stroke: #262626; stroke-width: 1.25"/>
      </g>
     </g>
    </g>
    <g id="ytick_7">
     <g id="line2d_47">
      <g>
       <use xlink:href="#meb01c31c5f" x="428.369527" y="283.954274" style="fill: #262626; stroke: #262626; stroke-width: 1.25"/>
      </g>
     </g>
    </g>
    <g id="ytick_8">
     <g id="line2d_48">
      <g>
       <use xlink:href="#meb01c31c5f" x="428.369527" y="215.774711" style="fill: #262626; stroke: #262626; stroke-width: 1.25"/>
      </g>
     </g>
    </g>
    <g id="ytick_9">
     <g id="line2d_49">
      <g>
       <use xlink:href="#meb01c31c5f" x="428.369527" y="147.595149" style="fill: #262626; stroke: #262626; stroke-width: 1.25"/>
      </g>
     </g>
    </g>
    <g id="ytick_10">
     <g id="line2d_50">
      <g>
       <use xlink:href="#meb01c31c5f" x="428.369527" y="79.415587" style="fill: #262626; stroke: #262626; stroke-width: 1.25"/>
      </g>
     </g>
    </g>
   </g>
   <g id="patch_26">
    <path d="M 432.062174 283.954274 
L 439.447468 283.954274 
L 439.447468 103.310677 
L 432.062174 103.310677 
z
" clip-path="url(#p0a5b8a4cad)" style="fill: #dd8452; stroke: #000000; stroke-linejoin: miter"/>
   </g>
   <g id="patch_27">
    <path d="M 446.832762 283.954274 
L 454.218056 283.954274 
L 454.218056 170.348614 
L 446.832762 170.348614 
z
" clip-path="url(#p0a5b8a4cad)" style="fill: #dd8452; stroke: #000000; stroke-linejoin: miter"/>
   </g>
   <g id="patch_28">
    <path d="M 461.60335 283.954274 
L 468.988644 283.954274 
L 468.988644 185.187821 
L 461.60335 185.187821 
z
" clip-path="url(#p0a5b8a4cad)" style="fill: #dd8452; stroke: #000000; stroke-linejoin: miter"/>
   </g>
   <g id="patch_29">
    <path d="M 476.373939 283.954274 
L 483.759233 283.954274 
L 483.759233 188.185564 
L 476.373939 188.185564 
z
" clip-path="url(#p0a5b8a4cad)" style="fill: #dd8452; stroke: #000000; stroke-linejoin: miter"/>
   </g>
   <g id="patch_30">
    <path d="M 491.144527 283.954274 
L 498.529821 283.954274 
L 498.529821 214.473045 
L 491.144527 214.473045 
z
" clip-path="url(#p0a5b8a4cad)" style="fill: #dd8452; stroke: #000000; stroke-linejoin: miter"/>
   </g>
   <g id="patch_31">
    <path d="M 505.915115 283.954274 
L 513.300409 283.954274 
L 513.300409 215.640619 
L 505.915115 215.640619 
z
" clip-path="url(#p0a5b8a4cad)" style="fill: #dd8452; stroke: #000000; stroke-linejoin: miter"/>
   </g>
   <g id="patch_32">
    <path d="M 520.685703 283.954274 
L 528.070997 283.954274 
L 528.070997 216.588953 
L 520.685703 216.588953 
z
" clip-path="url(#p0a5b8a4cad)" style="fill: #dd8452; stroke: #000000; stroke-linejoin: miter"/>
   </g>
   <g id="patch_33">
    <path d="M 535.456291 283.954274 
L 542.841586 283.954274 
L 542.841586 224.016431 
L 535.456291 224.016431 
z
" clip-path="url(#p0a5b8a4cad)" style="fill: #dd8452; stroke: #000000; stroke-linejoin: miter"/>
   </g>
   <g id="patch_34">
    <path d="M 550.22688 283.954274 
L 557.612174 283.954274 
L 557.612174 229.515869 
L 550.22688 229.515869 
z
" clip-path="url(#p0a5b8a4cad)" style="fill: #dd8452; stroke: #000000; stroke-linejoin: miter"/>
   </g>
   <g id="patch_35">
    <path d="M 564.997468 283.954274 
L 572.382762 283.954274 
L 572.382762 232.997589 
L 564.997468 232.997589 
z
" clip-path="url(#p0a5b8a4cad)" style="fill: #dd8452; stroke: #000000; stroke-linejoin: miter"/>
   </g>
   <g id="patch_36">
    <path d="M 579.768056 283.954274 
L 587.15335 283.954274 
L 587.15335 233.742882 
L 579.768056 233.742882 
z
" clip-path="url(#p0a5b8a4cad)" style="fill: #dd8452; stroke: #000000; stroke-linejoin: miter"/>
   </g>
   <g id="patch_37">
    <path d="M 594.538644 283.954274 
L 601.923939 283.954274 
L 601.923939 238.158474 
L 594.538644 238.158474 
z
" clip-path="url(#p0a5b8a4cad)" style="fill: #dd8452; stroke: #000000; stroke-linejoin: miter"/>
   </g>
   <g id="patch_38">
    <path d="M 609.309233 283.954274 
L 616.694527 283.954274 
L 616.694527 246.420839 
L 609.309233 246.420839 
z
" clip-path="url(#p0a5b8a4cad)" style="fill: #dd8452; stroke: #000000; stroke-linejoin: miter"/>
   </g>
   <g id="patch_39">
    <path d="M 624.079821 283.954274 
L 631.465115 283.954274 
L 631.465115 254.325483 
L 624.079821 254.325483 
z
" clip-path="url(#p0a5b8a4cad)" style="fill: #dd8452; stroke: #000000; stroke-linejoin: miter"/>
   </g>
   <g id="patch_40">
    <path d="M 638.850409 283.954274 
L 646.235703 283.954274 
L 646.235703 265.76732 
L 638.850409 265.76732 
z
" clip-path="url(#p0a5b8a4cad)" style="fill: #dd8452; stroke: #000000; stroke-linejoin: miter"/>
   </g>
   <g id="patch_41">
    <path d="M 653.620997 283.954274 
L 661.006291 283.954274 
L 661.006291 266.219786 
L 653.620997 266.219786 
z
" clip-path="url(#p0a5b8a4cad)" style="fill: #dd8452; stroke: #000000; stroke-linejoin: miter"/>
   </g>
   <g id="patch_42">
    <path d="M 668.391586 283.954274 
L 675.77688 283.954274 
L 675.77688 270.47752 
L 668.391586 270.47752 
z
" clip-path="url(#p0a5b8a4cad)" style="fill: #dd8452; stroke: #000000; stroke-linejoin: miter"/>
   </g>
   <g id="patch_43">
    <path d="M 683.162174 283.954274 
L 690.547468 283.954274 
L 690.547468 274.109875 
L 683.162174 274.109875 
z
" clip-path="url(#p0a5b8a4cad)" style="fill: #dd8452; stroke: #000000; stroke-linejoin: miter"/>
   </g>
   <g id="patch_44">
    <path d="M 697.932762 283.954274 
L 705.318056 283.954274 
L 705.318056 276.086195 
L 697.932762 276.086195 
z
" clip-path="url(#p0a5b8a4cad)" style="fill: #dd8452; stroke: #000000; stroke-linejoin: miter"/>
   </g>
   <g id="patch_45">
    <path d="M 712.70335 283.954274 
L 720.088644 283.954274 
L 720.088644 276.297342 
L 712.70335 276.297342 
z
" clip-path="url(#p0a5b8a4cad)" style="fill: #dd8452; stroke: #000000; stroke-linejoin: miter"/>
   </g>
   <g id="patch_46">
    <path d="M 428.369527 373.104 
L 428.369527 40.464 
" style="fill: none; stroke: #262626; stroke-width: 1.25; stroke-linejoin: miter; stroke-linecap: square"/>
   </g>
   <g id="patch_47">
    <path d="M 428.369527 373.104 
L 723.781291 373.104 
" style="fill: none; stroke: #262626; stroke-width: 1.25; stroke-linejoin: miter; stroke-linecap: square"/>
   </g>
   <g id="text_50">
    <!-- \bf b) -->
    <g style="fill: #262626" transform="translate(377.65774 22.14396) scale(0.2 -0.2)">
     <defs>
      <path id="CMBX12-62" d="M 1331 4416 
L 224 4416 
L 224 4117 
C 621 4117 666 4117 666 3867 
L 666 0 
L 934 0 
C 1043 123 1152 247 1254 376 
C 1581 38 1933 -32 2189 -32 
C 3072 -32 3750 504 3750 1431 
C 3750 2305 3149 2880 2272 2880 
C 1894 2880 1594 2759 1331 2555 
L 1331 4416 
z
M 1363 2248 
C 1587 2555 1920 2670 2189 2670 
C 2982 2670 2982 1859 2982 1437 
C 2982 1149 2982 785 2829 548 
C 2630 241 2330 178 2125 178 
C 1690 178 1453 484 1363 625 
L 1363 2248 
z
" transform="scale(0.015625)"/>
     </defs>
     <use xlink:href="#CMBX12-62" transform="scale(0.996264)"/>
     <use xlink:href="#CMBX12-29" transform="translate(62.266501 0) scale(0.996264)"/>
    </g>
   </g>
  </g>
  <g id="axes_3">
   <g id="patch_48">
    <path d="M 782.863644 373.104 
L 1078.275409 373.104 
L 1078.275409 40.464 
L 782.863644 40.464 
z
" style="fill: #ffffff"/>
   </g>
   <g id="matplotlib.axis_5">
    <g id="xtick_41">
     <g id="line2d_51">
      <g>
       <use xlink:href="#md36266a041" x="790.248939" y="373.104" style="fill: #262626; stroke: #262626; stroke-width: 1.25"/>
      </g>
     </g>
     <g id="text_51">
      <!-- Arg -->
      <g style="fill: #262626" transform="translate(794.731557 409.611851) rotate(-90) scale(0.18 -0.18)">
       <use xlink:href="#CMR17-41" transform="scale(0.996264)"/>
       <use xlink:href="#CMR17-72" transform="translate(69.07243 0) scale(0.996264)"/>
       <use xlink:href="#CMR17-67" transform="translate(104.353198 0) scale(0.996264)"/>
      </g>
     </g>
    </g>
    <g id="xtick_42">
     <g id="line2d_52">
      <g>
       <use xlink:href="#md36266a041" x="805.019527" y="373.104" style="fill: #262626; stroke: #262626; stroke-width: 1.25"/>
      </g>
     </g>
     <g id="text_52">
      <!-- Pro -->
      <g style="fill: #262626" transform="translate(809.502145 408.444339) rotate(-90) scale(0.18 -0.18)">
       <use xlink:href="#CMR17-50" transform="scale(0.996264)"/>
       <use xlink:href="#CMR17-72" transform="translate(62.586301 0) scale(0.996264)"/>
       <use xlink:href="#CMR17-6f" transform="translate(97.867068 0) scale(0.996264)"/>
      </g>
     </g>
    </g>
    <g id="xtick_43">
     <g id="line2d_53">
      <g>
       <use xlink:href="#md36266a041" x="819.790115" y="373.104" style="fill: #262626; stroke: #262626; stroke-width: 1.25"/>
      </g>
     </g>
     <g id="text_53">
      <!-- Gly -->
      <g style="fill: #262626" transform="translate(824.272733 408.797462) rotate(-90) scale(0.18 -0.18)">
       <use xlink:href="#CMR17-47" transform="scale(0.996264)"/>
       <use xlink:href="#CMR17-6c" transform="translate(72.355346 0) scale(0.996264)"/>
       <use xlink:href="#CMR17-79" transform="translate(97.226404 0) scale(0.996264)"/>
      </g>
     </g>
    </g>
    <g id="xtick_44">
     <g id="line2d_54">
      <g>
       <use xlink:href="#md36266a041" x="834.560703" y="373.104" style="fill: #262626; stroke: #262626; stroke-width: 1.25"/>
      </g>
     </g>
     <g id="text_54">
      <!-- Ser -->
      <g style="fill: #262626" transform="translate(839.043321 405.403101) rotate(-90) scale(0.18 -0.18)">
       <use xlink:href="#CMR17-53" transform="scale(0.996264)"/>
       <use xlink:href="#CMR17-65" transform="translate(50.89537 0) scale(0.996264)"/>
       <use xlink:href="#CMR17-72" transform="translate(91.38103 0) scale(0.996264)"/>
      </g>
     </g>
    </g>
    <g id="xtick_45">
     <g id="line2d_55">
      <g>
       <use xlink:href="#md36266a041" x="849.331291" y="373.104" style="fill: #262626; stroke: #262626; stroke-width: 1.25"/>
      </g>
     </g>
     <g id="text_55">
      <!-- Leu -->
      <g style="fill: #262626" transform="translate(853.813909 409.381225) rotate(-90) scale(0.18 -0.18)">
       <use xlink:href="#CMR17-4c" transform="scale(0.996264)"/>
       <use xlink:href="#CMR17-65" transform="translate(57.381408 0) scale(0.996264)"/>
       <use xlink:href="#CMR17-75" transform="translate(97.867068 0) scale(0.996264)"/>
      </g>
     </g>
    </g>
    <g id="xtick_46">
     <g id="line2d_56">
      <g>
       <use xlink:href="#md36266a041" x="864.10188" y="373.104" style="fill: #262626; stroke: #262626; stroke-width: 1.25"/>
      </g>
     </g>
     <g id="text_56">
      <!-- His -->
      <g style="fill: #262626" transform="translate(868.584498 405.958057) rotate(-90) scale(0.18 -0.18)">
       <use xlink:href="#CMR17-48" transform="scale(0.996264)"/>
       <use xlink:href="#CMR17-69" transform="translate(69.07243 0) scale(0.996264)"/>
       <use xlink:href="#CMR17-73" transform="translate(93.943488 0) scale(0.996264)"/>
      </g>
     </g>
    </g>
    <g id="xtick_47">
     <g id="line2d_57">
      <g>
       <use xlink:href="#md36266a041" x="878.872468" y="373.104" style="fill: #262626; stroke: #262626; stroke-width: 1.25"/>
      </g>
     </g>
     <g id="text_57">
      <!-- Lys -->
      <g style="fill: #262626" transform="translate(883.355086 408.0696) rotate(-90) scale(0.18 -0.18)">
       <use xlink:href="#CMR17-4c" transform="scale(0.996264)"/>
       <use xlink:href="#CMR17-79" transform="translate(57.381408 0) scale(0.996264)"/>
       <use xlink:href="#CMR17-73" transform="translate(105.674324 0) scale(0.996264)"/>
      </g>
     </g>
    </g>
    <g id="xtick_48">
     <g id="line2d_58">
      <g>
       <use xlink:href="#md36266a041" x="893.643056" y="373.104" style="fill: #262626; stroke: #262626; stroke-width: 1.25"/>
      </g>
     </g>
     <g id="text_58">
      <!-- Tyr -->
      <g style="fill: #262626" transform="translate(898.125674 409.150569) rotate(-90) scale(0.18 -0.18)">
       <use xlink:href="#CMR17-54" transform="scale(0.996264)"/>
       <use xlink:href="#CMR17-79" transform="translate(63.907427 0) scale(0.996264)"/>
       <use xlink:href="#CMR17-72" transform="translate(112.200342 0) scale(0.996264)"/>
      </g>
     </g>
    </g>
    <g id="xtick_49">
     <g id="line2d_59">
      <g>
       <use xlink:href="#md36266a041" x="908.413644" y="373.104" style="fill: #262626; stroke: #262626; stroke-width: 1.25"/>
      </g>
     </g>
     <g id="text_59">
      <!-- Ala -->
      <g style="fill: #262626" transform="translate(912.896262 407.73811) rotate(-90) scale(0.18 -0.18)">
       <use xlink:href="#CMR17-41" transform="scale(0.996264)"/>
       <use xlink:href="#CMR17-6c" transform="translate(69.07243 0) scale(0.996264)"/>
       <use xlink:href="#CMR17-61" transform="translate(93.943488 0) scale(0.996264)"/>
      </g>
     </g>
    </g>
    <g id="xtick_50">
     <g id="line2d_60">
      <g>
       <use xlink:href="#md36266a041" x="923.184233" y="373.104" style="fill: #262626; stroke: #262626; stroke-width: 1.25"/>
      </g>
     </g>
     <g id="text_60">
      <!-- Asn -->
      <g style="fill: #262626" transform="translate(927.666851 410.642426) rotate(-90) scale(0.18 -0.18)">
       <use xlink:href="#CMR17-41" transform="scale(0.996264)"/>
       <use xlink:href="#CMR17-73" transform="translate(69.07243 0) scale(0.996264)"/>
       <use xlink:href="#CMR17-6e" transform="translate(104.873767 0) scale(0.996264)"/>
      </g>
     </g>
    </g>
    <g id="xtick_51">
     <g id="line2d_61">
      <g>
       <use xlink:href="#md36266a041" x="937.954821" y="373.104" style="fill: #262626; stroke: #262626; stroke-width: 1.25"/>
      </g>
     </g>
     <g id="text_61">
      <!-- Gln -->
      <g style="fill: #262626" transform="translate(942.437439 409.265904) rotate(-90) scale(0.18 -0.18)">
       <use xlink:href="#CMR17-47" transform="scale(0.996264)"/>
       <use xlink:href="#CMR17-6c" transform="translate(72.355346 0) scale(0.996264)"/>
       <use xlink:href="#CMR17-6e" transform="translate(97.226404 0) scale(0.996264)"/>
      </g>
     </g>
    </g>
    <g id="xtick_52">
     <g id="line2d_62">
      <g>
       <use xlink:href="#md36266a041" x="952.725409" y="373.104" style="fill: #262626; stroke: #262626; stroke-width: 1.25"/>
      </g>
     </g>
     <g id="text_62">
      <!-- Glu -->
      <g style="fill: #262626" transform="translate(957.208027 409.265904) rotate(-90) scale(0.18 -0.18)">
       <use xlink:href="#CMR17-47" transform="scale(0.996264)"/>
       <use xlink:href="#CMR17-6c" transform="translate(72.355346 0) scale(0.996264)"/>
       <use xlink:href="#CMR17-75" transform="translate(97.226404 0) scale(0.996264)"/>
      </g>
     </g>
    </g>
    <g id="xtick_53">
     <g id="line2d_63">
      <g>
       <use xlink:href="#md36266a041" x="967.495997" y="373.104" style="fill: #262626; stroke: #262626; stroke-width: 1.25"/>
      </g>
     </g>
     <g id="text_63">
      <!-- Thr -->
      <g style="fill: #262626" transform="translate(971.978615 410.087454) rotate(-90) scale(0.18 -0.18)">
       <use xlink:href="#CMR17-54" transform="scale(0.996264)"/>
       <use xlink:href="#CMR17-68" transform="translate(66.509881 0) scale(0.996264)"/>
       <use xlink:href="#CMR17-72" transform="translate(117.40525 0) scale(0.996264)"/>
      </g>
     </g>
    </g>
    <g id="xtick_54">
     <g id="line2d_64">
      <g>
       <use xlink:href="#md36266a041" x="982.266586" y="373.104" style="fill: #262626; stroke: #262626; stroke-width: 1.25"/>
      </g>
     </g>
     <g id="text_64">
      <!-- Cys -->
      <g style="fill: #262626" transform="translate(986.749204 409.712715) rotate(-90) scale(0.18 -0.18)">
       <use xlink:href="#CMR17-43" transform="scale(0.996264)"/>
       <use xlink:href="#CMR17-79" transform="translate(66.509881 0) scale(0.996264)"/>
       <use xlink:href="#CMR17-73" transform="translate(114.802796 0) scale(0.996264)"/>
      </g>
     </g>
    </g>
    <g id="xtick_55">
     <g id="line2d_65">
      <g>
       <use xlink:href="#md36266a041" x="997.037174" y="373.104" style="fill: #262626; stroke: #262626; stroke-width: 1.25"/>
      </g>
     </g>
     <g id="text_65">
      <!-- Ile -->
      <g style="fill: #262626" transform="translate(1001.519792 400.243115) rotate(-90) scale(0.18 -0.18)">
       <use xlink:href="#CMR17-49" transform="scale(0.996264)"/>
       <use xlink:href="#CMR17-6c" transform="translate(32.638409 0) scale(0.996264)"/>
       <use xlink:href="#CMR17-65" transform="translate(57.509468 0) scale(0.996264)"/>
      </g>
     </g>
    </g>
    <g id="xtick_56">
     <g id="line2d_66">
      <g>
       <use xlink:href="#md36266a041" x="1011.807762" y="373.104" style="fill: #262626; stroke: #262626; stroke-width: 1.25"/>
      </g>
     </g>
     <g id="text_66">
      <!-- Phe -->
      <g style="fill: #262626" transform="translate(1016.29038 410.318096) rotate(-90) scale(0.18 -0.18)">
       <use xlink:href="#CMR17-50" transform="scale(0.996264)"/>
       <use xlink:href="#CMR17-68" transform="translate(62.586301 0) scale(0.996264)"/>
       <use xlink:href="#CMR17-65" transform="translate(113.48167 0) scale(0.996264)"/>
      </g>
     </g>
    </g>
    <g id="xtick_57">
     <g id="line2d_67">
      <g>
       <use xlink:href="#md36266a041" x="1026.57835" y="373.104" style="fill: #262626; stroke: #262626; stroke-width: 1.25"/>
      </g>
     </g>
     <g id="text_67">
      <!-- Val -->
      <g style="fill: #262626" transform="translate(1031.060968 406.332797) rotate(-90) scale(0.18 -0.18)">
       <use xlink:href="#CMR17-56" transform="scale(0.996264)"/>
       <use xlink:href="#CMR17-61" transform="translate(61.265174 0) scale(0.996264)"/>
       <use xlink:href="#CMR17-6c" transform="translate(106.955652 0) scale(0.996264)"/>
      </g>
     </g>
    </g>
    <g id="xtick_58">
     <g id="line2d_68">
      <g>
       <use xlink:href="#md36266a041" x="1041.348939" y="373.104" style="fill: #262626; stroke: #262626; stroke-width: 1.25"/>
      </g>
     </g>
     <g id="text_68">
      <!-- Trp -->
      <g style="fill: #262626" transform="translate(1045.831557 408.682141) rotate(-90) scale(0.18 -0.18)">
       <use xlink:href="#CMR17-54" transform="scale(0.996264)"/>
       <use xlink:href="#CMR17-72" transform="translate(58.702625 0) scale(0.996264)"/>
       <use xlink:href="#CMR17-70" transform="translate(93.983393 0) scale(0.996264)"/>
      </g>
     </g>
    </g>
    <g id="xtick_59">
     <g id="line2d_69">
      <g>
       <use xlink:href="#md36266a041" x="1056.119527" y="373.104" style="fill: #262626; stroke: #262626; stroke-width: 1.25"/>
      </g>
     </g>
     <g id="text_69">
      <!-- Met -->
      <g style="fill: #262626" transform="translate(1060.602145 411.485593) rotate(-90) scale(0.18 -0.18)">
       <use xlink:href="#CMR17-4d" transform="scale(0.996264)"/>
       <use xlink:href="#CMR17-65" transform="translate(84.686941 0) scale(0.996264)"/>
       <use xlink:href="#CMR17-74" transform="translate(125.172601 0) scale(0.996264)"/>
      </g>
     </g>
    </g>
    <g id="xtick_60">
     <g id="line2d_70">
      <g>
       <use xlink:href="#md36266a041" x="1070.890115" y="373.104" style="fill: #262626; stroke: #262626; stroke-width: 1.25"/>
      </g>
     </g>
     <g id="text_70">
      <!-- Asp -->
      <g style="fill: #262626" transform="translate(1075.372733 410.642426) rotate(-90) scale(0.18 -0.18)">
       <use xlink:href="#CMR17-41" transform="scale(0.996264)"/>
       <use xlink:href="#CMR17-73" transform="translate(69.07243 0) scale(0.996264)"/>
       <use xlink:href="#CMR17-70" transform="translate(104.873767 0) scale(0.996264)"/>
      </g>
     </g>
    </g>
    <g id="text_71">
     <!-- [CDR3$\alpha$ content, CDR3$\beta$ content] -->
     <g style="fill: #262626" transform="translate(806.684205 428.919013) scale(0.18 -0.18)">
      <defs>
       <path id="CMR17-2c" d="M 1011 102 
C 1024 45 1024 25 1024 -77 
C 1024 -463 896 -817 627 -1139 
C 595 -1170 595 -1183 595 -1197 
C 595 -1222 621 -1248 646 -1248 
C 685 -1248 1126 -799 1126 -87 
C 1126 124 1101 522 800 522 
C 659 522 538 427 538 261 
C 538 96 659 0 800 0 
C 877 0 960 32 1011 102 
z
" transform="scale(0.015625)"/>
      </defs>
      <use xlink:href="#CMR17-5b" transform="scale(0.996264)"/>
      <use xlink:href="#CMR17-43" transform="translate(24.871058 0) scale(0.996264)"/>
      <use xlink:href="#CMR17-44" transform="translate(91.380939 0) scale(0.996264)"/>
      <use xlink:href="#CMR17-52" transform="translate(161.774495 0) scale(0.996264)"/>
      <use xlink:href="#CMR17-33" transform="translate(229.565597 0) scale(0.996264)"/>
      <use xlink:href="#CMMI12-b" transform="translate(275.256074 0) scale(0.996264)"/>
      <use xlink:href="#CMR17-63" transform="translate(368.013063 0) scale(0.996264)"/>
      <use xlink:href="#CMR17-6f" transform="translate(408.498724 0) scale(0.996264)"/>
      <use xlink:href="#CMR17-6e" transform="translate(454.189201 0) scale(0.996264)"/>
      <use xlink:href="#CMR17-74" transform="translate(502.482117 0) scale(0.996264)"/>
      <use xlink:href="#CMR17-65" transform="translate(537.762884 0) scale(0.996264)"/>
      <use xlink:href="#CMR17-6e" transform="translate(578.248545 0) scale(0.996264)"/>
      <use xlink:href="#CMR17-74" transform="translate(626.541461 0) scale(0.996264)"/>
      <use xlink:href="#CMR17-2c" transform="translate(661.822229 0) scale(0.996264)"/>
      <use xlink:href="#CMR17-43" transform="translate(716.769253 0) scale(0.996264)"/>
      <use xlink:href="#CMR17-44" transform="translate(783.279134 0) scale(0.996264)"/>
      <use xlink:href="#CMR17-52" transform="translate(853.67269 0) scale(0.996264)"/>
      <use xlink:href="#CMR17-33" transform="translate(921.463792 0) scale(0.996264)"/>
      <use xlink:href="#CMMI12-c" transform="translate(967.154269 0) scale(0.996264)"/>
      <use xlink:href="#CMR17-63" transform="translate(1057.824251 0) scale(0.996264)"/>
      <use xlink:href="#CMR17-6f" transform="translate(1098.309911 0) scale(0.996264)"/>
      <use xlink:href="#CMR17-6e" transform="translate(1144.000389 0) scale(0.996264)"/>
      <use xlink:href="#CMR17-74" transform="translate(1192.293304 0) scale(0.996264)"/>
      <use xlink:href="#CMR17-65" transform="translate(1227.574072 0) scale(0.996264)"/>
      <use xlink:href="#CMR17-6e" transform="translate(1268.059733 0) scale(0.996264)"/>
      <use xlink:href="#CMR17-74" transform="translate(1316.352649 0) scale(0.996264)"/>
      <use xlink:href="#CMR17-5d" transform="translate(1351.633416 0) scale(0.996264)"/>
     </g>
    </g>
   </g>
   <g id="matplotlib.axis_6">
    <g id="ytick_11">
     <g id="line2d_71">
      <g>
       <use xlink:href="#meb01c31c5f" x="782.863644" y="352.133836" style="fill: #262626; stroke: #262626; stroke-width: 1.25"/>
      </g>
     </g>
    </g>
    <g id="ytick_12">
     <g id="line2d_72">
      <g>
       <use xlink:href="#meb01c31c5f" x="782.863644" y="283.954274" style="fill: #262626; stroke: #262626; stroke-width: 1.25"/>
      </g>
     </g>
    </g>
    <g id="ytick_13">
     <g id="line2d_73">
      <g>
       <use xlink:href="#meb01c31c5f" x="782.863644" y="215.774711" style="fill: #262626; stroke: #262626; stroke-width: 1.25"/>
      </g>
     </g>
    </g>
    <g id="ytick_14">
     <g id="line2d_74">
      <g>
       <use xlink:href="#meb01c31c5f" x="782.863644" y="147.595149" style="fill: #262626; stroke: #262626; stroke-width: 1.25"/>
      </g>
     </g>
    </g>
    <g id="ytick_15">
     <g id="line2d_75">
      <g>
       <use xlink:href="#meb01c31c5f" x="782.863644" y="79.415587" style="fill: #262626; stroke: #262626; stroke-width: 1.25"/>
      </g>
     </g>
    </g>
   </g>
   <g id="patch_49">
    <path d="M 786.556291 283.954274 
L 793.941586 283.954274 
L 793.941586 55.584 
L 786.556291 55.584 
z
" clip-path="url(#p36c2e6dc19)" style="fill: #55a868; stroke: #000000; stroke-linejoin: miter"/>
   </g>
   <g id="patch_50">
    <path d="M 801.32688 283.954274 
L 808.712174 283.954274 
L 808.712174 84.736173 
L 801.32688 84.736173 
z
" clip-path="url(#p36c2e6dc19)" style="fill: #55a868; stroke: #000000; stroke-linejoin: miter"/>
   </g>
   <g id="patch_51">
    <path d="M 816.097468 283.954274 
L 823.482762 283.954274 
L 823.482762 104.039152 
L 816.097468 104.039152 
z
" clip-path="url(#p36c2e6dc19)" style="fill: #55a868; stroke: #000000; stroke-linejoin: miter"/>
   </g>
   <g id="patch_52">
    <path d="M 830.868056 283.954274 
L 838.25335 283.954274 
L 838.25335 134.656089 
L 830.868056 134.656089 
z
" clip-path="url(#p36c2e6dc19)" style="fill: #55a868; stroke: #000000; stroke-linejoin: miter"/>
   </g>
   <g id="patch_53">
    <path d="M 845.638644 283.954274 
L 853.023939 283.954274 
L 853.023939 146.053596 
L 845.638644 146.053596 
z
" clip-path="url(#p36c2e6dc19)" style="fill: #55a868; stroke: #000000; stroke-linejoin: miter"/>
   </g>
   <g id="patch_54">
    <path d="M 860.409233 283.954274 
L 867.794527 283.954274 
L 867.794527 162.441902 
L 860.409233 162.441902 
z
" clip-path="url(#p36c2e6dc19)" style="fill: #55a868; stroke: #000000; stroke-linejoin: miter"/>
   </g>
   <g id="patch_55">
    <path d="M 875.179821 283.954274 
L 882.565115 283.954274 
L 882.565115 164.633891 
L 875.179821 164.633891 
z
" clip-path="url(#p36c2e6dc19)" style="fill: #55a868; stroke: #000000; stroke-linejoin: miter"/>
   </g>
   <g id="patch_56">
    <path d="M 889.950409 283.954274 
L 897.335703 283.954274 
L 897.335703 173.340356 
L 889.950409 173.340356 
z
" clip-path="url(#p36c2e6dc19)" style="fill: #55a868; stroke: #000000; stroke-linejoin: miter"/>
   </g>
   <g id="patch_57">
    <path d="M 904.720997 283.954274 
L 912.106291 283.954274 
L 912.106291 177.670376 
L 904.720997 177.670376 
z
" clip-path="url(#p36c2e6dc19)" style="fill: #55a868; stroke: #000000; stroke-linejoin: miter"/>
   </g>
   <g id="patch_58">
    <path d="M 919.491586 283.954274 
L 926.87688 283.954274 
L 926.87688 184.198383 
L 919.491586 184.198383 
z
" clip-path="url(#p36c2e6dc19)" style="fill: #55a868; stroke: #000000; stroke-linejoin: miter"/>
   </g>
   <g id="patch_59">
    <path d="M 934.262174 283.954274 
L 941.647468 283.954274 
L 941.647468 189.421504 
L 934.262174 189.421504 
z
" clip-path="url(#p36c2e6dc19)" style="fill: #55a868; stroke: #000000; stroke-linejoin: miter"/>
   </g>
   <g id="patch_60">
    <path d="M 949.032762 283.954274 
L 956.418056 283.954274 
L 956.418056 189.811346 
L 949.032762 189.811346 
z
" clip-path="url(#p36c2e6dc19)" style="fill: #55a868; stroke: #000000; stroke-linejoin: miter"/>
   </g>
   <g id="patch_61">
    <path d="M 963.80335 283.954274 
L 971.188644 283.954274 
L 971.188644 196.409729 
L 963.80335 196.409729 
z
" clip-path="url(#p36c2e6dc19)" style="fill: #55a868; stroke: #000000; stroke-linejoin: miter"/>
   </g>
   <g id="patch_62">
    <path d="M 978.573939 283.954274 
L 985.959233 283.954274 
L 985.959233 205.660523 
L 978.573939 205.660523 
z
" clip-path="url(#p36c2e6dc19)" style="fill: #55a868; stroke: #000000; stroke-linejoin: miter"/>
   </g>
   <g id="patch_63">
    <path d="M 993.344527 283.954274 
L 1000.729821 283.954274 
L 1000.729821 219.434789 
L 993.344527 219.434789 
z
" clip-path="url(#p36c2e6dc19)" style="fill: #55a868; stroke: #000000; stroke-linejoin: miter"/>
   </g>
   <g id="patch_64">
    <path d="M 1008.115115 283.954274 
L 1015.500409 283.954274 
L 1015.500409 235.060634 
L 1008.115115 235.060634 
z
" clip-path="url(#p36c2e6dc19)" style="fill: #55a868; stroke: #000000; stroke-linejoin: miter"/>
   </g>
   <g id="patch_65">
    <path d="M 1022.885703 283.954274 
L 1030.270997 283.954274 
L 1030.270997 253.912923 
L 1022.885703 253.912923 
z
" clip-path="url(#p36c2e6dc19)" style="fill: #55a868; stroke: #000000; stroke-linejoin: miter"/>
   </g>
   <g id="patch_66">
    <path d="M 1037.656291 283.954274 
L 1045.041586 283.954274 
L 1045.041586 277.213652 
L 1037.656291 277.213652 
z
" clip-path="url(#p36c2e6dc19)" style="fill: #55a868; stroke: #000000; stroke-linejoin: miter"/>
   </g>
   <g id="patch_67">
    <path d="M 1052.42688 283.954274 
L 1059.812174 283.954274 
L 1059.812174 337.108268 
L 1052.42688 337.108268 
z
" clip-path="url(#p36c2e6dc19)" style="fill: #55a868; stroke: #000000; stroke-linejoin: miter"/>
   </g>
   <g id="patch_68">
    <path d="M 1067.197468 283.954274 
L 1074.582762 283.954274 
L 1074.582762 339.443618 
L 1067.197468 339.443618 
z
" clip-path="url(#p36c2e6dc19)" style="fill: #55a868; stroke: #000000; stroke-linejoin: miter"/>
   </g>
   <g id="patch_69">
    <path d="M 782.863644 373.104 
L 782.863644 40.464 
" style="fill: none; stroke: #262626; stroke-width: 1.25; stroke-linejoin: miter; stroke-linecap: square"/>
   </g>
   <g id="patch_70">
    <path d="M 782.863644 373.104 
L 1078.275409 373.104 
" style="fill: none; stroke: #262626; stroke-width: 1.25; stroke-linejoin: miter; stroke-linecap: square"/>
   </g>
   <g id="text_72">
    <!-- \bf c) -->
    <g style="fill: #262626" transform="translate(734.642518 22.14396) scale(0.2 -0.2)">
     <defs>
      <path id="CMBX12-63" d="M 2995 753 
C 2995 829 2925 829 2861 829 
C 2758 829 2752 823 2720 747 
C 2675 625 2502 197 1914 197 
C 1011 197 1011 1166 1011 1453 
C 1011 1829 1018 2664 1856 2664 
C 1901 2664 2278 2664 2278 2632 
C 2278 2624 2272 2618 2259 2612 
C 2240 2593 2157 2496 2157 2334 
C 2157 2064 2374 1954 2534 1954 
C 2669 1954 2912 2039 2912 2346 
C 2912 2880 2176 2880 1830 2880 
C 691 2880 243 2145 243 1414 
C 243 552 851 -32 1792 -32 
C 2797 -32 2995 708 2995 753 
z
" transform="scale(0.015625)"/>
     </defs>
     <use xlink:href="#CMBX12-63" transform="scale(0.996264)"/>
     <use xlink:href="#CMBX12-29" transform="translate(49.8132 0) scale(0.996264)"/>
    </g>
   </g>
  </g>
 </g>
 <defs>
  <clipPath id="p9257fde1e8">
   <rect x="73.875409" y="40.464" width="295.411765" height="332.64"/>
  </clipPath>
  <clipPath id="p0a5b8a4cad">
   <rect x="428.369527" y="40.464" width="295.411765" height="332.64"/>
  </clipPath>
  <clipPath id="p36c2e6dc19">
   <rect x="782.863644" y="40.464" width="295.411765" height="332.64"/>
  </clipPath>
 </defs>
</svg>
